<svg version="1.0" xmlns="http://www.w3.org/2000/svg"
 width="22pt" height="22pt" viewBox="0 0 300.000000 241.000000">
<g transform="translate(0.000000,241.000000) scale(0.100000,-0.100000)"
fill="#000000" stroke="none">
<path d="M280 2311 c0 -5 -12 -13 -27 -19 -39 -14 -100 -78 -129 -135 l-24
-49 0 -903 0 -903 26 -51 c30 -61 81 -113 138 -141 42 -20 57 -20 1238 -20
l1195 0 46 25 c59 34 103 79 133 138 l24 49 0 763 0 763 -24 49 c-31 61 -87
118 -146 146 -45 22 -50 22 -641 25 l-596 3 -133 134 -133 135 -474 0 c-274 0
-473 -4 -473 -9z m983 -658 c37 -36 67 -72 67 -79 0 -15 -311 -328 -335 -337
-8 -4 -15 -13 -15 -22 0 -13 84 -15 733 -17 l732 -3 3 -104 c2 -67 -1 -108 -9
-117 -10 -12 -128 -14 -735 -14 -451 0 -724 -4 -724 -10 0 -5 8 -13 17 -19 28
-15 333 -323 333 -336 0 -6 -30 -42 -67 -79 -47 -47 -75 -68 -93 -68 -20 0
-91 66 -332 308 -209 209 -308 315 -308 329 0 14 99 120 303 326 258 261 307
306 333 307 26 2 42 -9 97 -65z"/>
</g>
</svg>
