<svg
   xmlns="http://www.w3.org/2000/svg"
   version="1.0"
   width="22pt"
   height="22pt"
   viewBox="0 0 900.000000 723.000000"
   preserveAspectRatio="xMidYMid meet"
   id="svg2">
  <g
     transform="translate(0.000000,723.000000) scale(0.100000,-0.100000)"
     fill="#000000"
     stroke="none"
     id="g6">
    <path
       d="M 871,6943 C 777.93886,6913.5803 775.44186,6915.724 696.30657,6867.7883 553.09489,6773.7299 468.84672,6679.1642 377.68248,6553.1642 346.64227,6489.4237 340.48022,6490.8204 305,6377 l 0,-2778 0,-2778 C 327.40043,730.96749 335.39623,699.98328 357.04745,654.04745 501.35165,481.50163 499.92819,480.79253 679.88321,342.21168 753.08918,292.16443 753.70296,292.31771 858,273 c 15,-5 1655,-8 3645,-8 l 3618,0 c 75.6825,20.83577 77.5195,16.40456 149.5876,57.78832 155.5292,104.37591 223.0365,166.98905 355.4708,343.57664 33.882,67.154 38.1667,96.06283 48.9416,166.63504 l 5,1010 c 3,666 2,1015 -5,1024 l -4090,8 -3,-20 1034,-1022 c 19,-18 34,-40 34,-50 0,-22 -36,-83 -49,-83 l -349,-344 c -18,-23 -148,-22 -182,1 L 3270.7883,3135.1058 c -22,16 -44.5292,47.6351 -55.8467,96.7884 L 3257,3325 5070,5129 c 41,24 105,28 153,7 35,-15 409,-379 420,-409 6.3524,-80.3521 -1.6039,-24.9692 -6.9781,-58.9781 L 4585.0365,3640.5657 4598.4234,3619.8942 8638,3595 l 42,6 0,954 c 0,633 -3,963 -10,981 -9.5693,90.4193 -12.7979,94.2534 -42.9416,154.3175 -109.011,178.2226 -255.8467,302.2117 -353.8467,345.2117 -93.8843,41.0135 -195.3555,69.6581 -294.2117,84.4708 -45,6 -745,10 -1762,10 -1501,0 -1692,2 -1725,15 -40,17 -782,750 -782,773 0,7 -12,17 -26,22 -24,10 -2737,12 -2813,3 z"/>
  </g>
</svg>
