<svg xmlns="http://www.w3.org/2000/svg" fill="none" stroke-linecap="square" stroke-miterlimit="10" viewBox="0 0 960 720">
  <clipPath id="a">
    <path d="M0 0h960v720H0V0z"/>
  </clipPath>
  <g clip-path="url(#a)">
    <path fill="none" d="M0 0h960v720H0z"/>
    <path fill="#f90" fill-rule="evenodd" d="M89.407 438.36h7.543V296.722h15.087V438.36h7.543l-15.087 15.086z"/>
    <path stroke="#000" stroke-linecap="butt" stroke-linejoin="round" d="M89.407 438.36h7.543V296.722h15.087V438.36h7.543l-15.087 15.086z"/>
    <path fill="#cfe2f3" fill-rule="evenodd" d="M18.588 194.454h171.811v102.268H18.588z"/>
    <path stroke="#000" stroke-linecap="butt" stroke-linejoin="round" d="M18.588 194.454h171.811v102.268H18.588z"/>
    <path fill="#000" d="M48.932 241.508v-13.594h4.688q1.578 0 2.422.188 1.156.265 1.984.968 1.078.922 1.61 2.344.53 1.406.53 3.219 0 1.547-.359 2.75-.36 1.187-.922 1.984-.562.782-1.234 1.235-.672.437-1.625.672-.953.234-2.188.234h-4.906zm1.797-1.61h2.906q1.344 0 2.11-.25.765-.25 1.218-.703.641-.64 1-1.718.36-1.078.36-2.625 0-2.125-.703-3.266-.703-1.156-1.703-1.547-.72-.281-2.329-.281H50.73v10.39zm11.457-10.046v-1.938h1.657v1.938h-1.657zm-2.125 15.484l.313-1.422q.5.125.797.125.515 0 .765-.344.25-.328.25-1.687v-10.36h1.657v10.391q0 1.828-.47 2.547-.593.922-2 .922-.671 0-1.312-.172zm12.708-5.047q-.938.797-1.797 1.125-.86.313-1.844.313-1.61 0-2.484-.782-.875-.796-.875-2.03 0-.735.328-1.329t.86-.953q.53-.36 1.202-.547.5-.14 1.485-.25 2.031-.25 2.984-.578v-.438q0-1.015-.469-1.437-.64-.563-1.906-.563-1.172 0-1.734.407-.563.406-.828 1.468l-1.641-.234q.234-1.047.734-1.687.516-.641 1.47-.985.968-.36 2.25-.36 1.265 0 2.046.298.781.297 1.156.75.375.453.516 1.14.094.422.094 1.532v2.234q0 2.328.093 2.953.11.61.438 1.172h-1.75q-.266-.516-.328-1.219zm-.14-3.719q-.907.36-2.735.625-1.032.141-1.453.329-.422.187-.657.546-.234.36-.234.797 0 .672.5 1.125.516.438 1.484.438.97 0 1.72-.422.75-.438 1.108-1.156.266-.578.266-1.672v-.61zm4.078 4.938v-9.86h1.5v1.407q1.094-1.625 3.14-1.625.891 0 1.641.328.75.312 1.11.844.375.515.53 1.218.095.47.095 1.625v6.063H83.05v-6q0-1.016-.203-1.516-.188-.515-.688-.812-.5-.297-1.172-.297-1.062 0-1.844.672-.765.672-.765 2.578v5.375h-1.672zm10.079.812l1.61.25q.109.75.577 1.094.61.453 1.688.453 1.172 0 1.797-.468.625-.454.859-1.282.125-.515.11-2.156-1.094 1.297-2.72 1.297-2.03 0-3.156-1.469-1.109-1.469-1.109-3.515 0-1.407.516-2.594.515-1.203 1.484-1.844.969-.656 2.266-.656 1.75 0 2.875 1.406v-1.187h1.547v8.515q0 2.313-.47 3.266-.468.969-1.484 1.515-1.015.563-2.5.563-1.765 0-2.859-.797-1.078-.797-1.031-2.39zm1.375-5.921q0 1.953.765 2.843.782.89 1.938.89 1.14 0 1.922-.89.781-.89.781-2.781 0-1.812-.812-2.719-.797-.922-1.922-.922-1.11 0-1.891.907-.781.89-.781 2.672zm8.672.187q0-2.734 1.532-4.062 1.265-1.094 3.093-1.094 2.032 0 3.313 1.344 1.297 1.328 1.297 3.671 0 1.907-.578 3-.563 1.079-1.657 1.688-1.078.594-2.375.594-2.062 0-3.343-1.328-1.282-1.329-1.282-3.813zm1.72 0q0 1.89.827 2.828.828.938 2.078.938t2.063-.938q.828-.953.828-2.89 0-1.829-.828-2.766-.828-.938-2.063-.938-1.25 0-2.078.938-.828.937-.828 2.828zm14.714 4.922v-13.594h6.032q1.812 0 2.75.36.953.359 1.515 1.296.563.922.563 2.047 0 1.453-.938 2.453-.922.985-2.89 1.25.718.344 1.093.672.782.735 1.485 1.813l2.375 3.703h-2.266l-1.797-2.828q-.797-1.219-1.312-1.875-.5-.656-.907-.906-.406-.266-.812-.36-.313-.078-1.016-.078h-2.078v6.047h-1.797zm1.797-7.594h3.86q1.234 0 1.921-.25.704-.265 1.063-.828.375-.562.375-1.219 0-.968-.703-1.578-.703-.625-2.219-.625h-4.297v4.5zm11.676 7.594v-13.594h9.844v1.594h-8.047v4.172h7.531v1.594h-7.53v4.625h8.359v1.609H126.74zm11.803-4.375l1.688-.14q.125 1.015.562 1.671.438.656 1.36 1.063.937.406 2.093.406 1.032 0 1.813-.313.797-.312 1.187-.843.391-.532.391-1.157 0-.64-.375-1.109-.375-.484-1.234-.812-.547-.22-2.422-.657-1.875-.453-2.625-.86-.969-.515-1.453-1.265-.47-.75-.47-1.687 0-1.031.579-1.922.594-.906 1.703-1.36 1.125-.468 2.5-.468 1.516 0 2.672.484 1.156.485 1.766 1.438.625.937.672 2.14l-1.72.125q-.14-1.281-.952-1.937-.797-.672-2.36-.672-1.625 0-2.375.61-.75.593-.75 1.437 0 .734.532 1.203.515.469 2.703.969 2.203.5 3.015.875 1.188.547 1.75 1.39.578.828.578 1.922 0 1.094-.625 2.063-.625.953-1.796 1.484-1.157.531-2.61.531-1.844 0-3.094-.531-1.25-.547-1.968-1.625-.703-1.078-.735-2.453zm16.506 4.375v-12h-4.468v-1.594h10.765v1.594h-4.5v12h-1.797zM75.633 263.508l-5.281-13.594h1.953l3.531 9.875q.438 1.188.719 2.219.312-1.11.734-2.219l3.672-9.875h1.844l-5.328 13.594h-1.844zm8.35-11.688v-1.906h1.672v1.906h-1.672zm0 11.688v-9.86h1.672v9.86h-1.672zm10.879-3.172l1.719.219q-.406 1.5-1.516 2.344-1.094.828-2.812.828-2.157 0-3.422-1.328-1.266-1.329-1.266-3.735 0-2.484 1.266-3.86 1.281-1.374 3.328-1.374 1.984 0 3.234 1.344 1.25 1.343 1.25 3.796 0 .141-.015.438h-7.344q.094 1.625.922 2.484.828.86 2.062.86.907 0 1.547-.47.656-.483 1.047-1.546zm-5.484-2.703h5.5q-.11-1.234-.625-1.86-.797-.968-2.078-.968-1.141 0-1.938.781-.781.766-.86 2.047zm10.938 5.875l-3.016-9.86h1.719l1.562 5.688.594 2.125q.031-.156.5-2.031l1.578-5.781h1.72l1.468 5.718.484 1.89.578-1.905 1.688-5.703h1.625l-3.078 9.859h-1.735l-1.578-5.906-.375-1.672-2 7.578h-1.734zm11.254-4.375l1.688-.14q.125 1.015.562 1.671.438.656 1.36 1.063.937.406 2.093.406 1.031 0 1.813-.313.797-.312 1.187-.843.39-.532.39-1.157 0-.64-.374-1.109-.375-.484-1.235-.812-.546-.22-2.421-.657-1.875-.453-2.625-.86-.97-.515-1.454-1.265-.468-.75-.468-1.687 0-1.031.578-1.922.594-.906 1.703-1.36 1.125-.468 2.5-.468 1.516 0 2.672.484 1.156.485 1.765 1.438.625.937.672 2.14l-1.718.125q-.141-1.281-.954-1.937-.796-.672-2.359-.672-1.625 0-2.375.61-.75.593-.75 1.437 0 .734.531 1.203.516.469 2.703.969 2.204.5 3.016.875 1.188.547 1.75 1.39.578.828.578 1.922 0 1.094-.625 2.063-.625.953-1.797 1.484-1.156.531-2.61.531-1.843 0-3.093-.53-1.25-.548-1.969-1.626-.703-1.078-.734-2.453zm19.584 1.203l1.719.219q-.406 1.5-1.516 2.344-1.093.828-2.812.828-2.156 0-3.422-1.328-1.266-1.329-1.266-3.735 0-2.484 1.266-3.86 1.281-1.374 3.328-1.374 1.984 0 3.234 1.344 1.25 1.343 1.25 3.796 0 .141-.015.438h-7.344q.094 1.625.922 2.484.828.86 2.062.86.907 0 1.547-.47.657-.483 1.047-1.546zm-5.484-2.703h5.5q-.11-1.234-.625-1.86-.797-.968-2.078-.968-1.14 0-1.938.781-.781.766-.86 2.047zm12.766 4.375l.235 1.484q-.704.14-1.266.14-.906 0-1.406-.28-.5-.297-.703-.75-.204-.47-.204-1.985v-5.656h-1.234v-1.312h1.234v-2.438l1.657-1v3.438h1.687v1.312h-1.687v5.75q0 .719.078.922.094.203.297.328.203.125.578.125.265 0 .734-.078z"/>
    <path fill="none" d="M18.588 194.454h171.811v25.984H18.588z"/>
    <path fill="red" d="M91.96 215.426q-.624.531-1.218.766-.578.218-1.25.218-1.125 0-1.719-.547-.594-.546-.594-1.39 0-.485.22-.89.234-.423.593-.673.375-.25.828-.375.328-.078 1.016-.172 1.375-.156 2.03-.39.017-.235.017-.297 0-.703-.329-.984-.437-.391-1.296-.391-.813 0-1.204.281-.375.281-.562 1l-1.11-.14q.141-.72.485-1.157.36-.453 1.016-.687.671-.235 1.53-.235.876 0 1.407.204.547.203.797.515.25.297.36.766.046.297.046 1.062v1.516q0 1.594.078 2.016.078.421.282.812h-1.188q-.172-.36-.234-.828zm-.093-2.563q-.625.266-1.86.438-.703.11-1 .234-.296.125-.453.375-.156.235-.156.532 0 .453.344.765.344.297 1.016.297.656 0 1.171-.281.516-.297.766-.797.172-.375.172-1.14v-.423zm3.116 5.97v-9.313h1.03v.875q.376-.516.829-.766.469-.266 1.14-.266.86 0 1.516.454.656.437.985 1.25.343.796.343 1.765 0 1.031-.375 1.86-.36.828-1.078 1.28-.703.438-1.484.438-.563 0-1.016-.234-.453-.25-.75-.625v3.281h-1.14zm1.03-5.907q0 1.297.532 1.922.531.625 1.266.625.765 0 1.312-.64.547-.657.547-2 0-1.298-.531-1.938-.531-.64-1.266-.64-.734 0-1.297.687-.562.671-.562 1.984zm6.382-4.656v-1.328h1.14v1.328h-1.14zm0 7.984v-6.734h1.14v6.734h-1.14zm3.29 0v-1.297h1.296v1.297h-1.297zm3.374 2.578v-9.312h1.031v.875q.375-.516.828-.766.47-.266 1.141-.266.86 0 1.516.454.656.437.984 1.25.344.796.344 1.765 0 1.031-.375 1.86-.36.828-1.078 1.28-.703.438-1.485.438-.562 0-1.015-.234-.453-.25-.75-.625v3.281h-1.14zm1.031-5.906q0 1.297.532 1.922.53.625 1.265.625.766 0 1.313-.64.547-.657.547-2 0-1.298-.532-1.938-.53-.64-1.265-.64-.735 0-1.297.687-.563.671-.563 1.984zm6.335 5.922l-.141-1.063q.375.094.656.094.39 0 .61-.125.234-.125.375-.36.109-.171.359-.843l.094-.281-2.563-6.75h1.235l1.406 3.89q.266.75.484 1.563.203-.781.469-1.531l1.453-3.922h1.14l-2.562 6.843q-.422 1.11-.64 1.532-.313.562-.703.828-.391.265-.938.265-.328 0-.734-.14z"/>
    <path fill="#cfe2f3" fill-rule="evenodd" d="M18.588 22.627h171.811v102.268H18.588z"/>
    <path stroke="#000" stroke-linecap="butt" stroke-linejoin="round" d="M18.588 22.627h171.811v102.268H18.588z"/>
    <path fill="#000" d="M48.404 80.681V67.087h4.687q1.578 0 2.422.188 1.156.266 1.985.969 1.078.922 1.609 2.343.531 1.407.531 3.22 0 1.546-.36 2.75-.359 1.187-.921 1.984-.563.78-1.234 1.234-.672.437-1.625.672-.954.234-2.188.234h-4.906zm1.797-1.61h2.906q1.344 0 2.11-.25.765-.25 1.218-.702.64-.641 1-1.72.36-1.077.36-2.624 0-2.125-.704-3.266-.703-1.156-1.703-1.547-.719-.28-2.328-.28H50.2v10.39zm11.457-10.046v-1.938h1.656v1.938h-1.656zm-2.125 15.484l.313-1.422q.5.125.796.125.516 0 .766-.343.25-.328.25-1.688v-10.36h1.656v10.391q0 1.829-.468 2.547-.594.922-2 .922-.672 0-1.313-.172zm12.707-5.047q-.937.797-1.797 1.125-.859.313-1.843.313-1.61 0-2.485-.781-.875-.797-.875-2.032 0-.734.328-1.328.329-.593.86-.953.531-.36 1.203-.547.5-.14 1.484-.25 2.032-.25 2.985-.578v-.437q0-1.016-.469-1.438-.64-.562-1.906-.562-1.172 0-1.735.406-.562.406-.828 1.469l-1.64-.235q.234-1.047.734-1.687.516-.64 1.469-.985.968-.359 2.25-.359 1.265 0 2.047.297.78.297 1.156.75.375.453.515 1.14.094.422.094 1.532v2.234q0 2.328.094 2.953.11.61.437 1.172h-1.75q-.265-.515-.328-1.219zm-.14-3.718q-.907.359-2.735.625-1.03.14-1.453.328-.422.187-.656.547-.234.359-.234.797 0 .671.5 1.125.515.437 1.484.437t1.719-.422q.75-.437 1.11-1.156.265-.578.265-1.672v-.61zm4.079 4.937v-9.86h1.5v1.407q1.093-1.625 3.14-1.625.89 0 1.64.328.75.313 1.11.844.375.516.531 1.219.094.468.094 1.625v6.062h-1.672v-6q0-1.015-.203-1.515-.187-.516-.687-.813-.5-.297-1.172-.297-1.063 0-1.844.672-.766.672-.766 2.578v5.375H76.18zm10.078.813l1.61.25q.11.75.578 1.093.61.454 1.687.454 1.172 0 1.797-.47.625-.452.86-1.28.125-.516.109-2.157-1.094 1.297-2.719 1.297-2.031 0-3.156-1.469-1.11-1.468-1.11-3.515 0-1.406.516-2.594.516-1.203 1.485-1.844.968-.656 2.265-.656 1.75 0 2.875 1.406v-1.187h1.547v8.515q0 2.313-.469 3.266-.468.969-1.484 1.516-1.016.562-2.5.562-1.766 0-2.86-.797-1.077-.797-1.03-2.39zm1.375-5.922q0 1.953.766 2.844.781.89 1.938.89 1.14 0 1.921-.89.782-.891.782-2.782 0-1.812-.813-2.718-.797-.922-1.922-.922-1.11 0-1.89.906-.782.89-.782 2.672zm8.673.187q0-2.734 1.531-4.062 1.266-1.094 3.094-1.094 2.031 0 3.312 1.344 1.297 1.328 1.297 3.672 0 1.906-.578 3-.562 1.078-1.656 1.687-1.078.594-2.375.594-2.063 0-3.344-1.328-1.281-1.328-1.281-3.813zm1.719 0q0 1.89.828 2.828t2.078.938q1.25 0 2.062-.938.829-.953.829-2.89 0-1.828-.829-2.766-.828-.937-2.062-.937-1.25 0-2.078.937-.828.938-.828 2.828zm14.621 4.922V67.087h2.719l3.219 9.625q.437 1.344.64 2.016.235-.75.735-2.187l3.25-9.454h2.422v13.594h-1.735v-11.39l-3.953 11.39h-1.625l-3.937-11.578v11.578h-1.735zm14.76-4.922q0-2.734 1.531-4.062 1.266-1.094 3.094-1.094 2.031 0 3.312 1.344 1.297 1.328 1.297 3.672 0 1.906-.578 3-.562 1.078-1.656 1.687-1.078.594-2.375.594-2.063 0-3.344-1.328-1.281-1.328-1.281-3.813zm1.719 0q0 1.89.828 2.828t2.078.938q1.25 0 2.062-.938.828-.953.828-2.89 0-1.828-.828-2.766-.828-.937-2.062-.937-1.25 0-2.078.937-.828.938-.828 2.828zm15.672 4.922v-1.25q-.937 1.469-2.75 1.469-1.172 0-2.172-.64-.984-.657-1.531-1.813-.531-1.172-.531-2.688 0-1.468.484-2.672.5-1.203 1.469-1.843.984-.641 2.203-.641.89 0 1.578.375.703.375 1.14.984v-4.875h1.657v13.594h-1.547zm-5.281-4.922q0 1.89.797 2.828.812.938 1.89.938 1.094 0 1.86-.89.765-.891.765-2.735 0-2.016-.78-2.953-.782-.953-1.923-.953-1.11 0-1.86.906t-.75 2.86zm16.016 1.75l1.719.219q-.406 1.5-1.516 2.344-1.093.828-2.812.828-2.156 0-3.422-1.328t-1.266-3.735q0-2.484 1.266-3.859 1.281-1.375 3.328-1.375 1.984 0 3.234 1.344t1.25 3.797q0 .14-.015.437h-7.344q.094 1.625.922 2.485.828.859 2.062.859.907 0 1.547-.469.657-.484 1.047-1.547zm-5.484-2.703h5.5q-.11-1.234-.625-1.86-.797-.968-2.078-.968-1.14 0-1.938.781-.781.766-.86 2.047zm9.079 5.875V67.087h1.672v13.594h-1.672z"/>
    <path fill="none" d="M18.588 22.627h171.811v25.985H18.588z"/>
    <path fill="red" d="M74.98 44.427v-6.734h1.016v.937q.328-.5.844-.796.531-.297 1.203-.297.75 0 1.219.312.484.313.687.86.797-1.172 2.078-1.172 1 0 1.532.562.547.547.547 1.703v4.625H82.98v-4.25q0-.687-.11-.984-.11-.297-.406-.484-.297-.188-.688-.188-.718 0-1.187.484-.469.47-.469 1.5v3.922h-1.14v-4.375q0-.765-.282-1.14-.281-.391-.906-.391-.484 0-.89.266-.407.25-.594.734-.188.484-.188 1.406v3.5h-1.14zm10.681-3.375q0-1.875 1.031-2.765.875-.75 2.125-.75 1.391 0 2.266.906.89.906.89 2.516 0 1.296-.39 2.046-.39.75-1.14 1.172-.75.407-1.626.407-1.422 0-2.297-.907-.859-.906-.859-2.625zm1.172 0q0 1.297.562 1.953.563.641 1.422.641.844 0 1.407-.64.578-.657.578-1.985 0-1.25-.578-1.89-.563-.657-1.407-.657-.859 0-1.422.64-.562.641-.562 1.938zm11.037 3.375v-.843q-.64 1-1.89 1-.797 0-1.485-.438-.671-.453-1.046-1.25-.375-.797-.375-1.828 0-1.016.343-1.828.344-.828 1.016-1.266.672-.437 1.5-.437.61 0 1.078.265.484.25.781.657v-3.344h1.141v9.312H97.87zm-3.609-3.36q0 1.298.531 1.938.547.641 1.297.641.75 0 1.266-.61.531-.624.531-1.874 0-1.391-.531-2.032-.531-.656-1.313-.656-.765 0-1.28.625-.5.625-.5 1.969zm11.256 1.188l1.188.141q-.281 1.047-1.047 1.625-.75.563-1.922.563-1.484 0-2.36-.907-.859-.922-.859-2.562 0-1.703.875-2.64.89-.938 2.282-.938 1.359 0 2.203.922.86.921.86 2.578v.312h-5.032q.062 1.11.625 1.703.562.594 1.406.594.64 0 1.078-.328.453-.344.703-1.063zm-3.75-1.843h3.766q-.078-.86-.438-1.282-.546-.656-1.406-.656-.797 0-1.328.531-.531.516-.594 1.407zm6.522 4.015v-9.312h1.14v9.312h-1.14zm2.54-2.015l1.124-.172q.094.672.532 1.047.437.359 1.218.359.782 0 1.157-.312.39-.329.39-.766 0-.39-.344-.61-.234-.156-1.171-.39-1.25-.313-1.735-.547-.484-.234-.734-.64-.25-.407-.25-.907 0-.453.203-.828.203-.39.562-.64.266-.204.72-.329.468-.14 1-.14.78 0 1.374.234.61.219.89.61.298.39.407 1.046l-1.125.157q-.078-.532-.437-.813-.36-.297-1.032-.297-.78 0-1.125.266-.343.25-.343.61 0 .218.14.39.14.187.438.312.172.063 1.015.282 1.22.328 1.688.53.484.204.75.61.281.39.281.969 0 .578-.344 1.078-.328.5-.953.781-.625.282-1.422.282-1.312 0-2-.547-.687-.547-.875-1.625zm7.445 2.015V43.13h1.297v1.297h-1.297zm3.375 2.578v-9.312h1.03v.875q.376-.516.829-.766.469-.265 1.14-.265.86 0 1.516.453.656.437.985 1.25.343.797.343 1.765 0 1.032-.375 1.86-.36.828-1.078 1.281-.703.438-1.484.438-.563 0-1.016-.235-.453-.25-.75-.625v3.281h-1.14zm1.03-5.906q0 1.297.532 1.922.531.625 1.266.625.765 0 1.312-.64.547-.657.547-2 0-1.297-.531-1.938-.531-.64-1.266-.64-.734 0-1.297.687-.562.672-.562 1.984zm6.335 5.922l-.14-1.062q.375.093.656.093.39 0 .61-.125.234-.125.374-.36.11-.171.36-.843.03-.094.093-.281l-2.562-6.75h1.234l1.406 3.89q.266.75.485 1.563.203-.781.469-1.531l1.453-3.922h1.14l-2.562 6.844q-.422 1.109-.64 1.53-.313.563-.704.829-.39.266-.937.266-.329 0-.735-.141z"/>
    <path fill="#cfe2f3" fill-rule="evenodd" d="M18.588 453.446h171.811v102.268H18.588z"/>
    <path stroke="#000" stroke-linecap="butt" stroke-linejoin="round" d="M18.588 453.446h171.811v102.268H18.588z"/>
    <path fill="#000" d="M48.932 500.5v-13.594h4.688q1.578 0 2.422.188 1.156.265 1.984.969 1.078.921 1.61 2.343.53 1.407.53 3.22 0 1.546-.359 2.75-.36 1.187-.922 1.983-.562.782-1.234 1.235-.672.437-1.625.672-.953.234-2.188.234h-4.906zm1.797-1.61h2.906q1.344 0 2.11-.25.765-.25 1.218-.702.641-.641 1-1.72.36-1.077.36-2.624 0-2.125-.703-3.266-.703-1.156-1.703-1.547-.72-.28-2.329-.28H50.73v10.39zm11.457-10.046v-1.938h1.657v1.938h-1.657zm-2.125 15.484l.313-1.422q.5.125.797.125.515 0 .765-.343.25-.329.25-1.688v-10.36h1.657v10.391q0 1.828-.47 2.547-.593.922-2 .922-.671 0-1.312-.172zm12.708-5.047q-.938.797-1.797 1.125-.86.313-1.844.313-1.61 0-2.484-.781-.875-.797-.875-2.032 0-.734.328-1.328.328-.594.86-.953.53-.36 1.202-.547.5-.14 1.485-.25 2.031-.25 2.984-.578v-.437q0-1.016-.469-1.438-.64-.562-1.906-.562-1.172 0-1.734.406-.563.406-.828 1.469l-1.641-.235q.234-1.047.734-1.687.516-.64 1.47-.985.968-.36 2.25-.36 1.265 0 2.046.298.781.297 1.156.75.375.453.516 1.14.094.422.094 1.532v2.234q0 2.328.093 2.953.11.61.438 1.172h-1.75q-.266-.516-.328-1.219zm-.14-3.718q-.907.359-2.735.625-1.032.14-1.453.328-.422.187-.657.547-.234.359-.234.796 0 .672.5 1.125.516.438 1.484.438.97 0 1.72-.422.75-.437 1.108-1.156.266-.578.266-1.672v-.61zm4.078 4.937v-9.86h1.5v1.407q1.094-1.625 3.14-1.625.891 0 1.641.328.75.313 1.11.844.375.515.53 1.219.095.468.095 1.625v6.062H83.05v-6q0-1.016-.203-1.516-.188-.515-.688-.812-.5-.297-1.172-.297-1.062 0-1.844.672-.765.672-.765 2.578v5.375h-1.672zm10.079.813l1.61.25q.109.75.577 1.093.61.453 1.688.453 1.172 0 1.797-.468.625-.453.859-1.282.125-.515.11-2.156-1.094 1.297-2.72 1.297-2.03 0-3.156-1.469-1.109-1.468-1.109-3.515 0-1.407.516-2.594.515-1.203 1.484-1.844.969-.656 2.266-.656 1.75 0 2.875 1.406v-1.187h1.547v8.515q0 2.313-.47 3.266-.468.969-1.484 1.516-1.015.562-2.5.562-1.765 0-2.859-.797-1.078-.797-1.031-2.39zm1.375-5.922q0 1.953.765 2.843.782.891 1.938.891 1.14 0 1.922-.89.781-.891.781-2.782 0-1.812-.812-2.719-.797-.921-1.922-.921-1.11 0-1.891.906-.781.89-.781 2.672zm8.672.187q0-2.734 1.532-4.062 1.265-1.094 3.093-1.094 2.032 0 3.313 1.344 1.297 1.328 1.297 3.672 0 1.906-.578 3-.563 1.078-1.657 1.687-1.078.594-2.375.594-2.062 0-3.343-1.328-1.282-1.328-1.282-3.813zm1.72 0q0 1.89.827 2.828.828.938 2.078.938t2.063-.938q.828-.953.828-2.89 0-1.828-.828-2.766-.828-.937-2.063-.937-1.25 0-2.078.937-.828.938-.828 2.828zm14.714 4.922v-13.594h6.032q1.812 0 2.75.36.953.36 1.515 1.297.563.921.563 2.046 0 1.454-.938 2.454-.922.984-2.89 1.25.718.343 1.093.671.782.735 1.485 1.813l2.375 3.703h-2.266l-1.797-2.828q-.797-1.219-1.312-1.875-.5-.656-.907-.906-.406-.266-.812-.36-.313-.078-1.016-.078h-2.078v6.047h-1.797zm1.797-7.594h3.86q1.234 0 1.921-.25.704-.265 1.063-.828.375-.562.375-1.219 0-.968-.703-1.578-.703-.625-2.219-.625h-4.297v4.5zm11.676 7.594v-13.594h9.844v1.594h-8.047v4.172h7.531v1.594h-7.53v4.625h8.359v1.61H126.74zm11.803-4.375l1.688-.14q.125 1.015.562 1.671.438.657 1.36 1.063.937.406 2.093.406 1.032 0 1.813-.312.797-.313 1.187-.844.391-.531.391-1.156 0-.641-.375-1.11-.375-.484-1.234-.812-.547-.22-2.422-.657-1.875-.453-2.625-.859-.969-.516-1.453-1.266-.47-.75-.47-1.687 0-1.031.579-1.922.594-.906 1.703-1.36 1.125-.468 2.5-.468 1.516 0 2.672.484 1.156.485 1.766 1.438.625.937.672 2.14l-1.72.125q-.14-1.28-.952-1.937-.797-.672-2.36-.672-1.625 0-2.375.61-.75.593-.75 1.437 0 .734.532 1.203.515.469 2.703.969 2.203.5 3.015.875 1.188.547 1.75 1.39.578.829.578 1.922 0 1.094-.625 2.063-.625.953-1.796 1.484-1.157.531-2.61.531-1.844 0-3.094-.53-1.25-.548-1.968-1.626-.703-1.078-.735-2.453zm16.506 4.375v-12h-4.468v-1.594h10.765v1.594h-4.5v12h-1.797zM66.473 518.125l1.688-.14q.125 1.015.562 1.671.438.657 1.36 1.063.937.406 2.094.406 1.03 0 1.812-.312.797-.313 1.188-.844.39-.531.39-1.156 0-.641-.375-1.11-.375-.484-1.234-.812-.547-.22-2.422-.657-1.875-.453-2.625-.859-.969-.516-1.453-1.266-.469-.75-.469-1.687 0-1.031.578-1.922.594-.906 1.703-1.36 1.125-.468 2.5-.468 1.516 0 2.672.484 1.156.485 1.766 1.438.625.937.672 2.14l-1.719.125q-.14-1.28-.953-1.937-.797-.672-2.36-.672-1.625 0-2.375.61-.75.593-.75 1.437 0 .734.532 1.203.515.469 2.703.969 2.203.5 3.015.875 1.188.547 1.75 1.39.579.829.579 1.922 0 1.094-.625 2.063-.625.953-1.797 1.484-1.157.531-2.61.531-1.843 0-3.093-.53-1.25-.548-1.97-1.626-.702-1.078-.734-2.453zm19.585 1.203l1.718.219q-.406 1.5-1.515 2.344-1.094.828-2.813.828-2.156 0-3.422-1.328-1.265-1.328-1.265-3.735 0-2.484 1.265-3.86 1.282-1.374 3.329-1.374 1.984 0 3.234 1.344 1.25 1.343 1.25 3.797 0 .14-.016.437H80.48q.093 1.625.921 2.484.829.86 2.063.86.906 0 1.547-.469.656-.484 1.047-1.547zm-5.485-2.703h5.5q-.11-1.234-.625-1.86-.797-.968-2.078-.968-1.14 0-1.937.781-.782.766-.86 2.047zm9.095 5.875v-9.86h1.5v1.5q.578-1.046 1.062-1.374.485-.344 1.078-.344.844 0 1.72.547l-.579 1.547q-.61-.36-1.234-.36-.547 0-.985.328-.422.329-.61.907-.28.89-.28 1.953v5.156h-1.672zm6.244-11.687v-1.907h1.672v1.907h-1.672zm0 11.687v-9.86h1.672v9.86h-1.672zm10.566-1.219q-.937.797-1.796 1.125-.86.313-1.844.313-1.61 0-2.485-.781-.875-.797-.875-2.032 0-.734.329-1.328.328-.594.859-.953.531-.36 1.203-.547.5-.14 1.484-.25 2.032-.25 2.985-.578v-.437q0-1.016-.469-1.438-.64-.562-1.906-.562-1.172 0-1.735.406-.562.406-.828 1.469l-1.64-.235q.234-1.047.734-1.687.516-.64 1.469-.985.969-.36 2.25-.36 1.265 0 2.047.298.78.297 1.156.75.375.453.516 1.14.093.422.093 1.532v2.234q0 2.328.094 2.953.11.61.438 1.172h-1.75q-.266-.516-.329-1.219zm-.14-3.718q-.906.359-2.735.625-1.03.14-1.453.328-.422.187-.656.547-.234.359-.234.796 0 .672.5 1.125.515.438 1.484.438t1.719-.422q.75-.437 1.11-1.156.265-.578.265-1.672v-.61zm4.047 4.937v-13.594h1.672V522.5h-1.672zm4.192-11.687v-1.907h1.672v1.907h-1.672zm0 11.687v-9.86h1.672v9.86h-1.672zm3.254 0v-1.36l6.266-7.187q-1.063.047-1.875.047h-4.016v-1.36h8.047v1.11L120.91 520l-1.015 1.14q1.11-.077 2.094-.077h4.562v1.437h-8.719zm16.953-3.172l1.72.219q-.407 1.5-1.516 2.344-1.094.828-2.813.828-2.156 0-3.422-1.328-1.265-1.328-1.265-3.735 0-2.484 1.265-3.86 1.281-1.374 3.328-1.374 1.985 0 3.235 1.344 1.25 1.343 1.25 3.797 0 .14-.016.437h-7.344q.094 1.625.922 2.484.828.86 2.063.86.906 0 1.547-.469.656-.484 1.046-1.547zm-5.484-2.703h5.5q-.11-1.234-.625-1.86-.797-.968-2.078-.968-1.14 0-1.938.781-.78.766-.859 2.047zm9.094 5.875v-9.86h1.5v1.5q.579-1.046 1.063-1.374.484-.344 1.078-.344.844 0 1.719.547l-.578 1.547q-.61-.36-1.235-.36-.547 0-.984.328-.422.329-.61.907-.28.89-.28 1.953v5.156h-1.673z"/>
    <path fill="none" d="M18.588 453.446h171.811v25.984H18.588z"/>
    <path fill="red" d="M66.015 473.23l1.125-.171q.094.672.531 1.047.438.359 1.22.359.78 0 1.155-.313.391-.328.391-.765 0-.39-.344-.61-.234-.156-1.172-.39-1.25-.313-1.734-.547-.484-.234-.734-.64-.25-.407-.25-.907 0-.453.203-.828.203-.39.562-.64.266-.204.719-.329.469-.14 1-.14.781 0 1.375.234.61.219.89.61.297.39.407 1.046l-1.125.156q-.078-.53-.438-.812-.359-.297-1.03-.297-.782 0-1.126.266-.344.25-.344.61 0 .218.141.39.14.187.437.312.172.063 1.016.281 1.219.329 1.688.532.484.203.75.61.28.39.28.968t-.343 1.078q-.328.5-.953.781t-1.422.281q-1.312 0-2-.546-.687-.547-.875-1.625zm11.727-.156l1.187.14q-.281 1.048-1.047 1.626-.75.562-1.922.562-1.484 0-2.359-.906-.86-.922-.86-2.562 0-1.703.876-2.64.89-.938 2.28-.938 1.36 0 2.204.921.86.922.86 2.579v.312h-5.032q.063 1.11.625 1.703.563.594 1.406.594.641 0 1.079-.328.453-.344.703-1.063zm-3.75-1.843h3.765q-.078-.86-.437-1.282-.547-.656-1.406-.656-.797 0-1.329.531-.53.516-.593 1.407zm6.537 4.015v-6.734h1.031v1.015q.391-.718.72-.937.343-.234.734-.234.578 0 1.171.359l-.39 1.062q-.422-.25-.828-.25-.375 0-.688.235-.297.219-.422.625-.187.61-.187 1.328v3.531h-1.14zm4.454-7.984v-1.328h1.14v1.328h-1.14zm0 7.984v-6.734h1.14v6.734h-1.14zm7.352-.828q-.625.531-1.219.766-.578.218-1.25.218-1.125 0-1.719-.546-.593-.547-.593-1.391 0-.484.218-.89.235-.423.594-.673.375-.25.828-.375.328-.078 1.016-.171 1.375-.157 2.031-.391.016-.234.016-.297 0-.703-.328-.984-.438-.39-1.297-.39-.813 0-1.203.28-.375.282-.563 1l-1.11-.14q.141-.72.485-1.157.36-.453 1.016-.687.672-.234 1.531-.234.875 0 1.406.203.547.203.797.515.25.297.36.766.046.297.046 1.062v1.516q0 1.594.078 2.016.079.422.282.812h-1.188q-.172-.36-.234-.828zm-.094-2.562q-.625.265-1.86.437-.702.11-1 .234-.296.125-.452.375-.157.235-.157.532 0 .453.344.765.344.297 1.016.297.656 0 1.172-.281.515-.297.765-.797.172-.375.172-1.14v-.422zm3.084 3.39v-9.312h1.141v9.312h-1.14zm2.993-7.984v-1.328h1.14v1.328h-1.14zm0 7.984v-6.734h1.14v6.734h-1.14zm2.352 0v-.922l4.296-4.937q-.734.047-1.296.047h-2.735v-.922h5.5v.75l-3.64 4.281-.72.781q.782-.062 1.454-.062h3.11v.984h-5.97zm11.882-2.172l1.188.14q-.281 1.048-1.047 1.626-.75.562-1.922.562-1.484 0-2.36-.906-.859-.922-.859-2.562 0-1.703.875-2.64.891-.938 2.282-.938 1.359 0 2.203.921.86.922.86 2.579v.312h-5.032q.062 1.11.625 1.703.562.594 1.406.594.64 0 1.078-.328.453-.344.703-1.063zm-3.75-1.843h3.766q-.078-.86-.438-1.282-.546-.656-1.406-.656-.797 0-1.328.531-.531.516-.594 1.407zm6.538 4.015v-6.734h1.031v1.015q.39-.718.719-.937.344-.234.734-.234.578 0 1.172.359l-.39 1.062q-.422-.25-.829-.25-.375 0-.687.235-.297.219-.422.625-.188.61-.188 1.328v3.531h-1.14zm4-2.015l1.126-.172q.093.672.53 1.047.438.359 1.22.359.78 0 1.156-.313.39-.328.39-.765 0-.39-.343-.61-.235-.156-1.172-.39-1.25-.313-1.734-.547-.485-.234-.735-.64-.25-.407-.25-.907 0-.453.203-.828.203-.39.563-.64.265-.204.719-.329.468-.14 1-.14.78 0 1.375.234.609.219.89.61.297.39.406 1.046l-1.125.156q-.078-.53-.437-.812-.36-.297-1.031-.297-.782 0-1.125.266-.344.25-.344.61 0 .218.14.39.141.187.438.312.172.063 1.016.281 1.218.329 1.687.532.485.203.75.61.281.39.281.968t-.343 1.078q-.328.5-.953.781t-1.422.281q-1.313 0-2-.546-.688-.547-.875-1.625zm7.446 2.015v-1.297h1.297v1.297h-1.297zm3.375 2.578v-9.312h1.031v.875q.375-.516.828-.766.469-.265 1.14-.265.86 0 1.516.453.657.437.985 1.25.344.797.344 1.765 0 1.032-.375 1.86-.36.828-1.079 1.28-.703.438-1.484.438-.562 0-1.016-.234-.453-.25-.75-.625v3.281h-1.14zm1.031-5.906q0 1.297.531 1.922.532.625 1.266.625.766 0 1.312-.64.547-.657.547-2 0-1.298-.53-1.938-.532-.64-1.267-.64-.734 0-1.296.687-.563.672-.563 1.984zm6.334 5.922l-.14-1.063q.375.094.656.094.39 0 .61-.125.234-.125.374-.36.11-.171.36-.843l.094-.281-2.563-6.75h1.234l1.407 3.89q.265.75.484 1.563.203-.781.469-1.531l1.453-3.922h1.14l-2.562 6.844q-.422 1.109-.64 1.53-.313.563-.704.829-.39.266-.937.266-.328 0-.735-.141z"/>
    <path fill="none" d="M18.588 320.186H356.66"/>
    <path stroke="red" stroke-dasharray="32.0,24.0" stroke-linecap="butt" stroke-linejoin="round" stroke-width="8" d="M18.588 320.186H356.66"/>
    <path fill="none" d="M18.588 429.979H356.66"/>
    <path stroke="#6aa84f" stroke-dasharray="12.0,9.0,3.0,9.0" stroke-linecap="butt" stroke-linejoin="round" stroke-width="3" d="M18.588 429.979H356.66"/>
    <path fill="#cfe2f3" fill-rule="evenodd" d="M340.547 269.053H491.19V371.32H340.547z"/>
    <path stroke="#000" stroke-linecap="butt" stroke-linejoin="round" d="M340.547 269.053H491.19V371.32H340.547z"/>
    <path fill="#000" d="M360.307 316.106v-13.593h4.688q1.578 0 2.422.187 1.156.266 1.984.969 1.078.922 1.61 2.344.53 1.406.53 3.218 0 1.547-.359 2.75-.36 1.188-.922 1.985-.562.781-1.234 1.234-.672.438-1.625.672-.953.234-2.187.234h-4.907zm1.797-1.609h2.906q1.344 0 2.11-.25.765-.25 1.219-.703.64-.64 1-1.719.359-1.078.359-2.625 0-2.125-.703-3.266-.703-1.156-1.703-1.546-.72-.282-2.328-.282h-2.86v10.391zm11.457-10.047v-1.937h1.657v1.937h-1.657zm-2.125 15.484l.313-1.421q.5.125.797.125.515 0 .765-.344.25-.328.25-1.688v-10.359h1.657v10.39q0 1.829-.469 2.547-.594.922-2 .922-.672 0-1.313-.172zm12.708-5.046q-.938.796-1.797 1.125-.86.312-1.844.312-1.61 0-2.484-.781-.875-.797-.875-2.031 0-.735.328-1.329.328-.593.86-.953.53-.359 1.202-.547.5-.14 1.485-.25 2.031-.25 2.984-.578v-.437q0-1.016-.469-1.438-.64-.562-1.906-.562-1.172 0-1.734.406-.563.406-.828 1.469l-1.64-.235q.233-1.046.733-1.687.516-.64 1.47-.984.968-.36 2.25-.36 1.265 0 2.046.297.781.297 1.156.75.375.453.516 1.14.094.423.094 1.532v2.234q0 2.328.093 2.953.11.61.438 1.172h-1.75q-.266-.515-.328-1.218zm-.14-3.72q-.907.36-2.735.626-1.031.14-1.453.328-.422.187-.657.547-.234.36-.234.797 0 .672.5 1.125.516.437 1.484.437.97 0 1.72-.422.75-.437 1.109-1.156.265-.578.265-1.672v-.61zm4.078 4.938v-9.859h1.5v1.406q1.094-1.625 3.14-1.625.891 0 1.641.328.75.313 1.11.844.375.516.53 1.219.095.469.095 1.625v6.062h-1.672v-6q0-1.015-.203-1.515-.188-.516-.688-.813-.5-.297-1.172-.297-1.062 0-1.843.672-.766.672-.766 2.578v5.375h-1.672zm10.079.813l1.61.25q.109.75.577 1.094.61.453 1.688.453 1.172 0 1.797-.469.625-.453.86-1.281.124-.516.109-2.157-1.094 1.297-2.72 1.297-2.03 0-3.155-1.468-1.11-1.47-1.11-3.516 0-1.406.516-2.594.515-1.203 1.484-1.844.969-.656 2.266-.656 1.75 0 2.875 1.406v-1.187h1.547v8.516q0 2.312-.47 3.265-.468.969-1.483 1.516-1.016.562-2.5.562-1.766 0-2.86-.797-1.078-.796-1.031-2.39zm1.375-5.922q0 1.953.766 2.844.78.89 1.937.89 1.14 0 1.922-.89.781-.89.781-2.782 0-1.812-.812-2.718-.797-.922-1.922-.922-1.11 0-1.89.906-.782.89-.782 2.672zm8.672.187q0-2.734 1.532-4.062 1.265-1.094 3.093-1.094 2.032 0 3.313 1.344 1.297 1.328 1.297 3.672 0 1.906-.578 3-.563 1.078-1.657 1.687-1.078.594-2.375.594-2.062 0-3.343-1.328-1.282-1.328-1.282-3.813zm1.72 0q0 1.891.827 2.829.828.937 2.078.937t2.063-.937q.828-.954.828-2.891 0-1.828-.828-2.766-.828-.937-2.063-.937-1.25 0-2.078.937-.828.938-.828 2.828zm14.714 4.922v-13.593h6.032q1.812 0 2.75.359.953.36 1.515 1.297.563.922.563 2.047 0 1.453-.938 2.453-.922.984-2.89 1.25.718.344 1.093.672.782.734 1.485 1.812l2.375 3.703h-2.266l-1.797-2.828q-.797-1.219-1.312-1.875-.5-.656-.906-.906-.407-.266-.813-.36-.312-.078-1.016-.078h-2.078v6.047h-1.797zm1.797-7.593h3.86q1.234 0 1.922-.25.703-.266 1.062-.829.375-.562.375-1.218 0-.969-.703-1.578-.703-.625-2.219-.625h-4.297v4.5zm11.676 7.593v-13.593h9.844v1.593h-8.047v4.172h7.532v1.594h-7.532v4.625h8.36v1.61h-10.157zm11.803-4.375l1.688-.14q.125 1.015.562 1.672.438.656 1.36 1.062.937.406 2.094.406 1.03 0 1.812-.312.797-.313 1.188-.844.39-.531.39-1.156 0-.64-.375-1.11-.375-.484-1.234-.812-.547-.219-2.422-.656-1.875-.453-2.625-.86-.969-.515-1.453-1.265-.469-.75-.469-1.688 0-1.031.578-1.922.594-.906 1.703-1.359 1.125-.469 2.5-.469 1.516 0 2.672.485 1.156.484 1.766 1.437.625.938.672 2.14l-1.72.126q-.14-1.282-.952-1.938-.797-.672-2.36-.672-1.625 0-2.375.61-.75.593-.75 1.437 0 .735.532 1.203.515.47 2.703.97 2.203.5 3.015.874 1.188.547 1.75 1.39.579.829.579 1.923 0 1.093-.625 2.062-.625.953-1.797 1.484-1.157.532-2.61.532-1.843 0-3.093-.532-1.25-.546-1.97-1.625-.702-1.078-.734-2.453zm16.506 4.375v-12h-4.468v-1.593h10.765v1.593h-4.5v12h-1.797zM366.538 338.106v-13.593h5.125q1.36 0 2.078.125 1 .171 1.672.64.672.469 1.078 1.313.422.843.422 1.843 0 1.735-1.11 2.938-1.093 1.203-3.984 1.203h-3.484v5.531h-1.797zm1.797-7.14h3.516q1.75 0 2.468-.64.735-.657.735-1.829 0-.86-.438-1.469-.422-.61-1.125-.797-.453-.125-1.672-.125h-3.484v4.86zm17.178 3.968l1.719.22q-.406 1.5-1.516 2.343-1.094.828-2.812.828-2.157 0-3.422-1.328-1.266-1.328-1.266-3.734 0-2.485 1.266-3.86 1.281-1.375 3.328-1.375 1.984 0 3.234 1.344t1.25 3.797q0 .14-.015.437h-7.344q.094 1.625.922 2.485.828.86 2.062.86.907 0 1.547-.47.656-.484 1.047-1.547zm-5.484-2.703h5.5q-.11-1.234-.625-1.859-.797-.969-2.078-.969-1.141 0-1.938.781-.781.766-.86 2.047zm9.094 5.875v-9.859h1.5v1.5q.578-1.047 1.063-1.375.484-.344 1.078-.344.843 0 1.718.547l-.578 1.547q-.609-.36-1.234-.36-.547 0-.984.329-.422.328-.61.906-.281.89-.281 1.953v5.156h-1.672zm6.228 0v-9.859h1.5v1.39q.454-.718 1.22-1.156.78-.453 1.765-.453 1.094 0 1.797.453.703.453.984 1.282 1.172-1.735 3.047-1.735 1.469 0 2.25.813.797.812.797 2.5v6.765h-1.672v-6.203q0-1-.156-1.437-.157-.453-.594-.719-.422-.266-1-.266-1.031 0-1.719.688-.687.687-.687 2.219v5.718h-1.672V331.7q0-1.11-.406-1.656-.407-.563-1.344-.563-.703 0-1.313.375-.593.36-.86 1.078-.265.72-.265 2.063v5.11h-1.672zm15.557-11.687v-1.906h1.672v1.906h-1.672zm0 11.687v-9.859h1.672v9.86h-1.672zm3.457-2.937l1.656-.266q.141 1 .766 1.531.64.516 1.781.516 1.157 0 1.703-.469.563-.468.563-1.093 0-.563-.484-.891-.344-.219-1.704-.563-1.843-.468-2.562-.796-.703-.344-1.078-.938-.36-.61-.36-1.328 0-.656.297-1.219.313-.562.828-.937.391-.282 1.063-.485.672-.203 1.437-.203 1.172 0 2.047.344.875.328 1.282.906.421.563.578 1.516l-1.625.219q-.11-.75-.657-1.172-.53-.438-1.5-.438-1.156 0-1.64.39-.485.376-.485.876 0 .328.204.594.203.265.64.437.25.094 1.469.438 1.766.468 2.469.765.703.297 1.093.875.407.578.407 1.438 0 .828-.485 1.578-.484.734-1.406 1.14-.922.391-2.078.391-1.922 0-2.938-.797-1-.797-1.28-2.36zm9.328 0l1.657-.266q.14 1 .765 1.531.64.516 1.781.516 1.157 0 1.704-.469.562-.468.562-1.093 0-.563-.484-.891-.344-.219-1.703-.563-1.844-.468-2.563-.796-.703-.344-1.078-.938-.36-.61-.36-1.328 0-.656.297-1.219.313-.562.829-.937.39-.282 1.062-.485t1.438-.203q1.171 0 2.046.344.875.328 1.282.906.422.563.578 1.516l-1.625.219q-.11-.75-.656-1.172-.532-.438-1.5-.438-1.157 0-1.641.39-.484.376-.484.876 0 .328.203.594.203.265.64.437.25.094 1.469.438 1.766.468 2.469.765.703.297 1.094.875.406.578.406 1.438 0 .828-.485 1.578-.484.734-1.406 1.14-.922.391-2.078.391-1.922 0-2.937-.797-1-.797-1.282-2.36zm10.016-8.75v-1.906h1.672v1.906h-1.672zm0 11.687v-9.859h1.672v9.86h-1.672zm3.504-4.922q0-2.734 1.531-4.062 1.266-1.094 3.094-1.094 2.031 0 3.313 1.344 1.296 1.328 1.296 3.672 0 1.906-.578 3-.562 1.078-1.656 1.687-1.078.594-2.375.594-2.062 0-3.344-1.328-1.28-1.328-1.28-3.813zm1.719 0q0 1.891.828 2.829.828.937 2.078.937t2.063-.937q.828-.954.828-2.891 0-1.828-.828-2.766-.829-.937-2.063-.937-1.25 0-2.078.937-.828.938-.828 2.828zm9.282 4.922v-9.859h1.5v1.406q1.094-1.625 3.14-1.625.891 0 1.641.328.75.313 1.11.844.374.516.53 1.219.094.469.094 1.625v6.062h-1.671v-6q0-1.015-.204-1.515-.187-.516-.687-.813-.5-.297-1.172-.297-1.062 0-1.844.672-.765.672-.765 2.578v5.375h-1.672zm9.704-2.937l1.656-.266q.14 1 .766 1.531.64.516 1.78.516 1.157 0 1.704-.469.562-.468.562-1.093 0-.563-.484-.891-.344-.219-1.703-.563-1.844-.468-2.563-.796-.703-.344-1.078-.938-.36-.61-.36-1.328 0-.656.298-1.219.312-.562.828-.937.39-.282 1.062-.485t1.438-.203q1.172 0 2.047.344.875.328 1.281.906.422.563.578 1.516l-1.625.219q-.11-.75-.656-1.172-.531-.438-1.5-.438-1.156 0-1.64.39-.485.376-.485.876 0 .328.203.594.203.265.64.437.25.094 1.47.438 1.765.468 2.468.765.703.297 1.094.875.406.578.406 1.438 0 .828-.484 1.578-.485.734-1.406 1.14-.922.391-2.079.391-1.921 0-2.937-.797-1-.797-1.281-2.36z"/>
    <path fill="none" d="M340.547 269.053H491.19v25.984H340.547z"/>
    <path fill="red" d="M403.336 290.024q-.625.532-1.219.766-.578.219-1.25.219-1.125 0-1.719-.547-.593-.547-.593-1.39 0-.485.218-.891.235-.422.594-.672.375-.25.828-.375.328-.078 1.016-.172 1.375-.156 2.031-.39.016-.235.016-.298 0-.703-.328-.984-.438-.39-1.297-.39-.813 0-1.203.28-.375.282-.563 1l-1.11-.14q.141-.719.485-1.156.36-.453 1.016-.688.672-.234 1.53-.234.876 0 1.407.203.547.203.797.516.25.296.36.765.046.297.046 1.063v1.515q0 1.594.078 2.016.079.422.282.812h-1.188q-.172-.359-.234-.828zm-.094-2.562q-.625.265-1.86.437-.702.11-1 .235-.296.125-.452.375-.157.234-.157.531 0 .453.344.766.344.296 1.016.296.656 0 1.172-.28.515-.298.765-.798.172-.375.172-1.14v-.422zm3.116 5.969v-9.313h1.03v.875q.376-.516.829-.766.469-.265 1.14-.265.86 0 1.516.453.657.437.985 1.25.343.797.343 1.766 0 1.03-.375 1.859-.359.828-1.078 1.281-.703.438-1.484.438-.563 0-1.016-.235-.453-.25-.75-.625v3.282h-1.14zm1.03-5.907q0 1.297.532 1.922.531.625 1.266.625.765 0 1.312-.64.547-.657.547-2 0-1.297-.531-1.938-.531-.64-1.266-.64-.734 0-1.297.687-.562.672-.562 1.984zm6.382-4.656v-1.328h1.14v1.328h-1.14zm0 7.984v-6.734h1.14v6.734h-1.14zm3.29 0v-1.296h1.296v1.296h-1.297zm3.374 2.579v-9.313h1.031v.875q.375-.516.829-.766.468-.265 1.14-.265.86 0 1.516.453.656.437.984 1.25.344.797.344 1.766 0 1.03-.375 1.859-.36.828-1.078 1.281-.703.438-1.485.438-.562 0-1.015-.235-.453-.25-.75-.625v3.282h-1.14zm1.031-5.907q0 1.297.532 1.922.53.625 1.265.625.766 0 1.313-.64.547-.657.547-2 0-1.297-.532-1.938-.53-.64-1.265-.64-.735 0-1.297.687-.563.672-.563 1.984zm6.335 5.922l-.14-1.062q.374.093.655.093.391 0 .61-.125.234-.125.375-.359.11-.172.36-.844l.093-.28-2.563-6.75h1.235l1.406 3.89q.266.75.484 1.562.204-.781.47-1.531l1.452-3.922h1.14l-2.562 6.844q-.421 1.11-.64 1.531-.313.563-.703.828-.391.266-.938.266-.328 0-.734-.14z"/>
    <path fill="#cfe2f3" fill-rule="evenodd" d="M340.547 378.845H491.19v102.268H340.547z"/>
    <path stroke="#000" stroke-linecap="butt" stroke-linejoin="round" d="M340.547 378.845H491.19v102.268H340.547z"/>
    <path fill="#000" d="M360.307 425.899v-13.594h4.688q1.578 0 2.422.188 1.156.265 1.984.969 1.078.921 1.61 2.343.53 1.406.53 3.219 0 1.547-.359 2.75-.36 1.188-.922 1.984-.562.782-1.234 1.235-.672.437-1.625.672-.953.234-2.187.234h-4.907zm1.797-1.61h2.906q1.344 0 2.11-.25.765-.25 1.219-.702.64-.641 1-1.72.359-1.077.359-2.624 0-2.125-.703-3.266-.703-1.156-1.703-1.547-.72-.281-2.328-.281h-2.86v10.39zm11.457-10.046v-1.938h1.657v1.938h-1.657zm-2.125 15.484l.313-1.422q.5.125.797.125.515 0 .765-.344.25-.328.25-1.687v-10.36h1.657v10.391q0 1.828-.469 2.547-.594.922-2 .922-.672 0-1.313-.172zm12.708-5.047q-.938.797-1.797 1.125-.86.313-1.844.313-1.61 0-2.484-.781-.875-.797-.875-2.032 0-.734.328-1.328.328-.594.86-.953.53-.36 1.202-.547.5-.14 1.485-.25 2.031-.25 2.984-.578v-.438q0-1.015-.469-1.437-.64-.563-1.906-.563-1.172 0-1.734.407-.563.406-.828 1.469l-1.64-.235q.233-1.047.733-1.687.516-.641 1.47-.985.968-.36 2.25-.36 1.265 0 2.046.298.781.297 1.156.75.375.453.516 1.14.094.422.094 1.532v2.234q0 2.328.093 2.953.11.61.438 1.172h-1.75q-.266-.516-.328-1.219zm-.14-3.719q-.907.36-2.735.625-1.031.141-1.453.329-.422.187-.657.546-.234.36-.234.797 0 .672.5 1.125.516.438 1.484.438.97 0 1.72-.422.75-.438 1.109-1.156.265-.578.265-1.672v-.61zm4.078 4.938v-9.86h1.5v1.407q1.094-1.625 3.14-1.625.891 0 1.641.328.75.313 1.11.844.375.515.53 1.219.095.468.095 1.625v6.062h-1.672v-6q0-1.016-.203-1.516-.188-.515-.688-.812-.5-.297-1.172-.297-1.062 0-1.843.672-.766.672-.766 2.578v5.375h-1.672zm10.079.813l1.61.25q.109.75.577 1.093.61.453 1.688.453 1.172 0 1.797-.468.625-.454.86-1.282.124-.515.109-2.156-1.094 1.297-2.72 1.297-2.03 0-3.155-1.469-1.11-1.469-1.11-3.515 0-1.407.516-2.594.515-1.203 1.484-1.844.969-.656 2.266-.656 1.75 0 2.875 1.406v-1.187h1.547v8.515q0 2.313-.47 3.266-.468.969-1.483 1.515-1.016.563-2.5.563-1.766 0-2.86-.797-1.078-.797-1.031-2.39zm1.375-5.922q0 1.953.766 2.843.78.891 1.937.891 1.14 0 1.922-.89.781-.891.781-2.782 0-1.812-.812-2.719-.797-.921-1.922-.921-1.11 0-1.89.906-.782.89-.782 2.672zm8.672.187q0-2.734 1.532-4.062 1.265-1.094 3.093-1.094 2.032 0 3.313 1.344 1.297 1.328 1.297 3.671 0 1.907-.578 3-.563 1.079-1.657 1.688-1.078.594-2.375.594-2.062 0-3.343-1.328-1.282-1.329-1.282-3.813zm1.72 0q0 1.89.827 2.828.828.938 2.078.938t2.063-.938q.828-.953.828-2.89 0-1.829-.828-2.766-.828-.938-2.063-.938-1.25 0-2.078.938-.828.938-.828 2.828zm14.714 4.922v-13.594h6.032q1.812 0 2.75.36.953.359 1.515 1.296.563.922.563 2.047 0 1.454-.938 2.454-.922.984-2.89 1.25.718.343 1.093.671.782.735 1.485 1.813l2.375 3.703h-2.266l-1.797-2.828q-.797-1.219-1.312-1.875-.5-.656-.906-.906-.407-.266-.813-.36-.312-.078-1.016-.078h-2.078v6.047h-1.797zm1.797-7.594h3.86q1.234 0 1.922-.25.703-.265 1.062-.828.375-.562.375-1.219 0-.968-.703-1.578-.703-.625-2.219-.625h-4.297v4.5zm11.676 7.594v-13.594h9.844v1.594h-8.047v4.172h7.532v1.594h-7.532v4.625h8.36v1.609h-10.157zm11.803-4.375l1.688-.14q.125 1.015.562 1.671.438.656 1.36 1.063.937.406 2.094.406 1.03 0 1.812-.313.797-.312 1.188-.843.39-.531.39-1.156 0-.641-.375-1.11-.375-.484-1.234-.812-.547-.22-2.422-.657-1.875-.453-2.625-.859-.969-.516-1.453-1.266-.469-.75-.469-1.687 0-1.031.578-1.922.594-.906 1.703-1.36 1.125-.468 2.5-.468 1.516 0 2.672.484 1.156.485 1.766 1.438.625.937.672 2.14l-1.72.125q-.14-1.28-.952-1.937-.797-.672-2.36-.672-1.625 0-2.375.61-.75.593-.75 1.437 0 .734.532 1.203.515.469 2.703.969 2.203.5 3.015.875 1.188.547 1.75 1.39.579.829.579 1.922 0 1.094-.625 2.063-.625.953-1.797 1.484-1.157.531-2.61.531-1.843 0-3.093-.53-1.25-.548-1.97-1.626-.702-1.078-.734-2.453zm16.506 4.375v-12h-4.468v-1.594h10.765v1.594h-4.5v12h-1.797zM392.038 447.899v-13.594h9.172v1.594h-7.375v4.219h6.375v1.61h-6.375v6.171h-1.797zm11.1-11.688v-1.906h1.671v1.906h-1.672zm0 11.688v-9.86h1.671v9.86h-1.672zm4.097 0v-13.594h1.672V447.9h-1.672zm7.833-1.5l.234 1.484q-.703.141-1.266.141-.906 0-1.406-.281-.5-.297-.703-.75-.203-.469-.203-1.985v-5.656h-1.234v-1.312h1.234v-2.438l1.656-1v3.438h1.688v1.312h-1.688v5.75q0 .719.078.922.094.203.297.328.203.125.578.125.266 0 .735-.078zm8.277-1.672l1.719.219q-.407 1.5-1.516 2.344-1.094.828-2.813.828-2.156 0-3.421-1.328-1.266-1.329-1.266-3.735 0-2.484 1.266-3.86 1.28-1.374 3.328-1.374 1.984 0 3.234 1.344 1.25 1.343 1.25 3.796 0 .141-.016.438h-7.343q.093 1.625.922 2.484.828.86 2.062.86.906 0 1.547-.469.656-.484 1.047-1.547zm-5.485-2.703h5.5q-.109-1.234-.625-1.86-.796-.968-2.078-.968-1.14 0-1.937.781-.781.766-.86 2.047zm9.095 5.875v-9.86h1.5v1.5q.578-1.046 1.062-1.374.485-.344 1.078-.344.844 0 1.72.547l-.579 1.547q-.61-.36-1.234-.36-.547 0-.985.328-.422.329-.609.907-.281.89-.281 1.953v5.156h-1.672zm5.556-2.938l1.657-.265q.14 1 .765 1.531.64.516 1.781.516 1.157 0 1.704-.469.562-.469.562-1.094 0-.562-.484-.89-.344-.22-1.703-.563-1.844-.469-2.563-.797-.703-.344-1.078-.937-.36-.61-.36-1.328 0-.657.297-1.22.313-.562.829-.937.39-.28 1.062-.484.672-.203 1.438-.203 1.171 0 2.046.344.875.328 1.282.906.422.562.578 1.515l-1.625.22q-.11-.75-.656-1.173-.532-.437-1.5-.437-1.157 0-1.641.39-.484.375-.484.875 0 .329.203.594.203.266.64.438.25.094 1.469.437 1.766.469 2.469.766.703.297 1.094.875.406.578.406 1.437 0 .829-.485 1.579-.484.734-1.406 1.14-.922.39-2.078.39-1.922 0-2.937-.796-1-.797-1.282-2.36z"/>
    <path fill="none" d="M340.547 378.845H491.19v25.984H340.547z"/>
    <path fill="red" d="M403.336 399.817q-.625.531-1.219.766-.578.218-1.25.218-1.125 0-1.719-.546-.593-.547-.593-1.391 0-.484.218-.89.235-.423.594-.673.375-.25.828-.375.328-.078 1.016-.171 1.375-.157 2.031-.391.016-.234.016-.297 0-.703-.328-.984-.438-.391-1.297-.391-.813 0-1.203.281-.375.282-.563 1l-1.11-.14q.141-.72.485-1.157.36-.453 1.016-.687.672-.234 1.53-.234.876 0 1.407.203.547.203.797.515.25.297.36.766.046.297.046 1.062v1.516q0 1.594.078 2.016.079.422.282.812h-1.188q-.172-.36-.234-.828zm-.094-2.562q-.625.265-1.86.437-.702.11-1 .234-.296.125-.452.375-.157.235-.157.532 0 .453.344.765.344.297 1.016.297.656 0 1.172-.281.515-.297.765-.797.172-.375.172-1.14v-.422zm3.116 5.968v-9.312h1.03v.875q.376-.516.829-.766.469-.265 1.14-.265.86 0 1.516.453.657.437.985 1.25.343.797.343 1.765 0 1.032-.375 1.86-.359.828-1.078 1.28-.703.438-1.484.438-.563 0-1.016-.234-.453-.25-.75-.625v3.281h-1.14zm1.03-5.906q0 1.297.532 1.922.531.625 1.266.625.765 0 1.312-.64.547-.657.547-2 0-1.298-.531-1.938-.531-.64-1.266-.64-.734 0-1.297.687-.562.672-.562 1.984zm6.382-4.656v-1.328h1.14v1.328h-1.14zm0 7.984v-6.734h1.14v6.734h-1.14zm3.29 0v-1.297h1.296v1.297h-1.297zm3.374 2.578v-9.312h1.031v.875q.375-.516.829-.766.468-.265 1.14-.265.86 0 1.516.453.656.437.984 1.25.344.797.344 1.765 0 1.032-.375 1.86-.36.828-1.078 1.28-.703.438-1.485.438-.562 0-1.015-.234-.453-.25-.75-.625v3.281h-1.14zm1.031-5.906q0 1.297.532 1.922.53.625 1.265.625.766 0 1.313-.64.547-.657.547-2 0-1.298-.532-1.938-.53-.64-1.265-.64-.735 0-1.297.687-.563.672-.563 1.984zm6.335 5.922l-.14-1.063q.374.094.655.094.391 0 .61-.125.234-.125.375-.36.11-.171.36-.843.03-.094.093-.281l-2.563-6.75h1.235l1.406 3.89q.266.75.484 1.563.204-.781.47-1.531l1.452-3.922h1.14l-2.562 6.844q-.421 1.109-.64 1.53-.313.563-.703.829-.391.266-.938.266-.328 0-.734-.141z"/>
    <path fill="#f90" fill-rule="evenodd" d="M89.407 178.533h7.543v-53.638h15.087v53.638h7.543l-15.087 15.086z"/>
    <path stroke="#000" stroke-linecap="butt" stroke-linejoin="round" d="M89.407 178.533h7.543v-53.638h15.087v53.638h7.543l-15.087 15.086z"/>
    <path fill="#f90" fill-rule="evenodd" d="M89.407 602.643h7.543v-46.93h15.087v46.93h7.543l-15.087 15.087z"/>
    <path stroke="#000" stroke-linecap="butt" stroke-linejoin="round" d="M89.407 602.643h7.543v-46.93h15.087v46.93h7.543l-15.087 15.087z"/>
    <path fill="#cfe2f3" fill-rule="evenodd" d="M22.853 617.732h171.811V720H22.853z"/>
    <path stroke="#000" stroke-linecap="butt" stroke-linejoin="round" d="M22.853 617.732h171.811V720H22.853z"/>
    <path fill="#000" d="M53.197 664.786v-13.594h4.688q1.578 0 2.422.188 1.156.266 1.984.969 1.078.922 1.61 2.343.53 1.407.53 3.22 0 1.546-.359 2.75-.36 1.187-.922 1.984-.562.78-1.234 1.234-.672.437-1.625.672-.953.234-2.187.234h-4.907zm1.797-1.61H57.9q1.344 0 2.11-.25.765-.25 1.219-.702.64-.641 1-1.72.359-1.077.359-2.624 0-2.125-.703-3.266-.703-1.156-1.703-1.547-.72-.28-2.328-.28h-2.86v10.39zm11.457-10.046v-1.938h1.657v1.938H66.45zm-2.125 15.484l.313-1.422q.5.125.797.125.515 0 .765-.343.25-.328.25-1.688v-10.36h1.657v10.391q0 1.829-.469 2.547-.594.922-2 .922-.672 0-1.313-.172zm12.708-5.047q-.938.797-1.797 1.125-.86.313-1.844.313-1.61 0-2.484-.781-.875-.797-.875-2.032 0-.734.328-1.328.328-.593.86-.953.53-.36 1.202-.547.5-.14 1.485-.25 2.031-.25 2.984-.578v-.437q0-1.016-.469-1.438-.64-.562-1.906-.562-1.172 0-1.734.406-.563.406-.828 1.469l-1.641-.235q.234-1.047.734-1.687.516-.64 1.47-.985.968-.359 2.25-.359 1.265 0 2.046.297.781.297 1.156.75.375.453.516 1.14.094.422.094 1.532v2.234q0 2.328.093 2.953.11.61.438 1.172h-1.75q-.266-.515-.328-1.219zm-.14-3.718q-.907.359-2.735.625-1.031.14-1.453.328-.422.187-.657.547-.234.359-.234.797 0 .671.5 1.125.516.437 1.484.437.97 0 1.72-.422.75-.437 1.109-1.156.265-.578.265-1.672v-.61zm4.078 4.937v-9.86h1.5v1.407q1.094-1.625 3.14-1.625.891 0 1.641.328.75.313 1.11.844.375.516.53 1.219.095.468.095 1.625v6.062h-1.672v-6q0-1.015-.203-1.515-.188-.516-.688-.813-.5-.297-1.172-.297-1.062 0-1.843.672-.766.672-.766 2.578v5.375h-1.672zm10.079.813l1.61.25q.109.75.577 1.093.61.454 1.688.454 1.172 0 1.797-.47.625-.452.86-1.28.124-.516.108-2.157-1.093 1.297-2.718 1.297-2.032 0-3.157-1.469-1.109-1.468-1.109-3.515 0-1.406.516-2.594.515-1.203 1.484-1.844.969-.656 2.266-.656 1.75 0 2.875 1.406v-1.187h1.547v8.515q0 2.313-.47 3.266-.468.969-1.484 1.516-1.015.562-2.5.562-1.765 0-2.859-.797-1.078-.797-1.031-2.39zm1.375-5.922q0 1.953.765 2.844.782.89 1.938.89 1.14 0 1.922-.89.781-.891.781-2.782 0-1.812-.812-2.718-.797-.922-1.922-.922-1.11 0-1.89.906-.782.89-.782 2.672zm8.672.187q0-2.734 1.532-4.062 1.265-1.094 3.093-1.094 2.032 0 3.313 1.344 1.297 1.328 1.297 3.672 0 1.906-.578 3-.563 1.078-1.657 1.687-1.078.594-2.375.594-2.062 0-3.343-1.328-1.282-1.328-1.282-3.813zm1.72 0q0 1.89.827 2.828.828.938 2.078.938t2.063-.938q.828-.953.828-2.89 0-1.828-.828-2.766-.828-.937-2.063-.937-1.25 0-2.078.937-.828.938-.828 2.828zm14.714 4.922v-13.594h6.032q1.812 0 2.75.36.953.36 1.515 1.297.563.922.563 2.047 0 1.453-.938 2.453-.922.984-2.89 1.25.718.343 1.093.672.782.734 1.485 1.812l2.375 3.703h-2.266l-1.797-2.828q-.797-1.219-1.312-1.875-.5-.656-.906-.906-.407-.266-.813-.36-.312-.078-1.016-.078h-2.078v6.047h-1.797zm1.797-7.594h3.86q1.234 0 1.922-.25.703-.265 1.062-.828.375-.562.375-1.218 0-.97-.703-1.579-.703-.625-2.219-.625h-4.297v4.5zm11.676 7.594v-13.594h9.844v1.594h-8.047v4.172h7.532v1.594h-7.532v4.625h8.36v1.61h-10.157zm11.803-4.375l1.688-.14q.125 1.015.562 1.671.438.657 1.36 1.063.937.406 2.093.406 1.032 0 1.813-.312.797-.313 1.187-.844.391-.531.391-1.156 0-.641-.375-1.11-.375-.484-1.234-.812-.547-.219-2.422-.656-1.875-.454-2.625-.86-.969-.515-1.453-1.265-.469-.75-.469-1.688 0-1.031.578-1.922.594-.906 1.703-1.36 1.125-.468 2.5-.468 1.516 0 2.672.484 1.156.485 1.766 1.438.625.937.672 2.14l-1.72.126q-.14-1.282-.952-1.938-.797-.672-2.36-.672-1.625 0-2.375.61-.75.593-.75 1.437 0 .734.532 1.203.515.469 2.703.969 2.203.5 3.015.875 1.188.547 1.75 1.39.578.829.578 1.922 0 1.094-.625 2.063-.625.953-1.796 1.484-1.157.532-2.61.532-1.844 0-3.094-.532-1.25-.547-1.968-1.625-.703-1.078-.735-2.453zm16.506 4.375v-12h-4.468v-1.594h10.765v1.594h-4.5v12h-1.797zM82.26 686.786v-13.594h6.032q1.812 0 2.75.36.953.36 1.515 1.297.563.922.563 2.047 0 1.453-.938 2.453-.922.984-2.89 1.25.718.343 1.093.672.782.734 1.485 1.812l2.375 3.703h-2.266l-1.797-2.828q-.797-1.219-1.312-1.875-.5-.656-.906-.906-.407-.266-.813-.36-.312-.078-1.016-.078h-2.078v6.047H82.26zm1.797-7.594h3.86q1.234 0 1.922-.25.703-.265 1.062-.828.375-.562.375-1.218 0-.97-.703-1.579-.703-.625-2.219-.625h-4.297v4.5zm10.801 2.672q0-2.734 1.532-4.062 1.265-1.094 3.093-1.094 2.032 0 3.313 1.344 1.297 1.328 1.297 3.672 0 1.906-.578 3-.563 1.078-1.657 1.687-1.078.594-2.375.594-2.062 0-3.343-1.328-1.282-1.328-1.282-3.813zm1.72 0q0 1.89.827 2.828.828.938 2.078.938t2.063-.938q.828-.953.828-2.89 0-1.828-.828-2.766-.828-.937-2.063-.937-1.25 0-2.078.937-.828.938-.828 2.828zm15.734 4.922v-1.453q-1.14 1.672-3.125 1.672-.86 0-1.625-.328-.75-.344-1.125-.844-.36-.5-.515-1.234-.094-.5-.094-1.563v-6.11h1.672v5.47q0 1.312.094 1.765.156.656.671 1.031.516.375 1.266.375t1.406-.375q.657-.39.922-1.046.281-.672.281-1.938v-5.281h1.672v9.86h-1.5zm7.58-1.5l.233 1.485q-.703.14-1.265.14-.906 0-1.406-.281-.5-.297-.704-.75-.203-.469-.203-1.984v-5.657h-1.234v-1.312h1.234v-2.438l1.657-1v3.438h1.687v1.312h-1.687v5.75q0 .719.078.922.093.203.297.328.203.125.578.125.265 0 .734-.078zm8.276-1.672l1.719.219q-.406 1.5-1.516 2.344-1.093.828-2.812.828-2.156 0-3.422-1.328t-1.266-3.735q0-2.484 1.266-3.859 1.281-1.375 3.328-1.375 1.984 0 3.234 1.344t1.25 3.797q0 .14-.015.437h-7.344q.094 1.625.922 2.485.828.859 2.062.859.907 0 1.547-.469.657-.484 1.047-1.547zm-5.484-2.703h5.5q-.11-1.234-.625-1.86-.797-.968-2.078-.968-1.141 0-1.938.781-.781.766-.86 2.047zm9.094 5.875v-9.86h1.5v1.5q.578-1.046 1.063-1.374.484-.344 1.078-.344.844 0 1.719.547l-.578 1.547q-.61-.36-1.235-.36-.547 0-.984.329-.422.328-.61.906-.28.89-.28 1.953v5.156h-1.673z"/>
    <path fill="none" d="M22.853 617.732h171.811v25.985H22.853z"/>
    <path fill="red" d="M81.782 638.704q-.625.531-1.22.766-.577.219-1.25.219-1.124 0-1.718-.547-.594-.547-.594-1.391 0-.484.219-.89.234-.422.594-.672.375-.25.828-.375.328-.079 1.016-.172 1.375-.157 2.03-.391.016-.234.016-.297 0-.703-.328-.984-.437-.39-1.297-.39-.812 0-1.203.28-.375.282-.562 1l-1.11-.14q.141-.719.485-1.156.36-.454 1.015-.688.672-.234 1.532-.234.875 0 1.406.203.547.203.797.515.25.297.36.766.046.297.046 1.063v1.515q0 1.594.078 2.016.078.422.281.812h-1.187q-.172-.36-.234-.828zm-.094-2.562q-.625.265-1.86.437-.703.11-1 .235-.296.125-.453.375-.156.234-.156.53 0 .454.344.766.344.297 1.015.297.657 0 1.172-.281.516-.297.766-.797.172-.375.172-1.14v-.422zm3.115 5.968v-9.312h1.032v.875q.375-.516.828-.766.468-.265 1.14-.265.86 0 1.516.453.656.437.984 1.25.344.797.344 1.765 0 1.032-.375 1.86-.36.828-1.078 1.281-.703.438-1.484.438-.563 0-1.016-.235-.453-.25-.75-.625v3.281h-1.14zm1.032-5.906q0 1.297.53 1.922.532.625 1.266.625.766 0 1.313-.64.547-.657.547-2 0-1.297-.531-1.938-.532-.64-1.266-.64t-1.297.687q-.562.672-.562 1.984zm6.38-4.656v-1.328h1.141v1.328h-1.14zm0 7.984v-6.734h1.141v6.734h-1.14zm1.9 2.578v-.812h7.578v.812h-7.579zm12.896-2.578v-.984q-.797 1.14-2.14 1.14-.594 0-1.125-.234-.516-.234-.766-.578t-.344-.844q-.078-.328-.078-1.062v-4.172h1.14v3.734q0 .89.079 1.203.11.454.453.72.344.25.86.25.515 0 .968-.266.453-.266.64-.72.188-.452.188-1.312v-3.61h1.14v6.735h-1.015zm2.975 0v-6.734h1.032v1.016q.39-.72.718-.938.344-.234.735-.234.578 0 1.172.359l-.391 1.063q-.422-.25-.828-.25-.375 0-.688.234-.297.219-.422.625-.187.61-.187 1.328v3.531h-1.14zm4.423 0v-9.312h1.14v9.312h-1.14zm2.54-2.015l1.124-.172q.094.672.531 1.047.438.359 1.22.359.78 0 1.155-.312.391-.329.391-.766 0-.39-.344-.61-.234-.156-1.172-.39-1.25-.313-1.734-.547-.484-.234-.734-.64-.25-.407-.25-.907 0-.453.203-.828.203-.39.562-.64.266-.204.72-.329.468-.14 1-.14.78 0 1.374.234.61.219.89.61.298.39.407 1.046l-1.125.157q-.078-.532-.438-.813-.359-.297-1.03-.297-.782 0-1.126.266-.344.25-.344.61 0 .218.141.39.14.187.438.312.171.063 1.015.282 1.219.328 1.688.53.484.204.75.61.281.39.281.969 0 .578-.344 1.078-.328.5-.953.781-.625.282-1.422.282-1.312 0-2-.547-.687-.547-.875-1.625zm7.445 2.015v-1.297h1.296v1.297h-1.296zm3.374 2.578v-9.312h1.032v.875q.375-.516.828-.766.469-.265 1.14-.265.86 0 1.516.453.656.437.984 1.25.344.797.344 1.765 0 1.032-.375 1.86-.36.828-1.078 1.281-.703.438-1.484.438-.563 0-1.016-.235-.453-.25-.75-.625v3.281h-1.14zm1.032-5.906q0 1.297.53 1.922.532.625 1.267.625.765 0 1.312-.64.547-.657.547-2 0-1.297-.531-1.938-.532-.64-1.266-.64t-1.297.687q-.562.672-.562 1.984zm6.334 5.922l-.14-1.062q.374.093.656.093.39 0 .609-.125.234-.125.375-.36.11-.171.36-.843.03-.094.093-.281l-2.562-6.75h1.234l1.406 3.89q.266.75.485 1.563.203-.781.468-1.531l1.453-3.922h1.141l-2.562 6.844q-.422 1.109-.641 1.53-.313.563-.703.829-.39.266-.938.266-.328 0-.734-.141z"/>
    <path fill="none" d="M22.853 692.33h171.811v25.135H22.853z"/>
    <path fill="#f0f" d="M61.626 714.13v-9.312h4.125q1.25 0 1.89.266.656.25 1.047.89.39.625.39 1.391 0 .984-.656 1.672-.64.672-1.968.86.484.234.734.468.547.484 1.031 1.234l1.61 2.532h-1.547l-1.235-1.938q-.53-.844-.89-1.281-.344-.438-.625-.61-.266-.187-.547-.265-.219-.031-.688-.031H62.86v4.125h-1.234zm1.234-5.202h2.656q.844 0 1.313-.172.484-.172.718-.547.25-.39.25-.844 0-.656-.484-1.078-.469-.438-1.5-.438H62.86v3.079zm12.844 3.03l1.187.141q-.28 1.047-1.046 1.625-.75.563-1.922.563-1.485 0-2.36-.906-.86-.922-.86-2.563 0-1.703.876-2.64.89-.938 2.281-.938 1.36 0 2.203.922.86.922.86 2.578v.313H71.89q.063 1.109.625 1.703.563.593 1.407.593.64 0 1.078-.328.453-.343.703-1.062zm-3.75-1.843h3.766q-.079-.86-.438-1.281-.547-.656-1.406-.656-.797 0-1.328.53-.532.516-.594 1.407zm6.1 2l1.125-.172q.094.672.531 1.047.438.36 1.219.36.781 0 1.156-.313.39-.328.39-.766 0-.39-.343-.609-.234-.156-1.172-.39-1.25-.313-1.734-.548-.485-.234-.735-.64t-.25-.906q0-.454.203-.829.204-.39.563-.64.266-.203.719-.328.468-.14 1-.14.781 0 1.375.233.61.22.89.61.297.39.407 1.047l-1.125.156q-.079-.531-.438-.813-.36-.296-1.031-.296-.781 0-1.125.265-.344.25-.344.61 0 .218.14.39.141.188.438.313.172.062 1.016.281 1.219.328 1.687.531.485.203.75.61.282.39.282.968t-.344 1.078q-.328.5-.953.782-.625.281-1.422.281-1.313 0-2-.547-.688-.547-.875-1.625zm6.695-1.36q0-1.874 1.031-2.765.875-.75 2.125-.75 1.391 0 2.266.906.89.907.89 2.516 0 1.297-.39 2.047-.39.75-1.14 1.172-.75.406-1.626.406-1.421 0-2.296-.906-.86-.907-.86-2.625zm1.172 0q0 1.298.563 1.954.562.64 1.421.64.844 0 1.407-.64.578-.656.578-1.985 0-1.25-.578-1.89-.563-.656-1.407-.656-.859 0-1.421.64-.563.64-.563 1.938zm11.084 3.376v-.985q-.796 1.141-2.14 1.141-.594 0-1.125-.234-.516-.235-.766-.579-.25-.343-.344-.843-.078-.328-.078-1.063v-4.172h1.14v3.735q0 .89.079 1.203.11.453.453.719.344.25.86.25.515 0 .968-.266.453-.266.64-.719.188-.453.188-1.312v-3.61h1.141v6.735h-1.016zm2.975 0v-6.735h1.032v1.016q.39-.719.718-.938.344-.234.735-.234.578 0 1.172.36l-.391 1.062q-.422-.25-.828-.25-.375 0-.688.234-.296.22-.421.625-.188.61-.188 1.328v3.532h-1.14zm8.845-2.469l1.125.14q-.172 1.172-.937 1.829-.766.656-1.86.656-1.39 0-2.234-.906-.828-.907-.828-2.594 0-1.094.359-1.906.36-.828 1.094-1.235.734-.406 1.61-.406 1.093 0 1.796.563.703.546.89 1.562l-1.109.172q-.156-.672-.562-1.016-.39-.343-.969-.343-.86 0-1.406.625-.531.609-.531 1.953 0 1.36.515 1.984.516.61 1.36.61.671 0 1.125-.407.453-.422.562-1.281zm6.883.297l1.187.14q-.28 1.047-1.047 1.625-.75.563-1.921.563-1.485 0-2.36-.906-.86-.922-.86-2.563 0-1.703.876-2.64.89-.938 2.281-.938 1.36 0 2.203.922.86.922.86 2.578v.313h-5.032q.063 1.109.625 1.703.563.593 1.407.593.64 0 1.078-.328.453-.343.703-1.062zm-3.75-1.844h3.765q-.078-.86-.437-1.281-.547-.656-1.406-.656-.797 0-1.328.53-.532.516-.594 1.407zm10.38 4.016v-9.313h1.267l4.89 7.313v-7.313h1.188v9.313h-1.266l-4.89-7.313v7.313h-1.188zm13.892-.828q-.625.53-1.22.765-.577.219-1.25.219-1.124 0-1.718-.547-.594-.547-.594-1.39 0-.485.22-.891.234-.422.593-.672.375-.25.828-.375.328-.078 1.016-.172 1.375-.156 2.03-.39.017-.235.017-.297 0-.704-.329-.985-.437-.39-1.296-.39-.813 0-1.204.28-.375.282-.562 1l-1.11-.14q.141-.719.485-1.156.36-.453 1.016-.688.671-.234 1.53-.234.876 0 1.407.203.547.203.797.516.25.297.36.765.046.297.046 1.063v1.516q0 1.593.078 2.015.078.422.282.813h-1.188q-.172-.36-.234-.828zm-.094-2.563q-.625.266-1.86.438-.703.109-1 .234-.296.125-.453.375-.156.234-.156.531 0 .453.344.766.344.297 1.016.297.656 0 1.171-.282.516-.296.766-.796.172-.375.172-1.141v-.422zm3.116 3.39v-6.734h1.015v.938q.328-.5.844-.797.531-.297 1.203-.297.75 0 1.219.313.484.312.687.859.797-1.172 2.078-1.172 1 0 1.532.563.547.546.547 1.703v4.625h-1.125v-4.25q0-.688-.11-.985-.11-.297-.406-.484-.297-.188-.688-.188-.718 0-1.187.485-.469.469-.469 1.5v3.922h-1.14v-4.375q0-.766-.282-1.14-.281-.392-.906-.392-.484 0-.89.266-.407.25-.594.734-.188.485-.188 1.407v3.5h-1.14zm15.711-2.171l1.188.14q-.281 1.047-1.047 1.625-.75.563-1.922.563-1.484 0-2.36-.906-.859-.922-.859-2.563 0-1.703.875-2.64.891-.938 2.282-.938 1.359 0 2.203.922.86.922.86 2.578v.313h-5.032q.062 1.109.625 1.703.562.593 1.406.593.64 0 1.078-.328.453-.343.703-1.062zm-3.75-1.844h3.766q-.078-.86-.438-1.281-.546-.656-1.406-.656-.797 0-1.328.53-.531.516-.594 1.407z"/>
    <path fill="#cfe2f3" fill-rule="evenodd" d="M726.414 617.732h171.81V720h-171.81z"/>
    <path stroke="#000" stroke-linecap="butt" stroke-linejoin="round" d="M726.414 617.732h171.81V720h-171.81z"/>
    <path fill="#000" d="M754.739 675.786l5.234-13.594h1.938l5.562 13.594h-2.047l-1.593-4.125h-5.688l-1.484 4.125h-1.922zm3.922-5.578h4.61l-1.407-3.781q-.656-1.703-.969-2.813-.265 1.313-.734 2.594l-1.5 4zm10.022 5.578v-13.594h5.125q1.359 0 2.078.125 1 .172 1.672.641.671.469 1.078 1.313.422.843.422 1.843 0 1.735-1.11 2.938-1.094 1.203-3.984 1.203h-3.485v5.531h-1.796zm1.796-7.14h3.516q1.75 0 2.469-.641.734-.656.734-1.828 0-.86-.437-1.469-.422-.61-1.125-.797-.453-.125-1.672-.125h-3.485v4.86zm10.944 7.14v-13.594h1.812v13.594h-1.812zm10.1 0v-13.594h6.032q1.813 0 2.75.36.953.36 1.516 1.297.562.922.562 2.047 0 1.453-.937 2.453-.922.984-2.89 1.25.718.343 1.093.672.781.734 1.484 1.812l2.375 3.703h-2.265l-1.797-2.828q-.797-1.219-1.313-1.875-.5-.656-.906-.906-.406-.266-.812-.36-.313-.078-1.016-.078h-2.078v6.047h-1.797zm1.798-7.594h3.86q1.234 0 1.921-.25.703-.265 1.063-.828.375-.562.375-1.218 0-.97-.704-1.579-.703-.625-2.218-.625h-4.297v4.5zm18.176 4.422l1.719.219q-.407 1.5-1.516 2.344-1.094.828-2.813.828-2.156 0-3.421-1.328-1.266-1.328-1.266-3.735 0-2.484 1.266-3.859 1.28-1.375 3.328-1.375 1.984 0 3.234 1.344t1.25 3.797q0 .14-.016.437h-7.343q.093 1.625.922 2.485.828.859 2.062.859.906 0 1.547-.469.656-.484 1.047-1.547zm-5.485-2.703h5.5q-.109-1.234-.625-1.86-.796-.968-2.078-.968-1.14 0-1.937.781-.781.766-.86 2.047zm8.439 2.938l1.656-.266q.14 1 .766 1.531.64.516 1.78.516 1.157 0 1.704-.469.562-.469.562-1.094 0-.562-.484-.89-.344-.219-1.703-.563-1.844-.468-2.563-.797-.703-.343-1.078-.937-.36-.61-.36-1.328 0-.656.298-1.219.312-.562.828-.937.39-.282 1.062-.485t1.438-.203q1.172 0 2.047.344.875.328 1.281.906.422.563.578 1.516l-1.625.218q-.11-.75-.656-1.171-.531-.438-1.5-.438-1.156 0-1.64.39-.485.376-.485.876 0 .328.203.593.203.266.64.438.25.094 1.47.437 1.765.47 2.468.766.703.297 1.094.875.406.578.406 1.438 0 .828-.484 1.578-.485.734-1.406 1.14-.922.39-2.079.39-1.921 0-2.937-.796-1-.797-1.281-2.36zm9.375-1.985q0-2.734 1.53-4.062 1.267-1.094 3.095-1.094 2.03 0 3.312 1.344 1.297 1.328 1.297 3.672 0 1.906-.578 3-.563 1.078-1.656 1.687-1.078.594-2.375.594-2.063 0-3.344-1.328-1.281-1.328-1.281-3.813zm1.718 0q0 1.89.829 2.828.828.938 2.078.938t2.062-.938q.828-.953.828-2.89 0-1.828-.828-2.766-.828-.937-2.062-.937-1.25 0-2.078.937-.829.938-.829 2.828zm15.736 4.922v-1.453q-1.141 1.672-3.125 1.672-.86 0-1.625-.328-.75-.344-1.125-.844-.36-.5-.516-1.234-.094-.5-.094-1.563v-6.11h1.672v5.47q0 1.312.094 1.765.156.656.672 1.031.515.375 1.265.375.75 0 1.407-.375.656-.39.921-1.046.282-.672.282-1.938v-5.281h1.672v9.86h-1.5zm3.907 0v-9.86h1.5v1.5q.578-1.046 1.062-1.374.484-.344 1.078-.344.844 0 1.719.547l-.578 1.547q-.61-.36-1.235-.36-.546 0-.984.329-.422.328-.61.906-.28.89-.28 1.953v5.156h-1.672zm12.665-3.61l1.64.22q-.265 1.687-1.374 2.656-1.11.953-2.734.953-2.016 0-3.25-1.313-1.22-1.328-1.22-3.796 0-1.594.516-2.782.532-1.203 1.61-1.797 1.094-.609 2.36-.609 1.609 0 2.624.813 1.016.812 1.313 2.312l-1.625.25q-.235-1-.828-1.5-.594-.5-1.422-.5-1.266 0-2.063.906-.781.907-.781 2.86 0 1.984.766 2.89.765.89 1.984.89.984 0 1.64-.593.657-.61.844-1.86zm9.64.438l1.72.219q-.407 1.5-1.516 2.344-1.094.828-2.812.828-2.157 0-3.422-1.328-1.266-1.328-1.266-3.735 0-2.484 1.266-3.859 1.28-1.375 3.328-1.375 1.984 0 3.234 1.344t1.25 3.797q0 .14-.015.437h-7.344q.094 1.625.922 2.485.828.859 2.062.859.906 0 1.547-.469.656-.484 1.047-1.547zm-5.483-2.703h5.5q-.11-1.234-.625-1.86-.797-.968-2.079-.968-1.14 0-1.937.781-.781.766-.86 2.047z"/>
    <path fill="none" d="M726.414 617.732h171.81v25.985h-171.81z"/>
    <path fill="red" d="M753.4 635.47v-1.078l6.156-2.594v1.125l-4.89 2.016 4.89 2.015v1.14l-6.156-2.624zm7.924 4.062v-6.734h1.031v.953q.735-1.11 2.14-1.11.61 0 1.11.22.516.218.766.578.265.343.36.843.062.313.062 1.11v4.14h-1.14v-4.093q0-.704-.142-1.047-.125-.344-.468-.547-.328-.219-.782-.219-.734 0-1.265.469-.531.453-.531 1.75v3.687h-1.141zm11.803-.828q-.625.531-1.219.766-.578.219-1.25.219-1.125 0-1.718-.547-.594-.547-.594-1.391 0-.484.219-.89.234-.422.593-.672.375-.25.828-.375.329-.079 1.016-.172 1.375-.157 2.031-.391.016-.234.016-.297 0-.703-.328-.984-.438-.39-1.297-.39-.813 0-1.203.28-.375.282-.563 1l-1.11-.14q.142-.719.485-1.156.36-.454 1.016-.688.672-.234 1.531-.234.875 0 1.406.203.547.203.797.515.25.297.36.766.047.297.047 1.063v1.515q0 1.594.078 2.016.078.422.28.812h-1.187q-.171-.36-.234-.828zm-.094-2.562q-.625.265-1.86.437-.702.11-1 .235-.296.125-.452.375-.156.234-.156.53 0 .454.343.766.344.297 1.016.297.656 0 1.172-.281.515-.297.765-.797.172-.375.172-1.14v-.422zm3.116 3.39v-6.734h1.016v.937q.328-.5.843-.796.532-.297 1.203-.297.75 0 1.22.312.484.313.687.86.797-1.172 2.078-1.172 1 0 1.531.562.547.547.547 1.703v4.625h-1.125v-4.25q0-.687-.11-.984-.109-.297-.406-.484-.297-.188-.687-.188-.719 0-1.188.484-.468.47-.468 1.5v3.922h-1.141v-4.375q0-.765-.281-1.14-.282-.391-.907-.391-.484 0-.89.266-.406.25-.594.734-.187.484-.187 1.406v3.5h-1.141zm15.712-2.172l1.187.141q-.281 1.047-1.047 1.625-.75.563-1.921.563-1.485 0-2.36-.907-.86-.922-.86-2.562 0-1.703.876-2.64.89-.938 2.281-.938 1.36 0 2.203.922.86.921.86 2.578v.312h-5.032q.063 1.11.625 1.703.563.594 1.407.594.64 0 1.078-.328.453-.344.703-1.063zm-3.75-1.843h3.765q-.078-.86-.437-1.282-.547-.656-1.406-.656-.797 0-1.328.531-.532.516-.594 1.407zm12.569-.047l-6.157 2.625v-1.14l4.875-2.016-4.875-2.016v-1.125l6.157 2.594v1.078zm1.924 4.062v-9.312h4.125q1.25 0 1.89.265.656.25 1.047.891.39.625.39 1.39 0 .985-.656 1.673-.64.671-1.968.859.484.234.734.469.547.484 1.031 1.234l1.61 2.531h-1.547l-1.235-1.937q-.53-.844-.89-1.281-.344-.438-.625-.61-.266-.187-.547-.265-.219-.032-.688-.032h-1.437v4.125h-1.234zm1.234-5.203h2.656q.844 0 1.313-.172.484-.172.718-.547.25-.39.25-.843 0-.657-.484-1.078-.469-.438-1.5-.438h-2.953v3.078zm12.844 3.031l1.187.141q-.28 1.047-1.047 1.625-.75.563-1.921.563-1.485 0-2.36-.907-.86-.922-.86-2.562 0-1.703.876-2.64.89-.938 2.281-.938 1.36 0 2.203.922.86.921.86 2.578v.312h-5.032q.063 1.11.625 1.703.563.594 1.407.594.64 0 1.078-.328.453-.344.703-1.063zm-3.75-1.843h3.765q-.078-.86-.437-1.282-.547-.656-1.406-.656-.797 0-1.328.531-.532.516-.594 1.407zm6.1 2l1.125-.172q.094.672.531 1.047.438.359 1.219.359.781 0 1.156-.312.39-.329.39-.766 0-.39-.343-.61-.234-.156-1.172-.39-1.25-.313-1.734-.547-.485-.234-.735-.64-.25-.407-.25-.907 0-.453.203-.828.204-.39.563-.64.266-.204.719-.329.468-.14 1-.14.78 0 1.375.234.609.219.89.61.297.39.407 1.046l-1.125.157q-.079-.532-.438-.813-.36-.297-1.031-.297-.781 0-1.125.266-.344.25-.344.61 0 .218.14.39.141.187.438.312.172.063 1.016.282 1.219.328 1.687.53.485.204.75.61.282.39.282.969 0 .578-.344 1.078-.328.5-.953.781-.625.282-1.422.282-1.313 0-2-.547-.688-.547-.875-1.625zm6.695-1.36q0-1.875 1.031-2.765.875-.75 2.125-.75 1.391 0 2.266.906.89.906.89 2.516 0 1.296-.39 2.046-.39.75-1.14 1.172-.75.407-1.626.407-1.422 0-2.297-.907-.859-.906-.859-2.625zm1.172 0q0 1.297.562 1.953.563.641 1.422.641.844 0 1.407-.64.578-.657.578-1.985 0-1.25-.578-1.89-.563-.657-1.407-.657-.859 0-1.422.64-.562.641-.562 1.938zm11.084 3.375v-.984q-.797 1.14-2.14 1.14-.594 0-1.125-.234-.516-.234-.766-.578t-.344-.844q-.078-.328-.078-1.062v-4.172h1.14v3.734q0 .89.079 1.203.11.454.453.72.344.25.86.25.515 0 .968-.266.453-.266.64-.72.188-.452.188-1.312v-3.61H839v6.735h-1.016zm2.975 0v-6.734h1.032v1.016q.39-.72.718-.938.344-.234.735-.234.578 0 1.172.359l-.391 1.063q-.422-.25-.828-.25-.375 0-.688.234-.297.219-.422.625-.187.61-.187 1.328v3.531h-1.14zm8.845-2.468l1.125.14q-.172 1.172-.938 1.828-.765.657-1.859.657-1.39 0-2.234-.907-.828-.906-.828-2.593 0-1.094.359-1.907.36-.828 1.094-1.234.734-.406 1.609-.406 1.094 0 1.797.562.703.547.89 1.563l-1.109.172q-.156-.672-.562-1.016-.391-.344-.97-.344-.858 0-1.405.625-.532.61-.532 1.953 0 1.36.516 1.985.516.609 1.36.609.671 0 1.124-.406.454-.422.563-1.281zm6.883.296l1.187.141q-.281 1.047-1.047 1.625-.75.563-1.922.563-1.484 0-2.359-.907-.86-.922-.86-2.562 0-1.703.876-2.64.89-.938 2.281-.938 1.36 0 2.203.922.86.921.86 2.578v.312h-5.032q.063 1.11.625 1.703.563.594 1.406.594.641 0 1.079-.328.453-.344.703-1.063zm-3.75-1.843h3.765q-.078-.86-.437-1.282-.547-.656-1.406-.656-.797 0-1.329.531-.53.516-.593 1.407zm6.881 4.015v-1.297h1.297v1.297h-1.297zm3.36-7.984v-1.328h1.155v1.328h-1.156zm-1.438 10.594l.218-.97q.344.095.532.095.36 0 .515-.235.172-.234.172-1.156v-7.078h1.156v7.11q0 1.234-.328 1.718-.422.64-1.375.64-.468 0-.89-.124zm3.96-4.625l1.126-.172q.094.672.531 1.047.438.359 1.219.359.781 0 1.156-.312.39-.329.39-.766 0-.39-.343-.61-.234-.156-1.172-.39-1.25-.313-1.734-.547-.485-.234-.735-.64-.25-.407-.25-.907 0-.453.203-.828.204-.39.563-.64.266-.204.719-.329.468-.14 1-.14.78 0 1.375.234.609.219.89.61.297.39.407 1.046l-1.125.157q-.079-.532-.438-.813-.36-.297-1.031-.297-.781 0-1.125.266-.344.25-.344.61 0 .218.14.39.141.187.438.312.172.063 1.016.282 1.219.328 1.687.53.485.204.75.61.282.39.282.969 0 .578-.344 1.078-.328.5-.953.781-.625.282-1.422.282-1.313 0-2-.547-.688-.547-.875-1.625z"/>
    <path fill="none" d="M726.414 692.33h171.81v25.135h-171.81z"/>
    <path fill="#f0f" d="M765.186 714.13v-9.312h4.125q1.25 0 1.891.266.656.25 1.047.89.39.625.39 1.391 0 .984-.656 1.672-.64.672-1.968.86.484.234.734.468.547.484 1.031 1.234l1.61 2.532h-1.547l-1.235-1.938q-.53-.844-.89-1.281-.344-.438-.625-.61-.266-.187-.547-.265-.219-.031-.688-.031h-1.437v4.125h-1.235zm1.235-5.202h2.656q.844 0 1.313-.172.484-.172.718-.547.25-.39.25-.844 0-.656-.484-1.078-.469-.438-1.5-.438h-2.953v3.079zm12.844 3.03l1.187.141q-.281 1.047-1.047 1.625-.75.563-1.921.563-1.485 0-2.36-.906-.86-.922-.86-2.563 0-1.703.876-2.64.89-.938 2.281-.938 1.36 0 2.203.922.86.922.86 2.578v.313h-5.032q.063 1.109.625 1.703.563.593 1.407.593.64 0 1.078-.328.453-.343.703-1.062zm-3.75-1.843h3.765q-.078-.86-.437-1.281-.547-.656-1.406-.656-.797 0-1.328.53-.532.516-.594 1.407zm6.1 2l1.125-.172q.093.672.531 1.047.437.36 1.219.36.781 0 1.156-.313.39-.328.39-.766 0-.39-.343-.609-.235-.156-1.172-.39-1.25-.313-1.734-.548-.485-.234-.735-.64t-.25-.906q0-.454.203-.829.203-.39.563-.64.265-.203.719-.328.468-.14 1-.14.78 0 1.375.233.609.22.89.61.297.39.406 1.047l-1.125.156q-.078-.531-.437-.813-.36-.296-1.031-.296-.782 0-1.125.265-.344.25-.344.61 0 .218.14.39.141.188.438.313.172.062 1.016.281 1.218.328 1.687.531.485.203.75.61.281.39.281.968t-.343 1.078q-.328.5-.953.782-.625.281-1.422.281-1.313 0-2-.547-.688-.547-.875-1.625zm6.695-1.36q0-1.874 1.031-2.765.875-.75 2.125-.75 1.39 0 2.266.906.89.907.89 2.516 0 1.297-.39 2.047-.39.75-1.14 1.172-.75.406-1.626.406-1.422 0-2.297-.906-.859-.907-.859-2.625zm1.172 0q0 1.298.562 1.954.563.64 1.422.64.844 0 1.407-.64.578-.656.578-1.985 0-1.25-.578-1.89-.563-.656-1.407-.656-.86 0-1.422.64-.562.64-.562 1.938zm11.084 3.376v-.985q-.797 1.141-2.14 1.141-.594 0-1.125-.234-.516-.235-.766-.579-.25-.343-.344-.843-.078-.328-.078-1.063v-4.172h1.14v3.735q0 .89.079 1.203.11.453.453.719.344.25.86.25.515 0 .968-.266.453-.266.64-.719.188-.453.188-1.312v-3.61h1.14v6.735h-1.015zm2.975 0v-6.735h1.032v1.016q.39-.719.718-.938.344-.234.735-.234.578 0 1.172.36l-.391 1.062q-.422-.25-.828-.25-.375 0-.688.234-.297.22-.422.625-.187.61-.187 1.328v3.532h-1.14zm8.845-2.469l1.125.14q-.172 1.172-.938 1.829-.765.656-1.859.656-1.39 0-2.234-.906-.829-.907-.829-2.594 0-1.094.36-1.906.36-.828 1.094-1.235.734-.406 1.609-.406 1.094 0 1.797.563.703.546.89 1.562l-1.109.172q-.156-.672-.562-1.016-.391-.343-.97-.343-.859 0-1.405.625-.532.609-.532 1.953 0 1.36.516 1.984.516.61 1.36.61.671 0 1.124-.407.453-.422.563-1.281zm6.883.297l1.187.14q-.281 1.047-1.047 1.625-.75.563-1.922.563-1.484 0-2.359-.906-.86-.922-.86-2.563 0-1.703.876-2.64.89-.938 2.28-.938 1.36 0 2.204.922.86.922.86 2.578v.313h-5.032q.063 1.109.625 1.703.563.593 1.406.593.641 0 1.079-.328.453-.343.703-1.062zm-3.75-1.844h3.765q-.078-.86-.437-1.281-.547-.656-1.406-.656-.797 0-1.329.53-.53.516-.593 1.407zm10.38 4.016v-9.313h1.266l4.891 7.313v-7.313h1.188v9.313h-1.266l-4.89-7.313v7.313H825.9zm13.892-.828q-.625.53-1.22.765-.577.219-1.25.219-1.124 0-1.718-.547-.594-.547-.594-1.39 0-.485.219-.891.234-.422.594-.672.375-.25.828-.375.328-.078 1.016-.172 1.375-.156 2.03-.39.016-.235.016-.297 0-.704-.328-.985-.437-.39-1.297-.39-.812 0-1.203.28-.375.282-.562 1l-1.11-.14q.141-.719.485-1.156.36-.453 1.015-.688.672-.234 1.532-.234.875 0 1.406.203.547.203.797.516.25.297.36.765.046.297.046 1.063v1.516q0 1.593.078 2.015.078.422.281.813h-1.187q-.172-.36-.234-.828zm-.094-2.563q-.625.266-1.86.438-.703.109-1 .234-.296.125-.453.375-.156.234-.156.531 0 .453.344.766.344.297 1.015.297.657 0 1.172-.282.516-.296.766-.796.172-.375.172-1.141v-.422zm3.115 3.39v-6.734h1.016v.938q.328-.5.844-.797.531-.297 1.203-.297.75 0 1.219.313.484.312.687.859.797-1.172 2.078-1.172 1 0 1.532.563.546.546.546 1.703v4.625h-1.125v-4.25q0-.688-.109-.985-.11-.297-.406-.484-.297-.188-.688-.188-.718 0-1.187.485-.469.469-.469 1.5v3.922h-1.14v-4.375q0-.766-.282-1.14-.281-.392-.906-.392-.484 0-.89.266-.407.25-.594.734-.188.485-.188 1.407v3.5h-1.14zm15.712-2.171l1.188.14q-.282 1.047-1.047 1.625-.75.563-1.922.563-1.484 0-2.36-.906-.859-.922-.859-2.563 0-1.703.875-2.64.89-.938 2.281-.938 1.36 0 2.204.922.859.922.859 2.578v.313h-5.031q.062 1.109.625 1.703.562.593 1.406.593.64 0 1.078-.328.453-.343.703-1.062zm-3.75-1.844h3.766q-.078-.86-.438-1.281-.547-.656-1.406-.656-.797 0-1.328.53-.531.516-.594 1.407z"/>
    <path fill="#ff0" fill-rule="evenodd" d="M711.609 683.953v-7.544H194.664v-15.086H711.61v-7.543l15.087 15.086z"/>
    <path stroke="#000" stroke-linecap="butt" stroke-linejoin="round" d="M711.609 683.953v-7.544H194.664v-15.086H711.61v-7.543l15.087 15.086z"/>
    <path fill="#cfe2f3" fill-rule="evenodd" d="M726.414 392.344h171.81v102.268h-171.81z"/>
    <path stroke="#000" stroke-linecap="butt" stroke-linejoin="round" d="M726.414 392.344h171.81v102.268h-171.81z"/>
    <path fill="#000" d="M763.236 450.398l-5.281-13.594h1.953l3.531 9.875q.437 1.187.719 2.219.312-1.11.734-2.22l3.672-9.874h1.844l-5.328 13.594h-1.844zm14.787 0v-1.453q-1.14 1.671-3.125 1.671-.86 0-1.625-.328-.75-.343-1.125-.843-.36-.5-.515-1.235-.094-.5-.094-1.562v-6.11h1.672v5.469q0 1.313.093 1.766.157.656.672 1.03.516.376 1.266.376t1.406-.375q.656-.39.922-1.047.281-.672.281-1.937v-5.282h1.672v9.86h-1.5zm10.673-3.172l1.719.219q-.407 1.5-1.516 2.343-1.094.828-2.813.828-2.156 0-3.421-1.328-1.266-1.328-1.266-3.734 0-2.484 1.266-3.86 1.28-1.374 3.328-1.374 1.984 0 3.234 1.343 1.25 1.344 1.25 3.797 0 .14-.016.438h-7.343q.093 1.625.922 2.484.828.86 2.062.86.906 0 1.547-.47.656-.484 1.047-1.546zm-5.485-2.703h5.5q-.109-1.235-.625-1.86-.796-.968-2.078-.968-1.14 0-1.937.78-.781.766-.86 2.048zm8.001 5.875l3.594-5.125-3.328-4.735h2.093l1.516 2.313q.422.656.672 1.11.422-.61.766-1.095l1.656-2.328h1.984l-3.39 4.64 3.656 5.22h-2.047l-2.031-3.063-.532-.828-2.593 3.89h-2.016zm14.34 0l5.234-13.594h1.938l5.562 13.594h-2.047l-1.594-4.125h-5.687l-1.484 4.125h-1.922zm3.922-5.578h4.609l-1.406-3.782q-.657-1.703-.97-2.812-.265 1.312-.733 2.594l-1.5 4zm16.24 1.968l1.64.219q-.265 1.688-1.374 2.656-1.11.953-2.735.953-2.015 0-3.25-1.312-1.219-1.328-1.219-3.797 0-1.594.516-2.781.531-1.203 1.61-1.797 1.093-.61 2.359-.61 1.61 0 2.625.813t1.312 2.313l-1.625.25q-.234-1-.828-1.5t-1.422-.5q-1.265 0-2.062.906-.781.906-.781 2.86 0 1.984.765 2.89.766.89 1.985.89.984 0 1.64-.593.656-.61.844-1.86zm6.547 2.11l.234 1.484q-.703.14-1.265.14-.907 0-1.407-.28-.5-.297-.703-.75-.203-.47-.203-1.985v-5.656h-1.234v-1.313h1.234v-2.437l1.656-1v3.437h1.688v1.313h-1.688v5.75q0 .719.078.922.094.203.297.328.203.125.578.125.266 0 .735-.078zm1.543-10.188v-1.906h1.671v1.906h-1.671zm0 11.688v-9.86h1.671v9.86h-1.671zm3.504-4.922q0-2.735 1.531-4.063 1.266-1.093 3.094-1.093 2.031 0 3.312 1.343 1.297 1.328 1.297 3.672 0 1.906-.578 3-.563 1.078-1.656 1.688-1.078.593-2.375.593-2.063 0-3.344-1.328-1.281-1.328-1.281-3.812zm1.718 0q0 1.89.829 2.828.828.937 2.078.937t2.062-.937q.828-.953.828-2.89 0-1.829-.828-2.766-.828-.938-2.062-.938-1.25 0-2.078.938-.829.937-.829 2.828zm9.282 4.922v-9.86h1.5v1.407q1.094-1.625 3.141-1.625.89 0 1.64.328.75.312 1.11.843.375.516.531 1.22.094.468.094 1.624v6.063h-1.672v-6q0-1.016-.203-1.516-.187-.516-.687-.812-.5-.297-1.172-.297-1.063 0-1.844.672-.766.671-.766 2.578v5.375h-1.672zm9.704-2.938l1.657-.265q.14 1 .765 1.53.64.516 1.781.516 1.157 0 1.704-.468.562-.47.562-1.094 0-.563-.484-.89-.344-.22-1.703-.563-1.844-.469-2.563-.797-.703-.344-1.078-.938-.36-.609-.36-1.328 0-.656.297-1.218.313-.563.829-.938.39-.281 1.062-.484.672-.203 1.438-.203 1.171 0 2.046.343.875.328 1.282.907.422.562.578 1.515l-1.625.219q-.11-.75-.656-1.172-.532-.437-1.5-.437-1.157 0-1.641.39-.484.375-.484.875 0 .328.203.594.203.266.64.437.25.094 1.47.438 1.765.469 2.468.766.703.296 1.094.875.406.578.406 1.437 0 .828-.485 1.578-.484.735-1.406 1.14-.922.391-2.078.391-1.922 0-2.937-.796-1-.797-1.282-2.36z"/>
    <path fill="none" d="M726.414 392.344h171.81v25.984h-171.81z"/>
    <path fill="red" d="M789.79 413.316q-.625.531-1.218.765-.578.22-1.25.22-1.125 0-1.719-.548-.594-.547-.594-1.39 0-.485.219-.891.234-.422.594-.672.375-.25.828-.375.328-.078 1.015-.172 1.375-.156 2.032-.39.015-.235.015-.297 0-.703-.328-.985-.437-.39-1.297-.39-.812 0-1.203.281-.375.281-.562 1l-1.11-.14q.141-.72.485-1.157.36-.453 1.015-.687.672-.235 1.532-.235.875 0 1.406.203.547.203.797.516.25.297.36.766.046.296.046 1.062v1.516q0 1.593.078 2.015.078.422.281.813h-1.187q-.172-.36-.235-.828zm-.093-2.563q-.625.266-1.86.438-.703.11-1 .234-.297.125-.453.375-.156.234-.156.531 0 .453.344.766.343.297 1.015.297.657 0 1.172-.281.516-.297.766-.797.172-.375.172-1.14v-.423zm7.506.922l1.125.14q-.172 1.173-.938 1.829-.765.656-1.859.656-1.39 0-2.234-.906-.828-.906-.828-2.594 0-1.094.359-1.906.36-.828 1.094-1.235.734-.406 1.61-.406 1.093 0 1.796.563.703.547.89 1.562l-1.109.172q-.156-.672-.562-1.016-.39-.343-.969-.343-.86 0-1.406.625-.532.61-.532 1.953 0 1.36.516 1.984.516.61 1.36.61.671 0 1.124-.407.454-.422.563-1.28zm4.773 1.453l.157 1q-.485.11-.86.11-.625 0-.968-.204-.344-.203-.485-.515-.14-.328-.14-1.344v-3.89h-.829v-.876h.829v-1.671l1.14-.688v2.36h1.156v.874h-1.156v3.954q0 .484.063.625.062.14.187.218.14.078.39.078.204 0 .516-.03zm1.203-6.969v-1.328h1.141v1.328h-1.14zm0 7.985v-6.735h1.141v6.735h-1.14zm2.54-3.375q0-1.875 1.03-2.766.876-.75 2.126-.75 1.39 0 2.265.906.891.907.891 2.516 0 1.297-.39 2.047-.391.75-1.141 1.172-.75.406-1.625.406-1.422 0-2.297-.906-.86-.906-.86-2.625zm1.171 0q0 1.297.563 1.953.562.64 1.422.64.844 0 1.406-.64.578-.656.578-1.984 0-1.25-.578-1.891-.562-.656-1.406-.656-.86 0-1.422.64-.563.64-.563 1.938zm6.663 3.375v-6.735h1.031v.954q.735-1.11 2.14-1.11.61 0 1.11.219.516.219.766.578.265.344.36.844.062.312.062 1.11v4.14h-1.14v-4.094q0-.703-.142-1.047-.125-.344-.468-.547-.328-.218-.782-.218-.734 0-1.265.468-.531.453-.531 1.75v3.688h-1.141zm6.96-2.016l1.124-.172q.094.672.532 1.047.437.36 1.218.36.782 0 1.157-.313.39-.328.39-.766 0-.39-.344-.609-.234-.156-1.171-.39-1.25-.313-1.735-.547-.484-.235-.734-.641t-.25-.906q0-.453.203-.828.203-.391.562-.641.266-.203.72-.328.468-.14 1-.14.78 0 1.374.234.61.218.89.609.298.39.407 1.047l-1.125.156q-.078-.531-.437-.812-.36-.297-1.032-.297-.78 0-1.125.265-.343.25-.343.61 0 .218.14.39.14.188.438.313.172.062 1.015.281 1.22.328 1.688.531.484.203.75.61.281.39.281.968 0 .579-.344 1.079-.328.5-.953.78-.625.282-1.422.282-1.312 0-2-.547-.687-.547-.875-1.625zm7.445 2.016v-1.297h1.296v1.297h-1.296zm3.359-7.985v-1.328h1.156v1.328h-1.156zm-1.438 10.594l.22-.969q.343.094.53.094.36 0 .516-.234.172-.235.172-1.156v-7.079h1.156v7.11q0 1.234-.328 1.719-.422.64-1.375.64-.469 0-.89-.125zm3.961-4.625l1.125-.172q.094.672.532 1.047.437.36 1.218.36.782 0 1.157-.313.39-.328.39-.766 0-.39-.343-.609-.235-.156-1.172-.39-1.25-.313-1.735-.547-.484-.235-.734-.641t-.25-.906q0-.453.203-.828.203-.391.563-.641.265-.203.718-.328.47-.14 1-.14.782 0 1.375.234.61.218.89.609.298.39.407 1.047l-1.125.156q-.078-.531-.437-.812-.36-.297-1.032-.297-.78 0-1.125.265-.343.25-.343.61 0 .218.14.39.14.188.438.313.172.062 1.015.281 1.22.328 1.688.531.484.203.75.61.281.39.281.968 0 .579-.344 1.079-.328.5-.953.78-.625.282-1.422.282-1.312 0-2-.547-.687-.547-.875-1.625z"/>
    <path fill="none" d="M726.414 466.942h171.81v25.134h-171.81z"/>
    <path fill="#f0f" d="M765.186 488.742v-9.312h4.125q1.25 0 1.891.265.656.25 1.047.891.39.625.39 1.39 0 .985-.656 1.673-.64.671-1.968.859.484.234.734.469.547.484 1.031 1.234l1.61 2.531h-1.547l-1.235-1.937q-.53-.844-.89-1.281-.344-.438-.625-.61-.266-.187-.547-.265-.219-.032-.688-.032h-1.437v4.125h-1.235zm1.235-5.203h2.656q.844 0 1.313-.172.484-.172.718-.547.25-.39.25-.843 0-.657-.484-1.078-.469-.438-1.5-.438h-2.953v3.078zm12.844 3.031l1.187.141q-.281 1.047-1.047 1.625-.75.563-1.921.563-1.485 0-2.36-.907-.86-.922-.86-2.562 0-1.703.876-2.64.89-.938 2.281-.938 1.36 0 2.203.922.86.921.86 2.578v.312h-5.032q.063 1.11.625 1.703.563.594 1.407.594.64 0 1.078-.328.453-.344.703-1.063zm-3.75-1.843h3.765q-.078-.86-.437-1.282-.547-.656-1.406-.656-.797 0-1.328.531-.532.516-.594 1.407zm6.1 2l1.125-.172q.093.672.531 1.047.437.359 1.219.359.781 0 1.156-.313.39-.328.39-.765 0-.39-.343-.61-.235-.156-1.172-.39-1.25-.313-1.734-.547-.485-.234-.735-.64-.25-.407-.25-.907 0-.453.203-.828.203-.39.563-.64.265-.204.719-.329.468-.14 1-.14.78 0 1.375.234.609.219.89.61.297.39.406 1.046l-1.125.156q-.078-.53-.437-.812-.36-.297-1.031-.297-.782 0-1.125.266-.344.25-.344.61 0 .218.14.39.141.187.438.312.172.063 1.016.281 1.218.329 1.687.532.485.203.75.61.281.39.281.968t-.343 1.078q-.328.5-.953.781t-1.422.281q-1.313 0-2-.546-.688-.547-.875-1.625zm6.695-1.36q0-1.875 1.031-2.765.875-.75 2.125-.75 1.39 0 2.266.906.89.906.89 2.516 0 1.296-.39 2.046-.39.75-1.14 1.172-.75.406-1.626.406-1.422 0-2.297-.906-.859-.906-.859-2.625zm1.172 0q0 1.297.562 1.953.563.641 1.422.641.844 0 1.407-.64.578-.657.578-1.985 0-1.25-.578-1.89-.563-.657-1.407-.657-.86 0-1.422.64-.562.641-.562 1.938zm11.084 3.375v-.984q-.797 1.14-2.14 1.14-.594 0-1.125-.234-.516-.234-.766-.578t-.344-.844q-.078-.328-.078-1.062v-4.172h1.14v3.734q0 .89.079 1.203.11.454.453.72.344.25.86.25.515 0 .968-.267.453-.265.64-.718.188-.453.188-1.313v-3.61h1.14v6.735h-1.015zm2.975 0v-6.734h1.032v1.016q.39-.72.718-.938.344-.234.735-.234.578 0 1.172.359l-.391 1.063q-.422-.25-.828-.25-.375 0-.688.234-.297.219-.422.625-.187.61-.187 1.328v3.531h-1.14zm8.845-2.469l1.125.141q-.172 1.172-.938 1.828-.765.656-1.859.656-1.39 0-2.234-.906-.829-.906-.829-2.594 0-1.093.36-1.906.36-.828 1.094-1.234.734-.406 1.609-.406 1.094 0 1.797.562.703.547.89 1.563l-1.109.172q-.156-.672-.562-1.016-.391-.344-.97-.344-.859 0-1.405.625-.532.61-.532 1.953 0 1.36.516 1.985.516.609 1.36.609.671 0 1.124-.406.453-.422.563-1.281zm6.883.297l1.187.141q-.281 1.047-1.047 1.625-.75.563-1.922.563-1.484 0-2.359-.907-.86-.922-.86-2.562 0-1.703.876-2.64.89-.938 2.28-.938 1.36 0 2.204.922.86.921.86 2.578v.312h-5.032q.063 1.11.625 1.703.563.594 1.406.594.641 0 1.079-.328.453-.344.703-1.063zm-3.75-1.843h3.765q-.078-.86-.437-1.282-.547-.656-1.406-.656-.797 0-1.329.531-.53.516-.593 1.407zm10.38 4.015v-9.312h1.266l4.891 7.312v-7.312h1.188v9.312h-1.266l-4.89-7.312v7.312H825.9zm13.892-.828q-.625.531-1.22.766-.577.219-1.25.219-1.124 0-1.718-.547-.594-.547-.594-1.391 0-.484.219-.89.234-.423.594-.673.375-.25.828-.375.328-.078 1.016-.171 1.375-.157 2.03-.391.016-.234.016-.297 0-.703-.328-.984-.437-.39-1.297-.39-.812 0-1.203.28-.375.282-.562 1l-1.11-.14q.141-.719.485-1.156.36-.454 1.015-.688.672-.234 1.532-.234.875 0 1.406.203.547.203.797.515.25.297.36.766.046.297.046 1.063v1.515q0 1.594.078 2.016.078.422.281.812h-1.187q-.172-.36-.234-.828zm-.094-2.562q-.625.265-1.86.437-.703.11-1 .235-.296.125-.453.375-.156.234-.156.53 0 .454.344.766.344.297 1.015.297.657 0 1.172-.281.516-.297.766-.797.172-.375.172-1.14v-.422zm3.115 3.39v-6.734h1.016v.937q.328-.5.844-.796.531-.297 1.203-.297.75 0 1.219.312.484.313.687.86.797-1.172 2.078-1.172 1 0 1.532.562.546.547.546 1.703v4.625h-1.125v-4.25q0-.687-.109-.984-.11-.297-.406-.484-.297-.188-.688-.188-.718 0-1.187.484-.469.47-.469 1.5v3.922h-1.14v-4.375q0-.765-.282-1.14-.281-.391-.906-.391-.484 0-.89.266-.407.25-.594.734-.188.484-.188 1.406v3.5h-1.14zm15.712-2.172l1.188.141q-.282 1.047-1.047 1.625-.75.563-1.922.563-1.484 0-2.36-.907-.859-.922-.859-2.562 0-1.703.875-2.64.89-.938 2.281-.938 1.36 0 2.204.922.859.921.859 2.578v.312h-5.031q.062 1.11.625 1.703.562.594 1.406.594.64 0 1.078-.328.453-.344.703-1.063zm-3.75-1.843h3.766q-.078-.86-.438-1.282-.547-.656-1.406-.656-.797 0-1.328.531-.531.516-.594 1.407z"/>
    <path fill="#c00" fill-rule="evenodd" d="M827.407 509.698h-7.543V618.58h-15.087V509.698h-7.543l15.086-15.086z"/>
    <path stroke="#000" stroke-linecap="butt" stroke-linejoin="round" d="M827.407 509.698h-7.543V618.58h-15.087V509.698h-7.543l15.086-15.086z"/>
    <path fill="#cfe2f3" fill-rule="evenodd" d="M726.414 217.921h171.81V320.19h-171.81z"/>
    <path stroke="#000" stroke-linecap="butt" stroke-linejoin="round" d="M726.414 217.921h171.81V320.19h-171.81z"/>
    <path fill="#000" d="M771.53 275.975l-5.281-13.594h1.953l3.531 9.875q.438 1.188.719 2.22.312-1.11.734-2.22l3.672-9.875h1.844l-5.328 13.594h-1.844zm14.787 0v-1.453q-1.14 1.672-3.125 1.672-.859 0-1.625-.328-.75-.344-1.125-.844-.359-.5-.515-1.234-.094-.5-.094-1.563v-6.11h1.672v5.47q0 1.312.094 1.765.156.656.672 1.031.515.375 1.265.375.75 0 1.406-.375.657-.39.922-1.046.282-.672.282-1.938v-5.281h1.671v9.86h-1.5zm10.673-3.172l1.719.219q-.407 1.5-1.516 2.344-1.094.828-2.812.828-2.157 0-3.422-1.328-1.266-1.328-1.266-3.735 0-2.484 1.266-3.859 1.281-1.375 3.328-1.375 1.984 0 3.234 1.344t1.25 3.797q0 .14-.015.437h-7.344q.094 1.625.922 2.485.828.859 2.062.859.906 0 1.547-.469.656-.484 1.047-1.547zm-5.484-2.703h5.5q-.11-1.234-.625-1.86-.797-.968-2.079-.968-1.14 0-1.937.781-.781.766-.86 2.047zm8 5.875l3.594-5.125-3.328-4.734h2.094l1.515 2.312q.422.657.672 1.11.422-.61.766-1.094l1.656-2.328h1.984l-3.39 4.64 3.656 5.22h-2.047l-2.031-3.063-.531-.828-2.594 3.89h-2.016zm15.23-4.375l1.688-.14q.125 1.015.563 1.671.437.657 1.359 1.063.937.406 2.094.406 1.03 0 1.812-.312.797-.313 1.188-.844.39-.531.39-1.156 0-.641-.375-1.11-.375-.484-1.234-.812-.547-.219-2.422-.656-1.875-.454-2.625-.86-.969-.515-1.453-1.265-.469-.75-.469-1.688 0-1.031.578-1.922.594-.906 1.703-1.36 1.125-.468 2.5-.468 1.516 0 2.672.484 1.157.485 1.766 1.438.625.937.672 2.14l-1.719.126q-.14-1.282-.953-1.938-.797-.672-2.36-.672-1.624 0-2.374.61-.75.593-.75 1.437 0 .734.53 1.203.516.469 2.704.969 2.203.5 3.016.875 1.187.547 1.75 1.39.578.829.578 1.922 0 1.094-.625 2.063-.625.953-1.797 1.484-1.156.532-2.61.532-1.843 0-3.093-.532-1.25-.547-1.97-1.625-.702-1.078-.733-2.453zm16.49 2.875l.235 1.485q-.703.14-1.265.14-.907 0-1.407-.281-.5-.297-.703-.75-.203-.469-.203-1.984v-5.657h-1.234v-1.312h1.234v-2.438l1.656-1v3.438h1.688v1.312h-1.688v5.75q0 .719.079.922.093.203.296.328.204.125.579.125.265 0 .734-.078zm.903-3.422q0-2.734 1.531-4.062 1.266-1.094 3.094-1.094 2.031 0 3.313 1.344 1.296 1.328 1.296 3.672 0 1.906-.578 3-.562 1.078-1.656 1.687-1.078.594-2.375.594-2.062 0-3.344-1.328-1.281-1.328-1.281-3.813zm1.719 0q0 1.89.828 2.828t2.078.938q1.25 0 2.063-.938.828-.953.828-2.89 0-1.828-.828-2.766-.829-.937-2.063-.937-1.25 0-2.078.937-.828.938-.828 2.828zm9.266 4.922v-9.86h1.5v1.5q.578-1.046 1.063-1.374.484-.344 1.078-.344.843 0 1.718.547l-.578 1.547q-.609-.36-1.234-.36-.547 0-.984.329-.422.328-.61.906-.281.89-.281 1.953v5.156h-1.672zm12.978-3.172l1.72.219q-.407 1.5-1.516 2.344-1.094.828-2.813.828-2.156 0-3.422-1.328-1.265-1.328-1.265-3.735 0-2.484 1.265-3.859 1.281-1.375 3.328-1.375 1.985 0 3.235 1.344 1.25 1.344 1.25 3.797 0 .14-.016.437h-7.344q.094 1.625.922 2.485.828.859 2.063.859.906 0 1.547-.469.656-.484 1.046-1.547zm-5.484-2.703h5.5q-.11-1.234-.625-1.86-.797-.968-2.078-.968-1.14 0-1.938.781-.78.766-.859 2.047z"/>
    <path fill="none" d="M726.414 217.921h171.81v25.985h-171.81z"/>
    <path fill="red" d="M791.246 237.706l1.125-.172q.094.672.532 1.047.437.359 1.218.359.782 0 1.157-.312.39-.329.39-.766 0-.39-.343-.61-.235-.156-1.172-.39-1.25-.313-1.735-.547-.484-.234-.734-.64-.25-.407-.25-.907 0-.453.203-.828.203-.39.563-.64.265-.204.718-.329.469-.14 1-.14.782 0 1.375.234.61.219.89.61.298.39.407 1.046l-1.125.157q-.078-.532-.437-.813-.36-.297-1.032-.297-.78 0-1.125.266-.343.25-.343.61 0 .218.14.39.14.187.438.312.172.063 1.015.282 1.22.328 1.688.53.484.204.75.61.281.39.281.969 0 .578-.344 1.078-.328.5-.953.781-.625.282-1.422.282-1.312 0-2-.547-.687-.547-.875-1.625zm9.618 1l.156 1q-.485.109-.86.109-.625 0-.968-.203-.344-.203-.485-.516-.14-.328-.14-1.343v-3.891h-.828v-.875h.828v-1.672l1.14-.687v2.359h1.157v.875h-1.157v3.953q0 .484.063.625.062.14.187.219.141.078.391.078.203 0 .516-.031zm.78-2.36q0-1.875 1.032-2.765.875-.75 2.125-.75 1.39 0 2.266.906.89.906.89 2.516 0 1.296-.39 2.046-.391.75-1.141 1.172-.75.407-1.625.407-1.422 0-2.297-.907-.86-.906-.86-2.625zm1.173 0q0 1.297.562 1.953.563.641 1.422.641.844 0 1.406-.64.578-.657.578-1.985 0-1.25-.578-1.89-.562-.657-1.406-.657-.86 0-1.422.64-.562.641-.562 1.938zm6.646 3.375v-6.734h1.032v1.016q.39-.72.718-.938.344-.234.735-.234.578 0 1.172.359l-.39 1.063q-.423-.25-.83-.25-.374 0-.687.234-.296.219-.421.625-.188.61-.188 1.328v3.531h-1.14zm9.064-2.172l1.187.141q-.281 1.047-1.047 1.625-.75.563-1.921.563-1.485 0-2.36-.907-.86-.922-.86-2.562 0-1.703.876-2.64.89-.938 2.281-.938 1.36 0 2.203.922.86.921.86 2.578v.312h-5.032q.063 1.11.625 1.703.563.594 1.407.594.64 0 1.078-.328.453-.344.703-1.063zm-3.75-1.843h3.765q-.078-.86-.437-1.282-.547-.656-1.406-.656-.797 0-1.328.531-.532.516-.594 1.407zm6.881 4.015v-1.297h1.297v1.297h-1.297zm3.36-7.984v-1.328h1.156v1.328h-1.157zm-1.438 10.594l.219-.97q.343.095.53.095.36 0 .516-.235.172-.234.172-1.156v-7.078h1.157v7.11q0 1.234-.329 1.718-.421.64-1.375.64-.468 0-.89-.124zm3.96-4.625l1.126-.172q.094.672.531 1.047.438.359 1.219.359.781 0 1.156-.312.39-.329.39-.766 0-.39-.343-.61-.234-.156-1.172-.39-1.25-.313-1.734-.547-.485-.234-.735-.64-.25-.407-.25-.907 0-.453.203-.828.204-.39.563-.64.266-.204.719-.329.468-.14 1-.14.781 0 1.375.234.61.219.89.61.297.39.407 1.046l-1.125.157q-.079-.532-.438-.813-.36-.297-1.031-.297-.781 0-1.125.266-.344.25-.344.61 0 .218.14.39.141.187.438.312.172.063 1.016.282 1.219.328 1.687.53.485.204.75.61.282.39.282.969 0 .578-.344 1.078-.328.5-.953.781-.625.282-1.422.282-1.313 0-2-.547-.688-.547-.875-1.625z"/>
    <path fill="#c00" fill-rule="evenodd" d="M827.407 334.46h-7.543v57.921h-15.087V334.46h-7.543l15.086-15.087z"/>
    <path stroke="#000" stroke-linecap="butt" stroke-linejoin="round" d="M827.407 334.46h-7.543v57.921h-15.087V334.46h-7.543l15.086-15.087z"/>
    <path fill="#cfe2f3" fill-rule="evenodd" d="M726.414 42.682h171.81V144.95h-171.81z"/>
    <path stroke="#000" stroke-linecap="butt" stroke-linejoin="round" d="M726.414 42.682h171.81V144.95h-171.81z"/>
    <path fill="#000" d="M745.6 100.736l-5.281-13.593h1.953l3.531 9.875q.437 1.187.719 2.218.312-1.11.734-2.218l3.672-9.875h1.844l-5.328 13.593H745.6zm14.787 0v-1.453q-1.14 1.672-3.125 1.672-.86 0-1.625-.328-.75-.344-1.125-.844-.36-.5-.515-1.234-.094-.5-.094-1.563v-6.11h1.672v5.47q0 1.312.093 1.765.157.657.672 1.032.516.375 1.266.375t1.406-.375q.656-.391.922-1.047.281-.672.281-1.938v-5.281h1.672v9.86h-1.5zm10.673-3.172l1.719.22q-.407 1.5-1.516 2.343-1.094.828-2.813.828-2.156 0-3.421-1.328-1.266-1.328-1.266-3.734 0-2.485 1.266-3.86 1.28-1.375 3.328-1.375 1.984 0 3.234 1.344t1.25 3.797q0 .14-.016.437h-7.343q.093 1.625.922 2.485.828.859 2.062.859.906 0 1.547-.469.656-.484 1.047-1.547zm-5.485-2.703h5.5q-.109-1.234-.625-1.86-.796-.968-2.078-.968-1.14 0-1.937.781-.781.766-.86 2.047zm24.216 1.11l1.797.453q-.563 2.219-2.032 3.39-1.468 1.157-3.593 1.157-2.204 0-3.579-.891-1.375-.906-2.093-2.594-.719-1.703-.719-3.656 0-2.125.797-3.703.812-1.578 2.312-2.39 1.5-.829 3.297-.829 2.047 0 3.438 1.047 1.39 1.031 1.937 2.906l-1.765.422q-.47-1.484-1.375-2.156-.907-.688-2.266-.688-1.563 0-2.625.75-1.047.75-1.484 2.032-.422 1.265-.422 2.609 0 1.734.5 3.031.515 1.282 1.578 1.922 1.078.64 2.312.64 1.516 0 2.563-.859 1.047-.875 1.422-2.593zm2.926-.157q0-2.734 1.531-4.062 1.266-1.094 3.094-1.094 2.031 0 3.312 1.344 1.297 1.328 1.297 3.672 0 1.906-.578 3-.563 1.078-1.656 1.687-1.078.594-2.375.594-2.063 0-3.344-1.328-1.281-1.328-1.281-3.813zm1.718 0q0 1.891.829 2.829.828.937 2.078.937t2.062-.937q.828-.954.828-2.891 0-1.828-.828-2.766-.828-.937-2.062-.937-1.25 0-2.078.937-.829.938-.829 2.828zm9.282 4.922v-9.86h1.5v1.392q.454-.72 1.22-1.157.78-.453 1.765-.453 1.094 0 1.797.453.703.453.984 1.282 1.172-1.735 3.047-1.735 1.469 0 2.25.813.797.812.797 2.5v6.765h-1.672v-6.203q0-1-.156-1.437-.157-.453-.594-.72-.422-.265-1-.265-1.031 0-1.719.688-.687.687-.687 2.219v5.718h-1.672V94.33q0-1.11-.406-1.656-.407-.563-1.344-.563-.703 0-1.313.375-.593.36-.859 1.078-.266.72-.266 2.063v5.11h-1.672zm15.541 3.782V90.877h1.532v1.281q.53-.75 1.203-1.125.687-.375 1.64-.375 1.266 0 2.235.656.968.641 1.453 1.829.5 1.187.5 2.593 0 1.516-.547 2.735-.547 1.203-1.578 1.843-1.031.641-2.172.641-.844 0-1.516-.344-.656-.36-1.078-.89v4.797h-1.672zm1.516-8.657q0 1.907.766 2.813.78.906 1.875.906 1.109 0 1.89-.937.797-.938.797-2.922 0-1.875-.781-2.813-.766-.937-1.844-.937-1.062 0-1.89 1-.813 1-.813 2.89zm8.235-.047q0-2.734 1.531-4.062 1.266-1.094 3.094-1.094 2.031 0 3.312 1.344 1.297 1.328 1.297 3.672 0 1.906-.578 3-.562 1.078-1.656 1.687-1.078.594-2.375.594-2.063 0-3.344-1.328-1.281-1.328-1.281-3.813zm1.719 0q0 1.891.828 2.829.828.937 2.078.937t2.062-.937q.829-.954.829-2.891 0-1.828-.829-2.766-.828-.937-2.062-.937-1.25 0-2.078.937-.828.938-.828 2.828zm9.282 4.922v-9.86h1.5v1.407q1.093-1.625 3.14-1.625.89 0 1.64.328.75.313 1.11.844.375.516.532 1.219.093.469.093 1.625v6.062h-1.672v-6q0-1.015-.203-1.515-.187-.516-.687-.813-.5-.297-1.172-.297-1.063 0-1.844.672-.765.672-.765 2.578v5.375h-1.672zm17.125-3.172l1.72.22q-.407 1.5-1.516 2.343-1.094.828-2.813.828-2.156 0-3.422-1.328-1.265-1.328-1.265-3.734 0-2.485 1.265-3.86 1.281-1.375 3.328-1.375 1.985 0 3.235 1.344 1.25 1.344 1.25 3.797 0 .14-.016.437h-7.344q.094 1.625.922 2.485.828.859 2.063.859.906 0 1.547-.469.656-.484 1.046-1.547zm-5.484-2.703h5.5q-.11-1.234-.625-1.86-.797-.968-2.078-.968-1.14 0-1.938.781-.78.766-.859 2.047zm9.11 5.875v-9.86h1.5v1.407q1.094-1.625 3.14-1.625.891 0 1.641.328.75.313 1.11.844.375.516.531 1.219.094.469.094 1.625v6.062h-1.672v-6q0-1.015-.203-1.515-.188-.516-.688-.813-.5-.297-1.172-.297-1.062 0-1.843.672-.766.672-.766 2.578v5.375h-1.672zm14.032-1.5l.234 1.485q-.703.14-1.265.14-.906 0-1.406-.281-.5-.297-.704-.75-.203-.469-.203-1.984v-5.657h-1.234v-1.312h1.234v-2.438l1.657-1v3.438h1.687v1.312h-1.687v5.75q0 .72.078.922.093.203.297.328.203.125.578.125.265 0 .734-.078zm.855-1.437l1.657-.266q.14 1 .765 1.531.64.516 1.781.516 1.157 0 1.704-.469.562-.468.562-1.093 0-.563-.484-.891-.344-.219-1.703-.563-1.844-.468-2.563-.796-.703-.344-1.078-.938-.36-.61-.36-1.328 0-.656.297-1.219.313-.562.829-.937.39-.282 1.062-.485t1.438-.203q1.171 0 2.046.344.875.328 1.282.906.422.563.578 1.516l-1.625.219q-.11-.75-.656-1.172-.532-.438-1.5-.438-1.157 0-1.641.39-.484.376-.484.876 0 .328.203.594.203.265.64.437.25.094 1.47.438 1.765.468 2.468.765.703.297 1.094.875.406.578.406 1.438 0 .828-.485 1.578-.484.734-1.406 1.14-.922.391-2.078.391-1.922 0-2.937-.797-1-.797-1.282-2.36z"/>
    <path fill="none" d="M726.414 42.682h171.81v25.985h-171.81z"/>
    <path fill="red" d="M784.652 56.498V55.17h1.14v1.328h-1.14zm0 7.984v-6.734h1.14v6.734h-1.14zm2.96 0v-6.734h1.032v.953q.734-1.11 2.14-1.11.61 0 1.11.22.515.218.765.578.266.343.36.843.062.313.062 1.11v4.14h-1.14V60.39q0-.703-.14-1.047-.126-.344-.47-.547-.328-.219-.78-.219-.735 0-1.267.469-.53.453-.53 1.75v3.687h-1.141zm11.788 0v-.843q-.64 1-1.89 1-.797 0-1.485-.438-.672-.453-1.047-1.25-.375-.797-.375-1.828 0-1.016.344-1.828.344-.828 1.016-1.266.671-.437 1.5-.437.609 0 1.078.265.484.25.78.657V55.17h1.142v9.312H799.4zm-3.61-3.359q0 1.297.532 1.938.547.64 1.297.64.75 0 1.265-.61.532-.624.532-1.874 0-1.39-.532-2.031-.53-.657-1.312-.657-.766 0-1.281.625-.5.625-.5 1.969zm11.257 1.188l1.187.14q-.28 1.047-1.046 1.625-.75.563-1.922.563-1.485 0-2.36-.907-.86-.921-.86-2.562 0-1.703.876-2.64.89-.938 2.281-.938 1.36 0 2.203.922.86.922.86 2.578v.312h-5.032q.063 1.11.625 1.703.563.594 1.407.594.64 0 1.078-.328.453-.344.703-1.062zm-3.75-1.844h3.766q-.079-.86-.438-1.281-.547-.657-1.406-.657-.797 0-1.328.532-.532.515-.594 1.406zm5.787 4.015l2.47-3.5-2.282-3.234h1.422l1.047 1.578q.28.453.468.75.266-.422.5-.734l1.141-1.594h1.375l-2.344 3.172 2.516 3.562h-1.406l-1.375-2.093-.375-.563-1.766 2.656h-1.39zm7.758 0v-1.296h1.297v1.296h-1.297zm5.25 0l-2.562-6.734h1.203l1.437 4.031q.235.657.438 1.36.156-.532.422-1.282l1.5-4.109h1.171l-2.546 6.734h-1.063zm9.211 0v-.984q-.797 1.14-2.14 1.14-.594 0-1.126-.234-.515-.234-.765-.578t-.344-.844q-.078-.328-.078-1.062v-4.172h1.14v3.734q0 .891.079 1.204.109.453.453.718.343.25.86.25.515 0 .968-.265.453-.266.64-.72.188-.452.188-1.312v-3.609h1.14v6.734h-1.015zm7.6-2.171l1.187.14q-.28 1.047-1.046 1.625-.75.563-1.922.563-1.485 0-2.36-.907-.859-.921-.859-2.562 0-1.703.875-2.64.89-.938 2.281-.938 1.36 0 2.203.922.86.922.86 2.578v.312h-5.032q.063 1.11.625 1.703.563.594 1.407.594.64 0 1.078-.328.453-.344.703-1.062zm-3.75-1.844h3.766q-.079-.86-.438-1.281-.547-.657-1.406-.657-.797 0-1.328.532-.532.515-.594 1.406z"/>
    <path fill="#c00" fill-rule="evenodd" d="M827.407 159.22h-7.543v57.922h-15.087v-57.921h-7.543l15.086-15.087z"/>
    <path stroke="#000" stroke-linecap="butt" stroke-linejoin="round" d="M827.407 159.22h-7.543v57.922h-15.087v-57.921h-7.543l15.086-15.087z"/>
  </g>
</svg>
