<svg xmlns="http://www.w3.org/2000/svg" role="img" viewBox="0 0 200 200" fill="none" data-v-0c0e4676="" data-v-4d479056=""><use href="#blob-background" fill="#FFCB00"></use> <use href="#body" stroke="#4368F5"></use> <use href="#right-wing-inner" stroke="#4368F5" class="wing-inner"></use> <use href="#right-wing-middle" stroke="#4368F5" class="wing-middle"></use> <use href="#right-wing-outer" stroke="#4368F5" class="wing-outer"></use> <use href="#left-wing-inner" stroke="#4368F5" class="wing-inner"></use> <use href="#left-wing-middle" stroke="#4368F5" class="wing-middle"></use> <use href="#left-wing-outer" stroke="#4368F5" class="wing-outer"></use> <defs><g id="blob-background"><path d="M0.320842 109.741C-1.24406 129.508 2.71248 151.014 16.6884 165.088C22.7511
        171.176 30.3394 175.515 38.1148 179.132C86.5579 201.626 153.445 202.012 187.716
        156.301C206.721 130.98 198.68 92.0596 185.846 65.0188C174.783 41.704 155.65 22.0559
        132.039 11.797C99.2149 -2.50425 69.157 3.26763 43.0949 25.8313C18.8241 46.8631
        2.86012 77.5805 0.320842 109.741Z"></path></g> <g id="rect-background"><rect width="200" height="200" rx="20" ry="20"></rect></g> <g id="body"><path d="M105 133.5C106.125 135.248 111.046 140.575 113.5 145.5C115.084 148.678 116.043
        151.879 115.5 154.5C114.566 159.01 110.376 162.409 106.255 159.3C104.108 157.681
        102.698 154.847 102.209 152.3C101.265 147.375 102.751 141.099 105 133.5ZM105 133.5C92
        121.5 80.5894 106.993 86.0001 88C87.8773 81.4102 91.5066 76.5374 92.5907 67.8576C92.9229
        65.1979 92.0525 63.0863 92.5907 60.3303C93.1958 57.2315 95.7567 53.5948 99.6458 52.8029C101.94
        52.3358 104.538 52.8993 106.701 54.6847C108.251 55.9644 109.53 57.5443 109.801 59.5775C110.137
        62.0918 109.848 65.8372 109.969 68.8091C110.064 71.1567 111.01 74.3275 111.846 76.5C123.727
        101.615 117 110.5 105 133.5ZM102.455 52.7427C104.844 53.1793 107.316 54.5807 111.846
        51.9511C117.52 46.8315 124.682 39.4836 129.898 34.0323C123.952 40.1759 122.341 41.8109
        114.35 49.692C112.985 51.7283 111.085 54.0494 110.647 55.8138C110.089 58.0588 109.812
        61.4633 109.967 63.8191" stroke-width="6" stroke-linecap="round" stroke-linejoin="round"></path></g> <g id="right-wing-inner"><path d="M128.866 81.1332C128.866 81.1332 136.087 86.4496
        136.087 97.0824C136.087 107.715 128.866 112.875 128.866 112.875" stroke-width="6" stroke-linecap="round" stroke-linejoin="round"></path></g> <g id="right-wing-middle"><path d="M140.213 70.8939C140.213 70.8939 151.559 79.6402
        151.559 97.1328C151.559 114.625 140.213 123.114 140.213 123.114" stroke-width="6" stroke-linecap="round" stroke-linejoin="round"></path></g> <g id="right-wing-outer"><path d="M150.528 60.6545C150.528 60.6545 166 72.8308 166 97.1832C166
        121.536 150.528 133.354 150.528 133.354" stroke-width="6" stroke-linecap="round" stroke-linejoin="round"></path></g> <g id="left-wing-inner"><path d="M72.1338 81.1332C72.1338 81.1332 64.9133 86.4496
        64.9133 97.0824C64.9133 107.715 72.1338 112.875 72.1338 112.875" stroke-width="6" stroke-linecap="round" stroke-linejoin="round"></path></g> <g id="left-wing-middle"><path d="M60.7874 70.8939C60.7874 70.8939 49.4409 79.6402
        49.4409 97.1328C49.4409 114.625 60.7874 123.114 60.7874 123.114" stroke-width="6" stroke-linecap="round" stroke-linejoin="round"></path></g> <g id="left-wing-outer"><path d="M50.4724 60.6545C50.4724 60.6545 35 72.8308 35 97.1832C35
        121.536 50.4724 133.354 50.4724 133.354" stroke-width="6" stroke-linecap="round" stroke-linejoin="round"></path></g> <mask id="cutout-mask"><rect x="0" y="0" width="200" height="200" fill="white"></rect> <use href="#body" stroke="black"></use> <use href="#right-wing-inner" stroke="black" class="wing-inner"></use> <use href="#right-wing-middle" stroke="black" class="wing-middle"></use> <use href="#right-wing-outer" stroke="black" class="wing-outer"></use> <use href="#left-wing-inner" stroke="black" class="wing-inner"></use> <use href="#left-wing-middle" stroke="black" class="wing-middle"></use> <use href="#left-wing-outer" stroke="black" class="wing-outer"></use></mask></defs></svg>