<?xml version="1.0" encoding="UTF-8" standalone="no"?>
<svg width="30px" height="30px" viewBox="0 0 30 30" version="1.1" xmlns="http://www.w3.org/2000/svg" xmlns:xlink="http://www.w3.org/1999/xlink">

    <path d="M15,30 C23.2842712,30 30,23.2842712 30,15 C30,6.71572875 23.2842712,0 15,0 C6.71572875,0 0,6.71572875 0,15 C0,23.2842712 6.71572875,30 15,30 L15,30 Z" id="bg" fill="#FFFFFF"></path>
    <path d="M2,15 C2,7.83375 7.83375,2 15,2 C22.16625,2 28,7.83375 28,15 C28,22.16625 22.16625,28 15,28 C7.83375,28 2,22.16625 2,15 L2,15 Z" id="circle" fill="#996189"></path>
    <path d="M15,9 L15,15.1866667 C14.6866667,15.0733333 14.3533333,15 14,15 C12.34,15 11,16.34 11,18 C11,19.66 12.34,21 14,21 C15.54,21 16.8,19.8333333 16.9666667,18.3333333 L17,18.3333333 L17,11 L19.6666667,11 L19.6666667,9 L15,9 L15,9 Z" id="audio" fill="#FFFFFF"></path>

</svg>
