<?xml version="1.0" encoding="UTF-8" standalone="no"?>
<svg width="30px" height="30px" viewBox="0 0 30 30" version="1.1" xmlns="http://www.w3.org/2000/svg" xmlns:xlink="http://www.w3.org/1999/xlink">

    <g id="Symbols" stroke="none" stroke-width="1" fill="none" fill-rule="evenodd">
        <g id="content-icon-/filled-/video">
            <path d="M15,30 C23.2842712,30 30,23.2842712 30,15 C30,6.71572875 23.2842712,-3.55271368e-15 15,-3.55271368e-15 C6.71572875,-3.55271368e-15 0,6.71572875 0,15 C0,23.2842712 6.71572875,30 15,30 Z" id="Oval-1" fill="#FFFFFF"></path>
            <path d="M12,22 L21.3333333,15 L12,8 L12,22 L12,22 Z M2,15 C2,7.83375 7.83375,2 15,2 C22.16625,2 28,7.83375 28,15 C28,22.16625 22.16625,28 15,28 C7.83375,28 2,22.16625 2,15 Z" id="Shape" fill="#996189"></path>
        </g>
    </g>
</svg>
