<svg
   height="32"
   width="32"
   viewBox="0 0 32 32">
  <circle
     style="fill:#d5d5d5"
     class="outer-circle"
     cy="16"
     cx="16"
     r="16" />
  <circle
     style="fill:#ffffff"
     class="inner-circle"
     cy="16"
     cx="16"
     r="13.5" />
  <path
     d="m 24,21.111273 c 0,0.965172 -0.855492,1.754857 -1.901094,1.754857 l -12.197812,0 c -1.045601,0 -1.901093,-0.789685 -1.901093,-1.754857 L 8,10.888726 C 8,9.923555 8.855492,9.13387 9.901094,9.13387 l 12.197812,0 C 23.144507,9.13387 24,9.923556 24,10.888726 l 0,10.222547 z m -9.141264,-9.671722 0,9.141262 2.285316,0 0,-9.141263 -2.285316,0 z m -4.298425,0 0,5.71329 2.013111,0 0,-5.71329 -2.013111,0 z m 8.869057,0 0,9.141262 2.285316,0 0,-9.141263 -2.285316,0 z"
     style="fill:#996189" />
</svg>
