<?xml version="1.0" encoding="UTF-8" standalone="no"?>
<svg width="30px" height="30px" viewBox="0 0 30 30" version="1.1" xmlns="http://www.w3.org/2000/svg" xmlns:xlink="http://www.w3.org/1999/xlink">

    <g id="Symbols" stroke="none" stroke-width="1" fill="none" fill-rule="evenodd">
        <g id="content-icon-/half-/pdf-">
            <path d="M15,30 C23.2842712,30 30,23.2842712 30,15 C30,6.71572875 23.2842712,3.55271368e-15 15,3.55271368e-15 C6.71572875,3.55271368e-15 0,6.71572875 0,15 C0,23.2842712 6.71572875,30 15,30 Z" id="Oval-1" fill="#FFFFFF"></path>
            <path d="M4,15 C4,21.072 8.928,26 15,26 C21.072,26 26,21.072 26,15 L4,15 Z" id="Combined-Shape" fill="#E2D1E0"></path>
            <path d="M2,15 C2,7.83375 7.83375,2 15,2 C22.16625,2 28,7.83375 28,15 C28,22.16625 22.16625,28 15,28 C7.83375,28 2,22.16625 2,15 Z M15,4 C8.928,4 4,8.928 4,15 C4,21.072 8.928,26 15,26 C21.072,26 26,21.072 26,15 C26,8.928 21.072,4 15,4 Z M10.5357666,8 C9.69109497,8 9,8.74868622 9,9.66374715 L9,20.3386943 C9,21.2537552 9.69109497,22.0024414 10.5357666,22.0024414 L19.4820557,22.0024417 C20.3267273,22.0024417 21.0178223,21.2537555 21.0178223,20.3386946 L21.0178223,9.66374747 C21.0178223,8.74868654 20.3267273,8.00000032 19.4820557,8.00000032 L10.5357666,8 Z M19,12 L11,12 L11,10 L19,10 L19,12 Z M19,19.7617792 L14,19.7617792 L14,18 L19,18 L19,19.7617792 Z M19,16 L11,16 L11,14 L19,14 L19,16 Z" id="Combined-Shape" fill="#996189"></path>
        </g>
    </g>
</svg>