<?xml version="1.0" encoding="UTF-8" standalone="no"?>
<svg width="30px" height="30px" viewBox="0 0 30 30" version="1.1" xmlns="http://www.w3.org/2000/svg" xmlns:xlink="http://www.w3.org/1999/xlink">

    <defs></defs>
    <g id="Symbols" stroke="none" stroke-width="1" fill="none" fill-rule="evenodd">
        <g id="content-icon-/empty--/audio">
            <path d="M15,30 C23.2842712,30 30,23.2842712 30,15 C30,6.71572875 23.2842712,-3.55271368e-15 15,-3.55271368e-15 C6.71572875,-3.55271368e-15 0,6.71572875 0,15 C0,23.2842712 6.71572875,30 15,30 Z" id="Oval-1" fill="#FFFFFF"></path>
            <path d="M2,15 C2,7.83375 7.83375,2 15,2 C22.16625,2 28,7.83375 28,15 C28,22.16625 22.16625,28 15,28 C7.83375,28 2,22.16625 2,15 Z M15,4 C8.928,4 4,8.928 4,15 C4,21.072 8.928,26 15,26 C21.072,26 26,21.072 26,15 C26,8.928 21.072,4 15,4 Z M8,12.6054732 L8,17.3945268 L11.1927024,17.3945268 L15.1835804,21.3854048 L15.1835804,8.61459521 L11.1927024,12.6054732 L8,12.6054732 Z M18.7753706,15 C18.7753706,13.5872292 17.9612315,12.3740023 16.7799316,11.7833523 L16.7799316,18.2086659 C17.9612315,17.6259977 18.7753706,16.4127708 18.7753706,15 Z M16.7799316,8 L16.7799316,9.64424173 C19.0866591,10.3306727 20.7708096,12.4697834 20.7708096,15 C20.7708096,17.5302166 19.0866591,19.6693273 16.7799316,20.3557583 L16.7799316,22 C19.9806157,21.2736602 22.3671608,18.4161916 22.3671608,15 C22.3671608,11.5838084 19.9806157,8.72633979 16.7799316,8 Z" id="Combined-Shape" fill="#996189"></path>
        </g>
    </g>
</svg>
