<?xml version="1.0" encoding="UTF-8" standalone="no"?>
<svg width="30px" height="30px" viewBox="0 0 30 30" version="1.1" xmlns="http://www.w3.org/2000/svg" xmlns:xlink="http://www.w3.org/1999/xlink">

    <g id="Symbols" stroke="none" stroke-width="1" fill="none" fill-rule="evenodd">
        <g id="content-icon-/empty-/exercise">
            <path d="M15,30 C23.2842712,30 30,23.2842712 30,15 C30,6.71572875 23.2842712,3.55271368e-15 15,3.55271368e-15 C6.71572875,3.55271368e-15 0,6.71572875 0,15 C0,23.2842712 6.71572875,30 15,30 Z" id="Oval-1" fill="#FFFFFF"></path>
            <path d="M2,15 C2,7.83375 7.83375,2 15,2 C22.16625,2 28,7.83375 28,15 C28,22.16625 22.16625,28 15,28 C7.83375,28 2,22.16625 2,15 Z M15,4 C8.928,4 4,8.928 4,15 C4,21.072 8.928,26 15,26 C21.072,26 26,21.072 26,15 C26,8.928 21.072,4 15,4 Z" id="Combined-Shape" fill="#996189"></path>
            <polygon id="Shape" fill="#996189" points="15 18.689 19.326 21.3 18.178 16.379 22 13.068 16.967 12.641 15 8 13.033 12.641 8 13.068 11.822 16.379 10.674 21.3"></polygon>
        </g>
    </g>
</svg>
