<svg xmlns="http://www.w3.org/2000/svg" width="1778" height="1030" style="background:#fff">
  <g fill="none" fill-rule="evenodd">
    <path fill="#FBF6F9" d="M192.453 381.469c58.181 0 74.174 137.367 201.114 159.972 98.33 17.51 190.035 180.364 275.113 488.559H2.332c6.57-432.354 69.944-648.531 190.121-648.531zM1671.438 515c-122.264-26.773-65.501 52.582-145.711 68.219-69.281 13.506-166.348 162.433-291.2 446.781h666.348c-34.08-317.301-110.56-488.968-229.437-515z"/>
    <path fill="#FBF6F9" d="M1049.737 638.66c1.042-17.874 2.245-26.811 3.609-26.811 1.405 0 2.993 9.48 4.764 28.44 1.094.228 2.203.465 3.328.711 118.878 26.032 194.326 155.699 226.343 389H621.434c120.9-190.853 215.649-296.93 284.248-318.232 1.12-6.613 2.218-9.92 3.295-9.92.98 0 1.948 2.737 2.905 8.21 1.037-.25 2.068-.48 3.093-.69 1.365-9.68 2.7-14.52 4.002-14.52 1.224 0 2.429 4.265 3.615 12.794 1.123-.3 2.214-.614 3.276-.942 1.055-5.9 2.092-8.851 3.11-8.851.894 0 1.778 2.278 2.652 6.834 40.56-16.025 31.715-54.284 64.562-65.812 1.29-8.681 2.551-13.022 3.785-13.022 1.14 0 2.262 3.696 3.37 11.087a63.242 63.242 0 0 1 2.202-.398c1.514-11.793 2.99-17.69 4.428-17.69 1.402 0 2.78 5.602 4.134 16.805a95.21 95.21 0 0 1 1.978-.08c1.325-9.15 2.621-13.724 3.888-13.724 1.27 0 2.519 4.589 3.748 13.767 1.188.045 2.404.108 3.65.188 2.112-25.303 3.979-37.955 5.602-37.955 1.644 0 3.053 12.964 4.228 38.894.668.083 1.344.17 2.027.26.923-12.77 1.96-19.154 3.114-19.154 1.185 0 2.5 6.738 3.944 20.215 1.13.188 2.28.386 3.447.595z"/>
    <path fill="#FBF6F9" d="M640.607 724.284c73.393-16.069 39.319 31.558 87.468 40.943 41.589 8.106 102.902 96.364 183.94 264.773h-400c14.367-188.187 57.23-290.092 128.592-305.716z"/>
    <path fill="#F9EEF5" d="M1833.895 381.469c-44.393 0-68.435 77.494-148.645 93.13-69.281 13.507-177.647 198.64-325.098 555.401H2026.5c-8.226-432.354-72.428-648.531-192.605-648.531zM.348 263.988c44.128 0 92.676 16.596 162.261 105.348 5.289 6.745 29.85 48.733 73.685 125.965C279.233 570.954 385.19 749.187 554.164 1030h-941.676C-237.114 519.326-107.828 263.988.348 263.988z"/>
    <g fill="#ECDAE8">
      <path d="M468 459a13.309 13.309 0 0 1 12.55-8.824c.418 0 .83.02 1.237.057a15.97 15.97 0 0 1 14.636-10.639A25.739 25.739 0 0 1 517.274 429c12.088 0 22.229 8.29 24.988 19.466a15.993 15.993 0 0 1 6.296-1.282c7.407 0 13.636 5.014 15.442 11.816h-96zM1063 599c2.628-5.905 8.55-10.022 15.433-10.022 1.627 0 3.2.23 4.689.66 1.61-7.64 8.394-13.376 16.519-13.376 1.706 0 3.353.253 4.906.724 4.07-14.974 17.769-25.986 34.041-25.986 13.34 0 24.951 7.4 30.945 18.318a27.982 27.982 0 0 1 5.997-.647c11.825 0 21.93 7.363 25.974 17.751 2.4-.673 4.93-1.033 7.545-1.033 10.184 0 19.091 5.46 23.951 13.611h-170zM264 342c3.153-7.135 10.259-12.11 18.52-12.11 1.952 0 3.84.278 5.626.797 1.933-9.232 10.074-16.162 19.823-16.162 2.048 0 4.024.306 5.887.874C318.74 297.306 335.18 284 354.706 284c16.008 0 29.941 8.943 37.133 22.134a33.356 33.356 0 0 1 7.197-.781c14.19 0 26.316 8.896 31.169 21.449a33.266 33.266 0 0 1 9.054-1.248c12.22 0 22.91 6.597 28.741 16.446H264zM569 535c.827-3.767 4.202-6.588 8.24-6.588 1.333 0 2.594.307 3.715.854 2.102-6.534 8.262-11.266 15.534-11.266 6.315 0 11.79 3.567 14.5 8.784a10.128 10.128 0 0 1 7.469 4.906c.61-.114 1.24-.174 1.882-.174 3.06 0 5.804 1.35 7.66 3.484h-59zM658 438c-.909-2.67-3.427-4.588-6.39-4.588a6.73 6.73 0 0 0-1.77.235C648.27 427.524 642.736 423 636.152 423c-5.235 0-9.806 2.86-12.25 7.111a9.966 9.966 0 0 0-2.822-.405c-3.686 0-6.907 2.002-8.643 4.984a10.015 10.015 0 0 0-1.862-.174A9.965 9.965 0 0 0 603 438h55zM1439 419c-3.635-10.677-13.706-18.353-25.562-18.353-2.449 0-4.821.328-7.077.941-6.287-24.493-28.417-42.588-54.753-42.588-20.942 0-39.225 11.442-48.997 28.446a39.864 39.864 0 0 0-11.29-1.622c-14.744 0-27.627 8.01-34.575 19.936a40.06 40.06 0 0 0-7.447-.695c-12.106 0-22.958 5.4-30.299 13.935h220zM1238 551c-.826-3.767-4.2-6.588-8.238-6.588a8.438 8.438 0 0 0-3.713.854c-2.101-6.534-8.26-11.266-15.53-11.266a16.311 16.311 0 0 0-14.495 8.784 10.122 10.122 0 0 0-7.914 5.756 10.126 10.126 0 0 0-4.453-1.024A10.12 10.12 0 0 0 1176 551h62z"/>
    </g>
    <g>
      <path fill="#ECDAE8" d="M452.652 787.539c42.718-14.473 96.681-25.18 174.184-25.18 152.357 0 294.857 8.974 427.5 26.92 87.797-20.443 174.288-43.927 296.32-43.927 88.719 0 231.167 30.773 427.344 92.32v196.867H0V745.352c107.781 7.112 185.74 13.264 233.879 18.453 79.895 8.612 152.816 16.628 218.773 23.734z"/>
      <path fill="#996189" d="M1835.984 1030c-44.28-50.313-118.924-90.185-223.93-119.617-60.974-17.09-297.883-25.657-363.156-45.266-103.338-31.043-227.465-20.672-359.898-20.672-71.88 0-145.282-31.56-226.496-20.257-46.283 6.44-237.938-12.076-287.098 0-45.903 11.275-221.656 20.257-315.695 61.476-62.693 27.48-89.815 75.591-81.367 144.336h1857.64z"/>
      <path fill="#ECDAE8" d="M459.474 780.82v.087c0 1.3.307 3.665.922 7.093h-7.988c.389-2.957.583-5.115.583-6.474 0-.215-.005-.45-.015-.706h-13.741a.235.235 0 0 1-.206-.348l4.277-7.812h-2.667a.235.235 0 0 1-.207-.348l4.902-8.95h-2.59a.235.235 0 0 1-.206-.349l13.596-24.826a.353.353 0 0 1 .619 0l13.596 24.826a.235.235 0 0 1-.206.349h-2.547l4.902 8.95a.235.235 0 0 1-.207.348h-2.597l4.277 7.812a.235.235 0 0 1-.206.348h-14.29zM509.474 767.82v.087c0 1.3.307 3.665.922 7.093h-7.988c.389-2.957.583-5.115.583-6.474 0-.215-.005-.45-.015-.706h-13.741a.235.235 0 0 1-.206-.348l4.277-7.812h-2.667a.235.235 0 0 1-.207-.348l4.902-8.95h-2.59a.235.235 0 0 1-.206-.349l13.596-24.826a.353.353 0 0 1 .619 0l13.596 24.826a.235.235 0 0 1-.206.349h-2.547l4.902 8.95a.235.235 0 0 1-.207.348h-2.597l4.277 7.812a.235.235 0 0 1-.206.348h-14.29zM623.474 757.82v.087c0 1.3.307 3.665.922 7.093h-7.988c.389-2.957.583-5.115.583-6.474 0-.215-.005-.45-.015-.706h-13.741a.235.235 0 0 1-.206-.348l4.277-7.812h-2.667a.235.235 0 0 1-.207-.348l4.902-8.95h-2.59a.235.235 0 0 1-.206-.349l13.596-24.826a.353.353 0 0 1 .619 0l13.596 24.826a.235.235 0 0 1-.206.349h-2.547l4.902 8.95a.235.235 0 0 1-.207.348h-2.597l4.277 7.812a.235.235 0 0 1-.206.348h-14.29zM667.474 757.82v.087c0 1.3.307 3.665.922 7.093h-7.988c.389-2.957.583-5.115.583-6.474 0-.215-.005-.45-.015-.706h-13.741a.235.235 0 0 1-.206-.348l4.277-7.812h-2.667a.235.235 0 0 1-.207-.348l4.902-8.95h-2.59a.235.235 0 0 1-.206-.349l13.596-24.826a.353.353 0 0 1 .619 0l13.596 24.826a.235.235 0 0 1-.206.349h-2.547l4.902 8.95a.235.235 0 0 1-.207.348h-2.597l4.277 7.812a.235.235 0 0 1-.206.348h-14.29zM747.25 756.66l-.001.126c0 1.873.439 5.278 1.317 10.214h-11.412c.555-4.258.833-7.366.833-9.322 0-.31-.007-.65-.02-1.017h-19.63a.339.339 0 0 1-.297-.5l6.112-11.25h-3.809a.339.339 0 0 1-.297-.5l7.003-12.89h-3.698a.339.339 0 0 1-.297-.5l19.419-35.744a.508.508 0 0 1 .893 0l19.419 35.743a.339.339 0 0 1-.298.5h-3.636l7.003 12.89a.339.339 0 0 1-.297.501h-3.709l6.112 11.25a.339.339 0 0 1-.298.5h-20.413zM789.55 761.825v.075c0 1.119.263 3.152.79 6.1h-6.848c.334-2.543.5-4.399.5-5.568 0-.185-.004-.387-.012-.607h-11.777a.203.203 0 0 1-.178-.3l3.666-6.717h-2.284a.203.203 0 0 1-.179-.3l4.201-7.697h-2.217a.203.203 0 0 1-.179-.3l11.651-21.346a.305.305 0 0 1 .535 0l11.65 21.345a.203.203 0 0 1-.178.301h-2.18l4.2 7.696a.203.203 0 0 1-.178.301h-2.224l3.666 6.717a.203.203 0 0 1-.179.3H789.55zM1133.474 765.82v.087c0 1.3.307 3.665.922 7.093h-7.988c.389-2.957.583-5.115.583-6.474 0-.215-.005-.45-.015-.706h-13.741a.235.235 0 0 1-.206-.348l4.277-7.812h-2.667a.235.235 0 0 1-.207-.348l4.902-8.95h-2.59a.235.235 0 0 1-.206-.349l13.596-24.826a.353.353 0 0 1 .619 0l13.596 24.826a.235.235 0 0 1-.206.349h-2.547l4.902 8.95a.235.235 0 0 1-.207.348h-2.597l4.277 7.812a.235.235 0 0 1-.206.348h-14.29zM1176.077 758c.018 1.33.326 3.663.923 7h-8c.39-2.97.584-5.136.584-6.5 0-.156-.002-.323-.007-.5h-13.18a.235.235 0 0 1-.207-.348l4.185-7.652h-2.983a.235.235 0 0 1-.208-.346L1161.8 741h-2.406a.235.235 0 0 1-.207-.347l13.502-25.076a.353.353 0 0 1 .622 0l13.502 25.076a.235.235 0 0 1-.207.347h-2.406l4.616 8.654a.235.235 0 0 1-.208.346h-1.983l4.185 7.652a.235.235 0 0 1-.207.348h-14.526zM1338.474 739.82v.087c0 1.3.307 3.665.922 7.093h-7.988c.389-2.957.583-5.115.583-6.474 0-.215-.005-.45-.015-.706h-13.741a.235.235 0 0 1-.206-.348l4.277-7.812h-2.667a.235.235 0 0 1-.207-.348l4.902-8.95h-2.59a.235.235 0 0 1-.206-.349l13.596-24.826a.353.353 0 0 1 .619 0l13.596 24.826a.235.235 0 0 1-.206.349h-2.547l4.902 8.95a.235.235 0 0 1-.207.348h-2.597l4.277 7.812a.235.235 0 0 1-.206.348h-14.29zM1375.625 741.974v.06c0 .911.219 2.567.658 4.966h-5.706c.278-2.07.417-3.58.417-4.532 0-.15-.004-.315-.01-.494h-9.82a.165.165 0 0 1-.143-.245l3.055-5.467h-1.908a.165.165 0 0 1-.144-.245l3.5-6.264h-1.852a.165.165 0 0 1-.144-.245l9.716-17.387a.247.247 0 0 1 .431 0l9.716 17.387a.165.165 0 0 1-.143.245h-1.822l3.5 6.264a.165.165 0 0 1-.144.245h-1.858l3.055 5.467a.165.165 0 0 1-.144.245h-10.21zM1489.625 756.974v.06c0 .911.219 2.567.658 4.966h-5.706c.278-2.07.417-3.58.417-4.532 0-.15-.004-.315-.01-.494h-9.82a.165.165 0 0 1-.143-.245l3.055-5.467h-1.908a.165.165 0 0 1-.144-.245l3.5-6.264h-1.852a.165.165 0 0 1-.144-.245l9.716-17.387a.247.247 0 0 1 .431 0l9.716 17.387a.165.165 0 0 1-.143.245h-1.822l3.5 6.264a.165.165 0 0 1-.144.245h-1.858l3.055 5.467a.165.165 0 0 1-.144.245h-10.21zM1003.474 776.82v.087c0 1.3.307 3.665.922 7.093h-7.988c.389-2.957.583-5.115.583-6.474 0-.215-.005-.45-.015-.706h-13.741a.235.235 0 0 1-.206-.348l4.277-7.812h-2.667a.235.235 0 0 1-.207-.348l4.902-8.95h-2.59a.235.235 0 0 1-.206-.349l13.596-24.826a.353.353 0 0 1 .619 0l13.596 24.826a.235.235 0 0 1-.206.349h-2.547l4.902 8.95a.235.235 0 0 1-.207.348h-2.597l4.277 7.812a.235.235 0 0 1-.206.348h-14.29zM1049.474 782.82v.087c0 1.3.307 3.665.922 7.093h-7.988c.389-2.957.583-5.115.583-6.474 0-.215-.005-.45-.015-.706h-13.741a.235.235 0 0 1-.206-.348l4.277-7.812h-2.667a.235.235 0 0 1-.207-.348l4.902-8.95h-2.59a.235.235 0 0 1-.206-.349l13.596-24.826a.353.353 0 0 1 .619 0l13.596 24.826a.235.235 0 0 1-.206.349h-2.547l4.902 8.95a.235.235 0 0 1-.207.348h-2.597l4.277 7.812a.235.235 0 0 1-.206.348h-14.29zM1225.53 751.41v.043c0 .65.158 1.833.474 3.547h-4.109c.2-1.479.3-2.558.3-3.237 0-.108-.002-.225-.007-.353h-7.07a.118.118 0 0 1-.103-.175l2.2-3.905h-1.375a.118.118 0 0 1-.103-.175l2.52-4.474h-1.334a.118.118 0 0 1-.103-.176l6.997-12.421a.176.176 0 0 1 .308 0l6.997 12.421a.118.118 0 0 1-.103.176h-1.313l2.52 4.474a.118.118 0 0 1-.102.175h-1.339l2.2 3.905a.118.118 0 0 1-.103.175h-7.352z"/>
      <g fill="#996189">
        <path d="M491.63 752.023H389.197l10.068 53.618h114.637z"/>
        <path d="M375.001 804.733v28.997h128.4v-28.996zM389.001 744.733v14H400v-14z"/>
        <path d="M378.895 752.023h111.87l-7.818 53.618H364.055z"/>
      </g>
      <g fill="#996189" transform="translate(355 677)">
        <rect width="14.583" height="8.684" x="14.583" y="46.316" rx="4.342"/>
        <rect width="23.333" height="8.684" y="31.842" rx="4.342"/>
        <rect width="14.583" height="8.684" x="20.417" y="17.368" rx="4.342"/>
        <rect width="17.5" height="8.684" x="8.75" rx="4.342"/>
      </g>
      <g fill="#996189">
        <path d="M188.119 840.353l-.001.177c0 2.654.632 7.477 1.897 14.47H173.58c.8-6.033 1.2-10.435 1.2-13.207 0-.439-.01-.92-.03-1.44H146.48a.48.48 0 0 1-.42-.712l8.799-15.934h-5.491a.48.48 0 0 1-.42-.712l10.082-18.257h-5.33a.48.48 0 0 1-.42-.712l27.973-50.657a.72.72 0 0 1 1.26 0l27.975 50.657a.48.48 0 0 1-.42.712h-5.242l10.082 18.257a.48.48 0 0 1-.42.712h-5.347l8.8 15.934a.48.48 0 0 1-.421.712h-29.401zM285.119 828.353l-.001.177c0 2.654.632 7.477 1.897 14.47H270.58c.8-6.033 1.2-10.435 1.2-13.207 0-.439-.01-.92-.03-1.44H243.48a.48.48 0 0 1-.42-.712l8.799-15.934h-5.491a.48.48 0 0 1-.42-.712l10.082-18.257h-5.33a.48.48 0 0 1-.42-.712l27.973-50.657a.72.72 0 0 1 1.26 0l27.975 50.657a.48.48 0 0 1-.42.712h-5.242l10.082 18.257a.48.48 0 0 1-.42.712h-5.347l8.8 15.934a.48.48 0 0 1-.421.712h-29.401zM588.119 814.353l-.001.177c0 2.654.632 7.477 1.897 14.47H573.58c.8-6.033 1.2-10.435 1.2-13.207 0-.439-.01-.92-.03-1.44H546.48a.48.48 0 0 1-.42-.712l8.799-15.934h-5.491a.48.48 0 0 1-.42-.712l10.082-18.257h-5.33a.48.48 0 0 1-.42-.712l27.973-50.657a.72.72 0 0 1 1.26 0l27.975 50.657a.48.48 0 0 1-.42.712h-5.242l10.082 18.257a.48.48 0 0 1-.42.712h-5.347l8.8 15.934a.48.48 0 0 1-.421.712h-29.401zM653.25 816.804l-.001.124c0 1.847.439 5.205 1.317 10.072h-11.412c.555-4.2.833-7.263.833-9.193 0-.306-.007-.64-.02-1.003h-19.63a.336.336 0 0 1-.294-.498l6.109-11.088h-3.81a.336.336 0 0 1-.294-.498l7-12.707h-3.697a.336.336 0 0 1-.295-.498l19.422-35.251a.504.504 0 0 1 .883 0l19.421 35.251a.336.336 0 0 1-.294.498h-3.637l7 12.707a.336.336 0 0 1-.294.498h-3.709l6.11 11.088a.336.336 0 0 1-.295.498h-20.414zM1308.119 864.353l-.001.177c0 2.654.632 7.477 1.897 14.47h-16.434c.8-6.033 1.2-10.435 1.2-13.207 0-.439-.01-.92-.03-1.44h-28.271a.48.48 0 0 1-.42-.712l8.799-15.934h-5.491a.48.48 0 0 1-.42-.712l10.082-18.257h-5.33a.48.48 0 0 1-.42-.712l27.973-50.657a.72.72 0 0 1 1.26 0l27.975 50.657a.48.48 0 0 1-.42.712h-5.242l10.082 18.257a.48.48 0 0 1-.42.712h-5.347l8.8 15.934a.48.48 0 0 1-.421.712h-29.401zM1370.25 874.804l-.002.124c0 1.847.44 5.205 1.318 10.072h-11.412c.555-4.2.833-7.263.833-9.193 0-.306-.007-.64-.02-1.003h-19.63a.336.336 0 0 1-.294-.498l6.109-11.088h-3.81a.336.336 0 0 1-.294-.498l7-12.707h-3.697a.336.336 0 0 1-.295-.498l19.422-35.251a.504.504 0 0 1 .883 0l19.421 35.251a.336.336 0 0 1-.294.498h-3.637l7 12.707a.336.336 0 0 1-.294.498h-3.709l6.11 11.088a.336.336 0 0 1-.295.498h-20.414zM1431.25 879.804l-.002.124c0 1.847.44 5.205 1.318 10.072h-11.412c.555-4.2.833-7.263.833-9.193 0-.306-.007-.64-.02-1.003h-19.63a.336.336 0 0 1-.294-.498l6.109-11.088h-3.81a.336.336 0 0 1-.294-.498l7-12.707h-3.697a.336.336 0 0 1-.295-.498l19.422-35.251a.504.504 0 0 1 .883 0l19.421 35.251a.336.336 0 0 1-.294.498h-3.637l7 12.707a.336.336 0 0 1-.294.498h-3.709l6.11 11.088a.336.336 0 0 1-.295.498h-20.414zM123.25 857.804l-.002.124c0 1.847.44 5.205 1.318 10.072h-11.412c.555-4.2.833-7.263.833-9.193 0-.306-.007-.64-.02-1.003h-19.63a.336.336 0 0 1-.294-.498l6.109-11.088h-3.81a.336.336 0 0 1-.294-.498l7-12.707h-3.697a.336.336 0 0 1-.295-.498l19.422-35.251a.504.504 0 0 1 .883 0l19.421 35.251a.336.336 0 0 1-.294.498h-3.637l7 12.707a.336.336 0 0 1-.294.498h-3.709l6.11 11.088a.336.336 0 0 1-.295.498h-20.414z"/>
      </g>
    </g>
    <g fill="#CA9EBE">
      <path d="M360.826 466.223c6.657-3.032 12.494-4.901 17.51-5.606 5.017-.705 11.12-.666 18.31.117-.778-6.75-5.902-9.46-15.37-8.13-9.47 1.33-16.286 5.87-20.45 13.62z"/>
      <path d="M353.327 450.672c7.34-3.352 13.402-3.757 18.185-1.213 4.783 2.544 8.005 5.958 9.667 10.242l-14.125 1.985c-.24-1.702-1.319-3.333-3.239-4.893-1.92-1.56-5.415-3.601-10.488-6.121z"/>
      <path d="M396.277 448.228c-6.61-2.287-11.862-1.549-15.759 2.215-3.896 3.763-5.803 6.747-5.72 8.952l12.09-1.699c1.425-2.313 2.652-3.987 3.679-5.023 1.027-1.035 2.93-2.517 5.71-4.445z"/>
      <g>
        <path d="M411.294 486.434c5.267-2.372 9.884-3.836 13.85-4.393 3.967-.558 8.791-.539 14.473.058-.603-5.251-4.648-7.35-12.135-6.298-7.488 1.052-12.884 4.597-16.188 10.633z"/>
        <path d="M405.394 474.348c5.808-2.622 10.6-2.947 14.376-.976 3.776 1.97 6.317 4.62 7.623 7.951l-11.169 1.57c-.186-1.324-1.036-2.591-2.55-3.802-1.516-1.21-4.275-2.792-8.28-4.743z"/>
        <path d="M439.347 472.37c-5.22-1.768-9.373-1.184-12.46 1.751-3.087 2.935-4.6 5.26-4.538 6.975l9.56-1.343c1.13-1.802 2.103-3.107 2.917-3.915.814-.807 2.32-1.963 4.521-3.468z"/>
      </g>
      <g>
        <path d="M405.66 426.729c4.376.666 8.081.786 11.115.36 3.033-.426 6.573-1.472 10.62-3.136.679 4.096-1.844 6.547-7.57 7.352-5.725.804-10.447-.72-14.165-4.576z"/>
        <path d="M403.908 437.123c4.827.74 8.417-.039 10.77-2.334 2.354-2.296 3.654-4.842 3.902-7.638l-8.54 1.2c.145 1.04-.209 2.18-1.063 3.418-.854 1.239-2.544 3.023-5.069 5.354z"/>
        <path d="M429.276 431.362c-3.458 2.451-6.634 2.898-9.529 1.34-2.895-1.559-4.503-2.993-4.824-4.302l7.31-1.028c1.216 1.12 2.21 1.899 2.98 2.335.77.437 2.124.988 4.063 1.655z"/>
      </g>
      <g>
        <path d="M438.254 365.987c-3.662-.55-6.762-.648-9.3-.291-2.54.356-5.502 1.229-8.89 2.616-.565-3.407 1.548-5.447 6.34-6.12 4.791-.674 8.741.591 11.85 3.795z"/>
        <path d="M439.727 357.341c-4.038-.611-7.043.038-9.014 1.95-1.97 1.91-3.06 4.03-3.27 6.355l7.147-1.005c-.121-.865.176-1.813.891-2.843.716-1.031 2.131-2.517 4.246-4.457z"/>
        <path d="M418.496 362.15c2.895-2.04 5.553-2.414 7.974-1.12 2.421 1.294 3.766 2.485 4.034 3.574l-6.118.86c-1.017-.93-1.847-1.577-2.492-1.94-.644-.362-1.777-.82-3.398-1.373z"/>
        <g>
          <path d="M448.59 407.55c2.665-1.203 5.001-1.946 7.009-2.228 2.007-.282 4.448-.27 7.324.034-.307-2.668-2.355-3.736-6.143-3.204-3.789.533-6.519 2.332-8.19 5.398z"/>
          <path d="M445.601 401.407c2.939-1.33 5.364-1.494 7.275-.492 1.912 1.003 3.199 2.35 3.86 4.043l-5.651.794c-.095-.672-.525-1.317-1.292-1.932-.767-.616-2.164-1.42-4.192-2.413z"/>
          <path d="M462.784 400.412c-2.643-.9-4.744-.604-6.306.886-1.56 1.49-2.326 2.672-2.294 3.543l4.837-.68c.572-.915 1.064-1.578 1.475-1.988.412-.41 1.174-.997 2.288-1.761z"/>
        </g>
        <g>
          <path d="M446.493 382.696c2.035-.938 3.82-1.514 5.355-1.73 1.535-.216 3.403-.2 5.604.048-.242-2.096-1.812-2.941-4.71-2.534-2.896.407-4.98 1.812-6.25 4.216z"/>
          <path d="M444.188 377.863c2.244-1.037 4.1-1.158 5.565-.366 1.465.793 2.453 1.855 2.965 3.187l-4.322.607c-.074-.529-.406-1.036-.994-1.522-.589-.485-1.66-1.12-3.214-1.906z"/>
          <path d="M457.331 377.131c-2.024-.714-3.631-.488-4.821.678s-1.772 2.09-1.745 2.776l3.699-.52c.435-.718.809-1.237 1.123-1.557.313-.321.895-.78 1.744-1.377z"/>
        </g>
      </g>
    </g>
  </g>
</svg>
