<svg width="25px" height="18px" viewBox="0 0 25 18" version="1.1" xmlns="http://www.w3.org/2000/svg" xmlns:xlink="http://www.w3.org/1999/xlink">
    <g id="Page-1" stroke="none" stroke-width="1" fill="none" fill-rule="evenodd">
        <g id="Artboard" transform="translate(-5.000000, -3.000000)" fill="#ffffff">
            <g id="ic_input_black_24px" transform="translate(15.000000, 12.000000) scale(-1, -1) translate(-15.000000, -12.000000) ">
                <path d="M23.3636364,3.01 L8.63636364,3.01 C7.73636364,3.01 7,3.91 7,5.01 L7,9 L8.63636364,9 L8.63636364,4.99 L23.3636364,4.99 L23.3636364,19.02 L8.63636364,19.02 L8.63636364,15 L7,15 L7,19.01 C7,20.11 7.73636364,20.99 8.63636364,20.99 L23.3636364,20.99 C24.2636364,20.99 25,20.11 25,19.01 L25,5.01 C25,3.9 24.2636364,3.01 23.3636364,3.01 L23.3636364,3.01 Z M4,16.01 L-1.77635684e-15,12.01 L4,8.01 L4,11.01 L14,11.01 L14,13.01 L4,13.01 L4,16.01 L4,16.01 Z" id="Shape"></path>
            </g>
        </g>
    </g>
</svg>
