<?xml version="1.0" encoding="UTF-8" standalone="no"?>
<svg width="14px" height="14px" viewBox="0 0 14 14" version="1.1" xmlns="http://www.w3.org/2000/svg" xmlns:xlink="http://www.w3.org/1999/xlink">
    <!-- Generator: Sketch 39.1 (31720) - http://www.bohemiancoding.com/sketch -->
    <title>Shape Copy 5</title>
    <desc>Created with Sketch.</desc>
    <defs></defs>
    <g id="Log-In" stroke="none" stroke-width="1" fill="none" fill-rule="evenodd">
        <g id="Logged-in-Menu-Copy" transform="translate(-103.000000, -380.000000)" fill="#3A3A3A">
            <path d="M110.777778,380 L109.222222,380 L109.222222,387.777778 L110.777778,387.777778 L110.777778,380 L110.777778,380 Z M114.534444,381.687778 L113.43,382.792222 C114.658889,383.78 115.444444,385.296667 115.444444,387 C115.444444,390.01 113.01,392.444444 110,392.444444 C106.99,392.444444 104.555556,390.01 104.555556,387 C104.555556,385.296667 105.341111,383.78 106.562222,382.784444 L105.465556,381.687778 C103.956667,382.971111 103,384.868889 103,387 C103,390.865556 106.134444,394 110,394 C113.865556,394 117,390.865556 117,387 C117,384.868889 116.043333,382.971111 114.534444,381.687778 L114.534444,381.687778 Z" id="Shape-Copy-5"></path>
        </g>
    </g>
</svg>