<?xml version="1.0" encoding="UTF-8" standalone="no"?>
<svg width="15px" height="19px" viewBox="0 0 15 19" version="1.1" xmlns="http://www.w3.org/2000/svg" xmlns:xlink="http://www.w3.org/1999/xlink">
    <!-- Generator: Sketch 39.1 (31720) - http://www.bohemiancoding.com/sketch -->
    <title>Shape</title>
    <desc>Created with Sketch.</desc>
    <defs></defs>
    <g id="Log-In" stroke="none" stroke-width="1" fill="none" fill-rule="evenodd">
        <g id="Login-Modal--Copy" transform="translate(-426.000000, -291.000000)" fill="#996189">
            <g id="Group" transform="translate(424.000000, 291.000000)">
                <path d="M14.75,6.66500028 L13.875,6.66500028 L13.875,4.93928591 C13.875,2.55780009 11.915,0.625 9.5,0.625 C7.085,0.625 5.125,2.55780009 5.125,4.93928591 L5.125,6.66500028 L4.25,6.66500028 C3.2875,6.66500028 2.5,7.44157174 2.5,8.39071465 L2.5,17.0192865 C2.5,17.9684294 3.2875,18.7450008 4.25,18.7450008 L14.75,18.7450008 C15.7125,18.7450008 16.5,17.9684294 16.5,17.0192865 L16.5,8.39071465 C16.5,7.44157174 15.7125,6.66500028 14.75,6.66500028 L14.75,6.66500028 Z M9.5,14.4307149 C8.5375,14.4307149 7.75,13.6541435 7.75,12.7050006 C7.75,11.7558577 8.5375,10.9792862 9.5,10.9792862 C10.4625,10.9792862 11.25,11.7558577 11.25,12.7050006 C11.25,13.6541435 10.4625,14.4307149 9.5,14.4307149 L9.5,14.4307149 Z M12.2125,6.66500028 L6.7875,6.66500028 L6.7875,4.93928591 C6.7875,3.46380013 8.00375,2.26442865 9.5,2.26442865 C10.99625,2.26442865 12.2125,3.46380013 12.2125,4.93928591 L12.2125,6.66500028 L12.2125,6.66500028 Z" id="Shape"></path>
            </g>
        </g>
    </g>
</svg>