<svg xmlns="http://www.w3.org/2000/svg" xmlns:xlink="http://www.w3.org/1999/xlink" width="1479" height="872">
  <defs>
    <ellipse id="a" cx="17.954" cy="17.776" rx="17.484" ry="17.5"/>
    <ellipse id="b" cx="14.95" cy="25.616" rx="17.484" ry="17.5"/>
    <ellipse id="d" cx="4.68" cy="4.684" rx="4.68" ry="4.684"/>
    <rect id="f" width="103.891" height="14.71" x="2.027" rx="7.355"/>
    <rect id="g" width="103.891" height="14.71" x="2.027" y="21.812" rx="7.355"/>
    <rect id="h" width="103.891" height="14.71" x="2.027" y="43.116" rx="7.355"/>
    <path id="i" d="M0 0h38.18v25.856H0z"/>
    <path id="k" d="M0 0h38.18v25.856H0z"/>
    <ellipse id="m" cx="2.281" cy="2.283" rx="2.281" ry="2.283"/>
    <rect id="n" width="18.244" height="5.58" rx="2.79"/>
    <path id="o" d="M49.086 26.15l-2.12 6.983c.944.63 1.65.944 2.12.944.47 0 1.119-.314 1.948-.944l-1.948-6.983z"/>
    <path id="p" d="M49.086 26.15l-2.12 6.983c.944.63 1.65.944 2.12.944.47 0 1.119-.314 1.948-.944l-1.948-6.983z"/>
    <rect id="q" width="14.941" height="52.413" x="3.548" y="29.761" rx="3.65"/>
    <rect id="r" width="14.941" height="61.859" x="24.582" y="19.807" rx="3.65"/>
    <rect id="s" width="14.941" height="39.31" x="44.097" y="42.357" rx="3.65"/>
    <rect id="t" width="14.941" height="81.667" x="63.611" rx="3.65"/>
  </defs>
  <g fill="none" fill-rule="evenodd" opacity=".2">
    <g stroke="#000" opacity=".997">
      <path fill="#FFF" stroke-linecap="round" stroke-width="2.534" d="M1006.555 468.866l4.076 22.59c13.81-7.425 24.923-14.956 33.335-22.59 8.412-7.635 11.46-13.116 9.143-16.441l-46.554 16.44z"/>
      <path fill="#FFF" stroke-linecap="round" stroke-width="2.534" d="M996.109 457.223l10.591 11.371 41.983-13.566-34.555 20.888 26.99 19.834 24.863-52.273z"/>
      <path stroke-linecap="round" stroke-width="1.521" d="M1012.584 490.3l11.89-6.962-11.89 6.962z"/>
      <path stroke-linecap="square" stroke-width="2.028" d="M1012.814 476.786l-.458 12.976"/>
    </g>
    <g opacity=".997" transform="rotate(117 579.538 724.147)">
      <ellipse cx="24.935" cy="44.638" fill="none" stroke="#000" stroke-linecap="round" stroke-width="3.548" rx="7.837" ry="44.638"/>
      <ellipse cx="24.579" cy="46.409" fill="#FFF" stroke="#000" stroke-linecap="round" stroke-width="4.258" rx="24.579" ry="24.444"/>
      <ellipse cx="21.101" cy="37.644" fill="#996189" rx="11.84" ry="11.775"/>
      <ellipse cx="30.98" cy="56.578" fill="#996189" rx="7.718" ry="7.676"/>
      <path stroke="#000" stroke-linecap="round" stroke-width="3.548" d="M32 23.087c.532 11.994.799 19.948.799 23.861 0 3.913-.401 11.49-1.203 22.733"/>
    </g>
    <g opacity=".997">
      <g stroke-linecap="round" transform="rotate(44 -45.533 692.95)">
        <ellipse cx="17.738" cy="31.957" fill="none" stroke="#000" stroke-width="2.534" rx="5.575" ry="31.957"/>
        <ellipse cx="17.484" cy="33.225" fill="#FFF" stroke="#000" stroke-width="3.041" rx="17.484" ry="17.5"/>
        <ellipse cx="12.416" cy="30.688" fill="#996189" stroke="#0E0E0E" stroke-width="2.028" rx="5.828" ry="5.833"/>
        <ellipse cx="16.656" cy="41.427" fill="#996189" stroke="#0E0E0E" stroke-width="1.521" rx="2.534" ry="2.536"/>
        <path stroke="#000" stroke-width="2.534" d="M22.762 16.528c.38 8.587.569 14.281.569 17.083 0 2.8-.285 8.226-.856 16.274"/>
      </g>
      <g transform="rotate(44 -46.563 630.387)">
        <use fill="#D5BCCE" xlink:href="#a"/>
        <mask id="c" fill="#fff">
          <use xlink:href="#b"/>
        </mask>
        <g stroke-linecap="round">
          <use fill="#FFF" xlink:href="#b"/>
          <ellipse cx="14.95" cy="25.616" stroke="#000" stroke-width="3.041" rx="19.005" ry="19.021"/>
        </g>
        <ellipse cx="11.216" cy="39.4" fill="#996189" mask="url(#c)" rx="6.381" ry="6.387"/>
        <ellipse cx="24.919" cy="38.292" fill="#996189" mask="url(#c)" rx="2.068" ry="2.07"/>
        <ellipse cx="4.545" cy="16.72" fill="#996189" mask="url(#c)" rx="12.686" ry="12.697"/>
      </g>
      <g transform="rotate(44 -112.908 658.733)">
        <mask id="e" fill="#fff">
          <use xlink:href="#d"/>
        </mask>
        <g stroke-linecap="round">
          <use fill="#FFF" xlink:href="#d"/>
          <ellipse cx="4.68" cy="4.684" stroke="#000" stroke-width="3.041" rx="6.2" ry="6.205"/>
        </g>
        <ellipse cx="3.68" cy="8.374" fill="#996189" mask="url(#e)" rx="1.708" ry="1.709"/>
        <ellipse cx="7.348" cy="8.077" fill="#996189" mask="url(#e)" rx="1" ry="1"/>
        <ellipse cx="1.895" cy="2.303" fill="#996189" mask="url(#e)" rx="3.395" ry="3.398"/>
      </g>
    </g>
    <g stroke="#000" opacity=".997">
      <path fill="#FFF" stroke-linecap="round" stroke-width="2.534" d="M175.621 508.57l19.333 4.11-15.82 74.424-19.332-4.11z"/>
      <path stroke-linecap="square" stroke-width="1.521" d="M174.324 517.11l7.931 1.686M173.48 521.08l9.915 2.107M172.637 525.049l7.931 1.686M169.262 540.926l7.931 1.686M171.793 529.018l11.897 2.529M170.95 532.987l7.93 1.686M170.105 536.957l7.932 1.685M165.887 556.803l7.931 1.686M168.418 544.895l11.897 2.529M167.574 548.864l7.932 1.686M166.73 552.834l7.932 1.686"/>
      <g stroke-linecap="round" stroke-width="2.534">
        <path fill="#FFF" d="M201.23 519.718c3.061-3.783 5.164-5.553 6.31-5.31 1.144.244 2.346 2.716 3.604 7.417l-14.66 68.966-9.914-2.107 14.66-68.966z"/>
        <path fill="#FFF" d="M201.23 519.718c3.061-3.783 5.164-5.553 6.31-5.31 1.144.244 2.346 2.716 3.604 7.417l-.836 3.932-9.914-2.107.835-3.932z"/>
        <path fill="#996189" d="M190.066 572.24l9.914 2.107-2.124 9.994-9.915-2.107z"/>
      </g>
      <g stroke-linecap="round" stroke-width="2.534">
        <path fill="#FFF" d="M213.718 538.966c3.061-3.782 5.164-5.552 6.31-5.309 1.144.244 2.346 2.716 3.604 7.417l-11.289 53.11-9.914-2.108 11.289-53.11z"/>
        <path fill="#FFF" d="M213.718 538.966c3.061-3.782 5.164-5.552 6.31-5.309 1.144.244 2.346 2.716 3.604 7.417l-.836 3.932-9.914-2.107.836-3.933z"/>
        <path fill="#996189" d="M205.928 575.613l9.915 2.107-2.125 9.994-9.914-2.108z"/>
      </g>
      <g fill="#996189" stroke-linecap="round" stroke-width="2.534">
        <path d="M224.53 573.416l6.938 1.475a1.52 1.52 0 0 1 1.172 1.804l-4.22 19.848a1.014 1.014 0 0 1-1.202.781l-7.93-1.686a1.014 1.014 0 0 1-.781-1.202l4.218-19.848a1.52 1.52 0 0 1 1.804-1.172z"/>
      </g>
    </g>
    <g opacity=".997" transform="translate(96 209)">
      <rect width="96.29" height="11.667" y="4.565" fill="#996189" rx="5.833"/>
      <rect width="66.896" height="11.667" y="26.377" fill="#996189" rx="5.833"/>
      <rect width="43.584" height="11.667" y="47.681" fill="#996189" rx="5.833"/>
      <use fill="#FFF" fill-opacity="0" xlink:href="#f"/>
      <rect width="101.357" height="12.176" x="3.294" y="1.267" stroke="#000" stroke-width="2.534" rx="6.088"/>
      <use fill="#FFF" fill-opacity="0" xlink:href="#g"/>
      <rect width="101.357" height="12.176" x="3.294" y="23.079" stroke="#000" stroke-width="2.534" rx="6.088"/>
      <g>
        <use fill="#FFF" fill-opacity="0" xlink:href="#h"/>
        <rect width="101.357" height="12.176" x="3.294" y="44.383" stroke="#000" stroke-width="2.534" rx="6.088"/>
      </g>
    </g>
    <g stroke="#000" stroke-linecap="round" opacity=".997">
      <path fill="#FFF" stroke-width="3.041" d="M274.38 380.362h52.199v58.84H274.38z"/>
      <path fill="#FFF" stroke-width="3.041" d="M272.353 380.362h49.665v62.392h-49.665a2.534 2.534 0 0 1-2.534-2.535v-57.322c0-1.4 1.135-2.535 2.534-2.535z"/>
      <path fill="#996189" stroke-width="2.028" d="M302.253 377.319h12.163v15.725l-6.081-2.878-6.082 2.878z"/>
    </g>
    <g stroke="#000" stroke-linecap="round" opacity=".997">
      <path fill="#996189" stroke-width="2.433" d="M1043.635 133.098l23.067-19.33 24.649 46.813-35.864 13.527-12.233-39.72a1.217 1.217 0 0 1 .381-1.29z"/>
      <path fill="#996189" stroke-width="2.433" d="M1043.902 133.145l32.846-17.505 14.603 44.941-35.864 13.527-12.175-39.532a1.217 1.217 0 0 1 .59-1.431z"/>
      <path fill="#FFF" stroke-width="2.433" d="M1043.578 133.447l37.594-12.215 14.22 43.764-37.594 12.215a2.028 2.028 0 0 1-2.555-1.302l-12.967-39.907a2.028 2.028 0 0 1 1.302-2.555z"/>
      <path fill="#996189" stroke-width="1.622" d="M1056.068 136.667l18.801-6.109 3.398 10.457-18.802 6.109z"/>
      <path fill="#FFF" stroke-width="1.622" d="M1043.578 133.447l2.292-.745 14.22 43.764-2.292.745a2.028 2.028 0 0 1-2.555-1.302l-12.967-39.907a2.028 2.028 0 0 1 1.302-2.555z"/>
    </g>
    <g opacity=".997" transform="translate(272 113)">
      <rect width="54.733" height="29.42" y="4.058" fill="#D5BCCE" rx="3.041"/>
      <rect width="54.733" height="29.42" x="4.054" fill="#FFF" stroke="#000" stroke-linecap="round" stroke-width="2.534" rx="3.041"/>
      <path fill="#996189" stroke="#000" stroke-linecap="round" stroke-width="2.028" d="M25.34 8.355v12.416a.507.507 0 0 0 .722.458l13.071-6.149a.507.507 0 0 0 .004-.916L26.065 7.898a.507.507 0 0 0-.726.457z"/>
    </g>
    <g opacity=".997" transform="rotate(19 578.975 4181.944)">
      <rect width="54.733" height="29.42" y="4.058" fill="#D5BCCE" rx="3.041"/>
      <rect width="54.733" height="29.42" x="4.054" fill="#FFF" stroke="#000" stroke-linecap="round" stroke-width="2.534" rx="3.041"/>
      <path fill="#996189" stroke="#000" stroke-linecap="round" stroke-width="2.028" d="M25.34 8.355v12.416a.507.507 0 0 0 .722.458l13.071-6.149a.507.507 0 0 0 .004-.916L26.065 7.898a.507.507 0 0 0-.726.457z"/>
    </g>
    <g opacity=".997" transform="translate(745 570)">
      <path fill="#D5BCCE" d="M0 0h68.923v60.362H0z"/>
      <path fill="#FFF" stroke="#000" stroke-linecap="round" stroke-width="3.041" d="M5.575 7.101h68.923v47.174H5.575z"/>
      <ellipse cx="30.154" cy="23.587" fill="#000" rx="4.308" ry="4.312"/>
      <ellipse cx="50.425" cy="23.587" fill="#000" rx="4.308" ry="4.312"/>
      <path stroke="#000" stroke-linecap="round" stroke-width="2.534" d="M28.887 39.565c4.28 1.353 7.92 2.03 10.923 2.03s6.794-.677 11.376-2.03"/>
    </g>
    <g stroke-linecap="round" opacity=".997" transform="rotate(44 -500.968 1646.112)">
      <path stroke="#141313" stroke-width="2.028" d="M12.3 31.017h3.507v19.131H12.3v-19.13zm.876-3.118h1.774v3.043h-1.774v-3.043z"/>
      <ellipse cx="13.937" cy="13.949" fill="#FFF" stroke="#000" stroke-width="2.534" rx="13.937" ry="13.949"/>
      <path fill="#FFF" stroke="#000" stroke-width="1.521" d="M13.937 24.348c5.737 0 10.389-4.656 10.389-10.399 0-5.743-4.652-10.398-10.39-10.398-.635 0-1.257.057-1.86.166A10.4 10.4 0 0 0 3.547 13.95c0 5.743 4.65 10.399 10.389 10.399z"/>
    </g>
    <g stroke-linecap="round" opacity=".997" transform="translate(244 806)">
      <rect width="52.199" height="63.913" fill="#996189" stroke="#000" stroke-width="2.433" rx=".406"/>
      <rect width="42.57" height="53.261" x="5.068" y="5.072" fill="#FFF" stroke="#000" stroke-width="2.028" rx=".406"/>
      <path stroke="#996189" stroke-width="1.521" d="M14.774 13.295c23.202 2.156 29.922 7.165 20.159 15.027-14.645 11.792-11.551 15.999 0 20.742"/>
      <g stroke="#000" stroke-width="2.534">
        <path fill="#996189" d="M49.743 53.323c-3.905-.03-6.184-.53-6.838-1.5-.655-.971-.265-3.272 1.17-6.903l33.422-22.544 5.668 8.403-33.422 22.544z"/>
        <path fill="#FFF" d="M49.637 53.394c-3.834-.077-6.078-.601-6.732-1.572-.655-.97-.3-3.247 1.064-6.83l2.41-1.626 5.667 8.403-2.409 1.625z"/>
      </g>
    </g>
    <g opacity=".997" transform="translate(651 713)">
      <path stroke="#000" stroke-linecap="round" stroke-width="2.534" d="M2.13 55.367h20.756a2.028 2.028 0 0 0 1.943-2.607l-8.581-28.796v-4.24H8.22v4.24L.177 52.794a2.028 2.028 0 0 0 1.953 2.573z"/>
      <path fill="#996189" d="M6.353 51.123h12.762a1.014 1.014 0 0 0 .965-1.324l-1.453-4.51a1.014 1.014 0 0 0-.437-.555l-8.684-5.292A1.014 1.014 0 0 0 8 40.046l-2.625 9.801a1.014 1.014 0 0 0 .98 1.276z"/>
      <ellipse cx="14.443" cy="12.935" fill="#996189" stroke="#000" stroke-linecap="round" stroke-width="1.521" rx="1.774" ry="1.775"/>
      <ellipse cx="10.389" cy="7.355" fill="#996189" stroke="#000" stroke-linecap="round" stroke-width="1.521" rx="1.774" ry="1.775"/>
      <ellipse cx="19.258" cy="4.565" fill="#996189" stroke="#000" stroke-linecap="round" stroke-width="1.521" rx="4.561" ry="4.565"/>
    </g>
    <g opacity=".997" transform="rotate(42 228.362 577.175)">
      <ellipse cx="9.116" cy="34.997" fill="#D5BCCE" rx="8.615" ry="8.623"/>
      <ellipse cx="51.308" cy="44.753" fill="#D5BCCE" rx="8.615" ry="8.623"/>
      <ellipse cx="58.156" cy="9.914" fill="#D5BCCE" rx="8.615" ry="8.623"/>
      <ellipse cx="14.209" cy="67.949" fill="#D5BCCE" rx="8.615" ry="8.623"/>
      <path stroke="#000" stroke-linecap="square" stroke-width="3.041" d="M11.403 77.862V35.254M55.747 45.652l-45.611-14.71M53.72 46.16V19.274"/>
      <ellipse cx="11.149" cy="30.435" fill="#996189" stroke="#000" stroke-linecap="round" stroke-width="2.534" rx="8.615" ry="8.623"/>
      <ellipse cx="8.615" cy="8.623" fill="#FFF" stroke="#000" stroke-linecap="round" stroke-width="2.534" rx="8.615" ry="8.623" transform="translate(2.534 60.87)"/>
      <ellipse cx="8.615" cy="8.623" fill="#FFF" stroke="#000" stroke-linecap="round" stroke-width="2.534" rx="8.615" ry="8.623" transform="translate(45.61 37.536)"/>
      <ellipse cx="8.615" cy="8.623" fill="#996189" stroke="#000" stroke-linecap="round" stroke-width="2.534" rx="8.615" ry="8.623" transform="translate(45.104)"/>
    </g>
    <g opacity=".997">
      <g stroke="#000" stroke-linecap="round">
        <path fill="#996189" stroke-width="2.534" d="M471.88 756.418l-18.454-12.921a3.041 3.041 0 0 1 .045-5.014c5.575-3.755 10.79-6.414 15.647-7.977 5.886-1.894 13.179-2.358 21.879-1.39l-19.118 27.302z"/>
        <path fill="#7F5172" stroke-width="2.534" d="M488.18 767.832l18.453 12.92a3.041 3.041 0 0 0 4.696-1.756c1.623-6.523 2.338-12.334 2.145-17.432-.233-6.179-2.292-13.19-6.176-21.035l-19.118 27.303z"/>
        <path fill="#D5BCCE" stroke-width="2.028" d="M483.21 780.886l2.403-6.494-18.85-13.2-5.115 4.607a.406.406 0 0 0-.023.58c3.994 4.198 7.174 7.125 9.54 8.782 2.364 1.655 6.198 3.64 11.502 5.956a.406.406 0 0 0 .543-.231z"/>
        <path fill="#FFF" stroke-width="2.534" d="M464.884 758.886c4.674 4.61 8.304 7.82 10.89 9.631 2.586 1.811 6.844 4.124 12.775 6.94l38.854-55.49c3.029-12.72 2.571-20.461-1.373-23.223-3.944-2.762-11.375-.544-22.292 6.652l-38.854 55.49z"/>
      </g>
      <g transform="rotate(35 -839.49 1158.325)">
        <path fill="#D5BCCE" d="M15.079.43v81.18c2.395-.282 4.207-.488 5.435-.619 1.228-.13 3.077-.334 5.548-.613V15.975c-2.142-4.977-3.991-8.568-5.548-10.771-1.557-2.203-3.369-3.795-5.435-4.774z" opacity=".386"/>
        <ellipse cx="14.19" cy="24.348" fill="#FFF" stroke="#000" stroke-linecap="round" stroke-width="2.028" rx="6.081" ry="6.087"/>
        <path fill="#000" stroke="#000" stroke-linecap="round" stroke-width="1.521" d="M.43 37.236c6.142 1.25 10.806 1.875 13.991 1.875 3.186 0 7.826-.625 13.921-1.875v4.68c-6.063 1.25-10.703 1.876-13.92 1.876-3.219 0-7.882-.625-13.991-1.875v-4.681z"/>
        <rect width="4.561" height="30.435" x="11.656" y="48.696" fill="#996189" stroke="#000" stroke-linecap="round" stroke-width="2.028" rx="1.521"/>
        <path stroke="#000" stroke-linecap="round" stroke-width="2.534" d="M9.376 98.152v9.638M13.937 101.196v9.637M18.498 97.138v6.087"/>
      </g>
    </g>
    <g opacity=".997">
      <g transform="rotate(5 268.418 11141.191)">
        <mask id="j" fill="#fff">
          <use xlink:href="#i"/>
        </mask>
        <g stroke-linecap="round">
          <use fill="#FFF" xlink:href="#i"/>
          <path stroke="#000" stroke-width="2.534" d="M-1.267-1.267h40.715v28.39H-1.267z"/>
        </g>
        <ellipse cx="25.29" cy="13.09" fill="#ECE1E9" mask="url(#j)" rx="8.648" ry="8.565"/>
        <path fill="#D5BCCE" d="M24.44 13.018l24.641 17.494H3.786z" mask="url(#j)" transform="matrix(-1 0 0 1 52.867 0)"/>
        <path fill="#996189" d="M10.277 8.666L40.324 27.28h-50.946z" mask="url(#j)"/>
      </g>
      <g transform="rotate(-15 626.942 -3607.869)">
        <mask id="l" fill="#fff">
          <use xlink:href="#k"/>
        </mask>
        <g stroke-linecap="round">
          <use fill="#FFF" xlink:href="#k"/>
          <path stroke="#000" stroke-width="2.534" d="M-1.267-1.267h40.715v28.39H-1.267z"/>
        </g>
        <ellipse cx="25.29" cy="13.09" fill="#996189" mask="url(#l)" opacity=".187" rx="8.648" ry="8.565"/>
        <path fill="#D5BCCE" d="M24.44 13.018l24.641 17.494H3.786z" mask="url(#l)" transform="matrix(-1 0 0 1 52.867 0)"/>
        <path fill="#996189" d="M10.277 8.666L40.324 27.28h-50.946z" mask="url(#l)"/>
      </g>
    </g>
    <g opacity=".997">
      <path stroke="#000" stroke-linecap="round" stroke-width="3.066" d="M201.945 58.826c.378.608 1.814.912 4.307.912 2.494 0 3.93-.304 4.308-.912M202.958 63.391c.29.608 1.388.912 3.294.912 1.907 0 3.005-.304 3.295-.912"/>
      <path fill="#D5BCCE" d="M193.127 47.64c-5.048-2.166-8.616-7.47-8.616-13.669 0-8.124 6.127-14.71 13.684-14.71 7.557 0 13.683 6.586 13.683 14.71 0 6.2-3.567 11.503-8.616 13.668v1.296a3.804 3.804 0 0 1-3.804 3.804h-2.527a3.804 3.804 0 0 1-3.804-3.804v-1.296z"/>
      <path fill="#FFF" stroke="#000" stroke-linecap="round" stroke-width="3.066" d="M201.235 50.175c-5.048-2.165-8.615-7.468-8.615-13.668 0-8.124 6.126-14.71 13.683-14.71 7.557 0 13.683 6.586 13.683 14.71 0 6.2-3.567 11.503-8.615 13.668v1.296a3.804 3.804 0 0 1-3.804 3.804h-2.527a3.804 3.804 0 0 1-3.805-3.804v-1.296z"/>
      <path stroke="#000" stroke-linecap="round" stroke-width="2.028" d="M214.287 18.97l6.544-8.657M209.85 17.455L212.777 1M192.897 22.831l-5.478-4.392"/>
    </g>
    <g opacity=".997">
      <path stroke="#000" stroke-linecap="round" stroke-width="3.066" d="M17.433 468.826c.379.608 1.815.912 4.308.912 2.494 0 3.93-.304 4.308-.912M18.447 473.391c.29.608 1.387.912 3.294.912s3.005-.304 3.294-.912"/>
      <path fill="#D5BCCE" d="M8.615 457.64C3.567 455.473 0 450.17 0 443.97c0-8.124 6.126-14.71 13.683-14.71 7.557 0 13.684 6.586 13.684 14.71 0 6.2-3.568 11.503-8.616 13.668v1.296a3.804 3.804 0 0 1-3.804 3.804H12.42a3.804 3.804 0 0 1-3.805-3.804v-1.296z"/>
      <path fill="#FFF" stroke="#000" stroke-linecap="round" stroke-width="3.066" d="M16.724 460.175c-5.048-2.165-8.615-7.468-8.615-13.668 0-8.124 6.126-14.71 13.683-14.71 7.557 0 13.683 6.586 13.683 14.71 0 6.2-3.567 11.503-8.615 13.668v1.296a3.804 3.804 0 0 1-3.805 3.804h-2.527a3.804 3.804 0 0 1-3.804-3.804v-1.296z"/>
      <path stroke="#000" stroke-linecap="round" stroke-width="2.028" d="M29.775 428.97l6.544-8.657M25.34 427.455L28.264 411M8.386 432.831l-5.479-4.392"/>
    </g>
    <g stroke="#000" opacity=".997" transform="rotate(3 -9521.15 8538.344)">
      <path fill="#E1D35B" stroke-width="2.218" d="M46.512 7.427L58.358.354a.444.444 0 0 1 .613.6l-7.998 14.077-4.461-7.604z"/>
      <path fill="#B2659C" stroke-width="3.105" d="M48.358 22.536c-2.577 12.76-5.756 21.074-9.536 24.942-3.78 3.868-9.461 5.912-17.042 6.134l13.522-22.664 13.056-8.412z"/>
      <path fill="#DF7CC3" stroke-width="3.105" d="M37.652 24.532C30.037 11.008 25.178 4.142 23.078 3.937c-3.151-.308-4.71 13.73-.925 19.077 2.522 3.565 7.689 4.07 15.5 1.518z"/>
      <path fill="#DF7CC3" stroke-width="3.105" d="M42.082 25.505C19.277 20.57 5.87 18.662 1.856 19.78c-6.019 1.679 4.263 11.637 7.332 15.08 3.07 3.443 11 2.857 19.622 0 5.747-1.905 10.171-5.023 13.272-9.356z"/>
      <ellipse cx="42.082" cy="15.031" fill="#B2659C" stroke-width="2.218" rx="8.859" ry="8.879"/>
    </g>
    <g fill="#996189" stroke="#000" stroke-linecap="round" opacity=".997" transform="translate(1154 9)">
      <path stroke-width="2.028" d="M34.968 15.22h8.375a2.787 2.787 0 0 1 0 5.575h-8.375v8.374a2.787 2.787 0 0 1-5.574 0v-8.374h-8.375a2.787 2.787 0 0 1 0-5.575h8.375V6.845a2.787 2.787 0 1 1 5.574 0v8.375z"/>
      <path stroke-width="1.521" d="M11.91 32.381l3.553-3.553a1.672 1.672 0 0 1 2.365 2.365l-3.553 3.553 3.553 3.553a1.672 1.672 0 1 1-2.365 2.366l-3.553-3.553-3.554 3.553a1.672 1.672 0 0 1-2.365-2.366l3.553-3.553-3.553-3.553a1.672 1.672 0 1 1 2.365-2.365l3.554 3.553z"/>
      <rect width="3.548" height="16.739" x="7.015" y="-2.551" stroke-width="1.521" rx="1.774" transform="rotate(-23 8.789 5.819)"/>
      <path stroke-width="1.521" d="M60.718 35.606l-.072.188a1.673 1.673 0 0 1-2.161.962l-12.504-4.8a1.673 1.673 0 0 1-.962-2.16l.072-.19a1.673 1.673 0 0 1 2.161-.961l12.504 4.8a1.673 1.673 0 0 1 .962 2.16zm-6.177-7.969a2.535 2.535 0 0 1-1.457-3.275 2.535 2.535 0 1 1 1.457 3.275zm-5.454 14.207a2.535 2.535 0 0 1-1.457-3.276 2.535 2.535 0 1 1 1.457 3.276z"/>
    </g>
    <g fill="#996189" stroke="#000" stroke-linecap="round" opacity=".997" transform="translate(299 666)">
      <path stroke-width="2.028" d="M34.968 15.22h8.375a2.787 2.787 0 0 1 0 5.575h-8.375v8.374a2.787 2.787 0 0 1-5.574 0v-8.374h-8.375a2.787 2.787 0 0 1 0-5.575h8.375V6.845a2.787 2.787 0 1 1 5.574 0v8.375z"/>
      <path stroke-width="1.521" d="M11.91 32.381l3.553-3.553a1.672 1.672 0 0 1 2.365 2.365l-3.553 3.553 3.553 3.553a1.672 1.672 0 1 1-2.365 2.366l-3.553-3.553-3.554 3.553a1.672 1.672 0 0 1-2.365-2.366l3.553-3.553-3.553-3.553a1.672 1.672 0 1 1 2.365-2.365l3.554 3.553z"/>
      <rect width="3.548" height="16.739" x="7.015" y="-2.551" stroke-width="1.521" rx="1.774" transform="rotate(-23 8.789 5.819)"/>
      <path stroke-width="1.521" d="M60.718 35.606l-.072.188a1.673 1.673 0 0 1-2.161.962l-12.504-4.8a1.673 1.673 0 0 1-.962-2.16l.072-.19a1.673 1.673 0 0 1 2.161-.961l12.504 4.8a1.673 1.673 0 0 1 .962 2.16zm-6.177-7.969a2.535 2.535 0 0 1-1.457-3.275 2.535 2.535 0 1 1 1.457 3.275zm-5.454 14.207a2.535 2.535 0 0 1-1.457-3.276 2.535 2.535 0 1 1 1.457 3.276z"/>
    </g>
    <g opacity=".997" transform="rotate(-17 2455.932 -2759.116)">
      <ellipse cx="35.746" cy="19.542" fill="#D5BCCE" rx="19.168" ry="19.177"/>
      <g stroke="#000" stroke-linecap="round" transform="matrix(-1 0 0 1 32.93 9.638)">
        <path stroke-width="1.217" d="M17.048 9.427C22.38 3.888 25.816.854 27.355.324c1.539-.529 3.133.775 4.782 3.913"/>
        <ellipse cx="9.962" cy="10.83" fill="#FFF" stroke-width="2.028" rx="9.962" ry="9.967"/>
      </g>
      <g stroke="#000" stroke-linecap="round" transform="translate(41.038 9.638)">
        <path stroke-width="1.217" d="M17.048 9.427C22.38 3.888 25.816.854 27.355.324c1.539-.529 3.133.775 4.782 3.913"/>
        <ellipse cx="9.962" cy="10.83" fill="#FFF" stroke-width="2.028" rx="9.962" ry="9.967"/>
      </g>
      <path stroke="#000" stroke-linecap="round" stroke-width=".507" d="M22.415 14.464L17.438 18M21.908 17l-4.976 3.536"/>
      <path stroke="#000" stroke-linecap="square" stroke-width="1.521" d="M33.336 20.265c1.196-.543 2.483-.814 3.863-.814s2.667.271 3.863.814"/>
    </g>
    <g stroke="#000" stroke-linecap="round" opacity=".997">
      <path fill="#000" stroke-width="1.521" d="M846.873 772.449h4.054v13.696h-4.054z"/>
      <g fill="#FFF" stroke-width="2.534">
        <path d="M819.15 747.594h14.547v17.247c-6.433-.911-10.586-2.478-12.462-4.702-1.875-2.223-2.57-6.405-2.086-12.545zM876.118 747.594H861.57v17.247c6.432-.911 10.586-2.478 12.462-4.702 1.875-2.223 2.57-6.405 2.086-12.545z"/>
        <path d="M830.15 741h35.981v18.024c0 9.936-8.055 17.99-17.99 17.99-9.937 0-17.992-8.054-17.992-17.99V741z"/>
      </g>
      <g transform="translate(839.778 749.623)">
        <ellipse cx="8.362" cy="8.116" fill="#996189" stroke-width="1.521" rx="8.109" ry="8.116"/>
        <path fill="#FFF" stroke-width="1.014" d="M8.43 10.779l-2.829 1.489.54-3.154L3.852 6.88l3.163-.46L8.43 3.551 9.845 6.42l3.164.46-2.289 2.234.54 3.154z"/>
      </g>
      <path fill="#FFF" stroke-width="2.534" d="M837.751 791.295h22.299v-6.797c0-.255-.19-.47-.443-.503-4.697-.596-8.266-.894-10.707-.894-2.44 0-6.009.298-10.706.894a.507.507 0 0 0-.443.503v6.797z"/>
    </g>
    <g opacity=".997">
      <path fill="#D5BCCE" d="M1294.04 205.527c8.93 4.356 19.708.632 24.073-8.317 2.91-5.966 2.125-18.038-2.354-36.214-17.08 7.66-27.076 14.474-29.986 20.44-4.365 8.95-.664 19.735 8.267 24.091z"/>
      <path fill="#996189" stroke="#000" stroke-linecap="round" stroke-width="3.041" d="M1286.438 201.473c8.93 4.355 19.709.631 24.073-8.318 2.91-5.966 2.126-18.037-2.354-36.214-17.08 7.661-27.076 14.475-29.986 20.44-4.365 8.95-.663 19.736 8.267 24.092z"/>
      <path stroke="#000" stroke-linecap="round" stroke-width="1.825" d="M1302.103 168.655c-4.81 3.643-8.8 8.715-11.97 15.216-3.171 6.502-4.244 11.81-3.22 15.926"/>
      <path stroke="#000" stroke-linecap="round" stroke-width="1.825" d="M1287.102 201.473c-.644-4.521-.959-8.912-.944-13.172.015-4.26.292-7.835.829-10.723"/>
      <path stroke="#000" stroke-linecap="round" stroke-width="1.825" d="M1304.158 173.22c-6.18.6-10.854 4.15-14.025 10.651-3.171 6.502-4.244 11.81-3.22 15.926M1303.655 188.326c-8.113 1.971-13.755 6.207-16.926 12.709"/>
    </g>
    <g opacity=".997">
      <path fill="#FFF" stroke="#000" stroke-linecap="round" stroke-width="2.433" d="M1101.38 730.495h41.555v46.017h-41.556z"/>
      <g fill="#ECECEC">
        <path d="M1105.643 734.928h33.448v5.847h-33.448zM1105.643 742.724h20.583v5.847h-20.583zM1105.643 750.519h20.583v5.847h-20.583zM1105.643 758.315h24.185v5.847h-24.185zM1105.643 766.11h13.379v5.847h-13.38z"/>
      </g>
      <path fill="#FFF" stroke="#000" stroke-linecap="round" stroke-width="2.433" d="M1095.298 724.408h41.556v46.017h-41.556z"/>
      <g fill="#D5BCCE">
        <path d="M1099.561 728.84h33.448v5.848h-33.448zM1099.561 736.637h20.583v5.847h-20.583zM1099.561 744.432h20.583v5.847h-20.583zM1099.561 752.228h24.185v5.847h-24.185zM1099.561 760.023h13.38v5.847h-13.38z"/>
      </g>
      <path stroke="#000" stroke-linecap="round" stroke-width="2.028" d="M1142.513 719.418l4.71-6.229M1146.06 722.462l7.22-1.737M1138.077 717.904l2.215-12.46"/>
    </g>
    <g opacity=".997" transform="translate(1231 588)">
      <rect width="76.525" height="49.203" x="14.697" fill="#D5BCCE" rx="11.151"/>
      <path fill="#000" d="M39.53 3.551h1.52v17.754h-1.52z"/>
      <g stroke-linecap="round" transform="translate(38.01)">
        <use fill="#996189" xlink:href="#m"/>
        <ellipse cx="2.281" cy="2.283" stroke="#000" stroke-width="1.521" rx="3.041" ry="3.043"/>
      </g>
      <rect width="9.629" height="20.797" x="70.95" y="23.333" fill="#996189" stroke="#000" stroke-linecap="round" stroke-width="2.028" rx="2.028"/>
      <rect width="9.629" height="20.797" y="23.333" fill="#996189" stroke="#000" stroke-linecap="round" stroke-width="2.028" rx="2.028"/>
      <path fill="#FFF" stroke="#000" stroke-linecap="round" stroke-width="2.534" d="M6.412 16.074c15.047-1.758 26.34-2.637 33.878-2.637s18.83.879 33.877 2.637a1.52 1.52 0 0 1 1.344 1.51v32.857a1.52 1.52 0 0 1-1.284 1.502c-14.885 2.344-26.197 3.516-33.937 3.516-7.74 0-19.053-1.172-33.938-3.516a1.52 1.52 0 0 1-1.284-1.502V17.584c0-.772.578-1.42 1.344-1.51z"/>
      <path stroke="#000" stroke-linecap="round" stroke-width="2.028" d="M35.31 32.651c-1.868-4.494-3.83-6.74-5.888-6.74s-4.179 2.246-6.363 6.74M57.102 32.651c-1.868-4.494-3.83-6.74-5.888-6.74s-4.179 2.246-6.363 6.74"/>
      <g>
        <g transform="translate(31.42 41.087)">
          <use fill="#FFF" xlink:href="#n"/>
          <rect width="16.724" height="4.059" x=".76" y=".76" stroke="#000" stroke-width="1.521" rx="2.03"/>
        </g>
        <path stroke="#000" stroke-linecap="square" stroke-width="1.014" d="M36.235 42.355V45.4M44.85 42.355V45.4M40.29 42.355V45.4"/>
      </g>
    </g>
    <g stroke="#000" opacity=".997" transform="rotate(10 -1093.586 7971.227)">
      <path stroke-linecap="round" stroke-width="2.534" d="M11.906 37.223V1.78c0-.84.68-1.52 1.52-1.52h29.16c.84 0 1.52.68 1.52 1.52v35.443"/>
      <path stroke-linecap="square" stroke-width="1.521" d="M12.416 9.384h31.421"/>
      <ellipse cx="6.081" cy="37.536" fill="#996189" stroke-linecap="round" stroke-width="2.028" rx="6.081" ry="6.087"/>
      <ellipse cx="38.516" cy="37.536" fill="#996189" stroke-linecap="round" stroke-width="2.028" rx="6.081" ry="6.087"/>
    </g>
    <g stroke="#000" opacity=".997" transform="rotate(10 -4196.047 813.844)">
      <path stroke-linecap="round" stroke-width="2.534" d="M11.906 37.223V1.78c0-.84.68-1.52 1.52-1.52h29.16c.84 0 1.52.68 1.52 1.52v35.443"/>
      <path stroke-linecap="square" stroke-width="1.521" d="M12.416 9.384h31.421"/>
      <ellipse cx="6.081" cy="37.536" fill="#996189" stroke-linecap="round" stroke-width="2.028" rx="6.081" ry="6.087"/>
      <ellipse cx="38.516" cy="37.536" fill="#996189" stroke-linecap="round" stroke-width="2.028" rx="6.081" ry="6.087"/>
    </g>
    <g opacity=".997" transform="rotate(-4 6660.415 -16425.365)">
      <g fill="#996189" stroke="#000" stroke-linecap="round" stroke-width="2.534">
        <path d="M11.744 16.208h42.718v17.374c-9.536 5.314-16.656 7.97-21.36 7.97-4.703 0-11.822-2.656-21.358-7.97V16.208z"/>
        <path d="M.153 16.311L32.821.142l32.738 16.169-32.738 13.236z"/>
      </g>
      <ellipse cx="32.335" cy="13.253" fill="#FFF" stroke="#000" stroke-linecap="round" stroke-width="1.217" rx="3.233" ry="2.651"/>
      <path stroke="#000" stroke-linecap="round" stroke-width=".811" d="M32.095 13.097L49.06 25.363v7.996"/>
      <use fill="#FFF" xlink:href="#o"/>
      <path stroke="#000" stroke-width=".811" d="M49.07 27.6l-1.627 5.36c.753.477 1.312.712 1.643.712.322 0 .826-.229 1.482-.7L49.069 27.6z"/>
    </g>
    <g opacity=".997" transform="rotate(-28 155.446 44.162)">
      <g fill="#996189" stroke="#000" stroke-linecap="round" stroke-width="2.534">
        <path d="M11.744 16.208h42.718v17.374c-9.536 5.314-16.656 7.97-21.36 7.97-4.703 0-11.822-2.656-21.358-7.97V16.208z"/>
        <path d="M.153 16.311L32.821.142l32.738 16.169-32.738 13.236z"/>
      </g>
      <ellipse cx="32.335" cy="13.253" fill="#FFF" stroke="#000" stroke-linecap="round" stroke-width="1.217" rx="3.233" ry="2.651"/>
      <path stroke="#000" stroke-linecap="round" stroke-width=".811" d="M32.095 13.097L49.06 25.363v7.996"/>
      <use fill="#FFF" xlink:href="#p"/>
      <path stroke="#000" stroke-width=".811" d="M49.07 27.6l-1.627 5.36c.753.477 1.312.712 1.643.712.322 0 .826-.229 1.482-.7L49.069 27.6z"/>
    </g>
    <g opacity=".997" transform="translate(1372 680)">
      <rect width="14.941" height="52.413" y="33.819" fill="#996189" rx="3.65"/>
      <rect width="14.941" height="61.859" x="19.514" y="24.372" fill="#996189" rx="3.65"/>
      <rect width="14.941" height="39.31" x="39.029" y="46.922" fill="#996189" rx="3.65"/>
      <rect width="14.941" height="81.667" x="58.543" y="4.565" fill="#996189" rx="3.65"/>
      <use fill="#FFF" fill-opacity="0" xlink:href="#q"/>
      <rect width="12.406" height="49.879" x="4.815" y="31.028" stroke="#000" stroke-width="2.534" rx="3.65"/>
      <use fill="#FFF" fill-opacity="0" xlink:href="#r"/>
      <rect width="12.406" height="59.325" x="25.85" y="21.074" stroke="#000" stroke-width="2.534" rx="3.65"/>
      <g>
        <use fill="#FFF" fill-opacity="0" xlink:href="#s"/>
        <rect width="12.406" height="36.775" x="45.364" y="43.624" stroke="#000" stroke-width="2.534" rx="3.65"/>
      </g>
      <g>
        <use fill="#FFF" fill-opacity="0" xlink:href="#t"/>
        <rect width="12.406" height="79.132" x="64.878" y="1.267" stroke="#000" stroke-width="2.534" rx="3.65"/>
      </g>
    </g>
    <path fill="#FFF" stroke="#000" stroke-linecap="round" stroke-width="2.534" d="M1137.793 291.652l9.921 9.224a.507.507 0 0 0 .852-.371v-8.853h2.451a6.083 6.083 0 0 0 6.083-6.082v-17.763a6.083 6.083 0 0 0-6.083-6.082h-47.129a6.083 6.083 0 0 0-6.083 6.082v17.763a6.083 6.083 0 0 0 6.083 6.082h33.905z"/>
    <g fill="#D5BCCE">
      <path d="M1146.457 267.812h-42.57v4.058h42.57zM1146.457 273.899h-32.434v4.058h32.434zM1146.457 279.986h-36.995v4.058h36.995z"/>
    </g>
    <g>
      <path fill="#FFF" stroke="#000" stroke-linecap="round" stroke-width="2.534" d="M1094.306 275.928l-9.92 9.223a.507.507 0 0 1-.853-.37v-8.853h-2.45a6.083 6.083 0 0 1-6.083-6.083v-17.762a6.083 6.083 0 0 1 6.083-6.083h47.129a6.083 6.083 0 0 1 6.082 6.083v17.762a6.083 6.083 0 0 1-6.082 6.083h-33.906z"/>
      <path fill="#996189" d="M1083.615 252.087h42.57v4.058h-42.57zM1083.615 258.174h32.434v4.058h-32.434zM1083.615 264.261h36.995v4.058h-36.995z"/>
    </g>
  </g>
</svg>
