<?xml version="1.0" encoding="UTF-8" standalone="no"?>
<svg width="11px" height="14px" viewBox="0 0 11 14" version="1.1" xmlns="http://www.w3.org/2000/svg" xmlns:xlink="http://www.w3.org/1999/xlink">
    <!-- Generator: Sketch 39.1 (31720) - http://www.bohemiancoding.com/sketch -->
    <title>Shape</title>
    <desc>Created with Sketch.</desc>
    <defs></defs>
    <g id="Log-In" stroke="none" stroke-width="1" fill="none" fill-rule="evenodd">
        <g id="Login-Modal-Copy-5" transform="translate(-426.000000, -291.000000)" fill="#996189">
            <g id="Group" transform="translate(424.000000, 291.000000)">
                <path d="M11.25,5 L10.625,5 L10.625,3.75 C10.625,2.025 9.225,0.625 7.5,0.625 C5.775,0.625 4.375,2.025 4.375,3.75 L4.375,5 L3.75,5 C3.0625,5 2.5,5.5625 2.5,6.25 L2.5,12.5 C2.5,13.1875 3.0625,13.75 3.75,13.75 L11.25,13.75 C11.9375,13.75 12.5,13.1875 12.5,12.5 L12.5,6.25 C12.5,5.5625 11.9375,5 11.25,5 L11.25,5 Z M7.5,10.625 C6.8125,10.625 6.25,10.0625 6.25,9.375 C6.25,8.6875 6.8125,8.125 7.5,8.125 C8.1875,8.125 8.75,8.6875 8.75,9.375 C8.75,10.0625 8.1875,10.625 7.5,10.625 L7.5,10.625 Z M9.4375,5 L5.5625,5 L5.5625,3.75 C5.5625,2.68125 6.43125,1.8125 7.5,1.8125 C8.56875,1.8125 9.4375,2.68125 9.4375,3.75 L9.4375,5 L9.4375,5 Z" id="Shape"></path>
            </g>
        </g>
    </g>
</svg>