<?xml version="1.0" encoding="utf-8"?>
<!-- Generator: Adobe Illustrator 18.0.0, SVG Export Plug-In . SVG Version: 6.00 Build 0)  -->
<!DOCTYPE svg PUBLIC "-//W3C//DTD SVG 1.1//EN" "http://www.w3.org/Graphics/SVG/1.1/DTD/svg11.dtd">
<svg version="1.1" id="Layer_1" xmlns="http://www.w3.org/2000/svg" xmlns:xlink="http://www.w3.org/1999/xlink" x="0px" y="0px"
	 viewBox="0 0 234.6 193.6" enable-background="new 0 0 234.6 193.6" xml:space="preserve">
<path fill="none" stroke="#ED2224" stroke-miterlimit="10" d="M92.8,76.4"/>
<g>
	<g>
		<g>
			<polygon fill="#99B1A3" points="113.7,35.5 121.4,42.2 127,34 			"/>
		</g>
		<g>
			<polygon fill="#C7E1D1" points="131.9,41.9 127,34 121.4,42.2 			"/>
		</g>
		<g>
			<polygon fill="#87AFA6" points="113.7,35.5 103.9,46.7 121.4,42.2 			"/>
		</g>
		<g>
			<polygon fill="#B8C7C1" points="101.6,59.6 121.4,42.2 103.9,46.7 			"/>
		</g>
		<g>
			<polygon fill="#ABDCD2" points="132.9,60.7 131.9,41.9 121.4,42.2 			"/>
		</g>
		<g>
			<polygon fill="#BDD6CE" points="122.7,63.5 121.4,42.2 101.6,59.6 			"/>
		</g>
		<g>
			<polygon fill="#A0D0C6" points="132.9,60.7 122.7,63.5 121.4,42.2 			"/>
		</g>
		<g>
			<polygon fill="#7C8886" points="99.6,65.5 122.7,63.5 101.6,59.6 			"/>
		</g>
		<g>
			<polygon fill="#91AAAE" points="122.7,63.5 92.8,76.3 99.6,65.5 			"/>
		</g>
		<g>
			<polygon fill="#7BAEA9" points="118.5,81 92.8,76.3 122.7,63.5 			"/>
		</g>
		<g>
			<polygon fill="#C8E8E1" points="132.9,60.7 118.5,81 122.7,63.5 			"/>
		</g>
		<g>
			<polygon fill="#DBEFE5" points="140.6,77.9 118.5,81 132.9,60.7 			"/>
		</g>
		<g>
			<polygon fill="#9BC8D1" points="117.8,117.3 118.5,81 92.8,76.3 			"/>
		</g>
		<g>
			<polygon fill="#A1AEBC" points="93.8,112.6 117.8,117.3 92.8,76.3 			"/>
		</g>
		<g>
			<polygon fill="#C5E0DF" points="140.6,77.9 117.8,117.3 118.5,81 			"/>
		</g>
		<g>
			<polygon fill="#DAE7E7" points="140.6,112.9 117.8,117.3 140.6,77.9 			"/>
		</g>
		<g>
			<polygon fill="#B8BAC8" points="117.7,128.9 140.6,112.9 117.8,117.3 			"/>
		</g>
		<g>
			<polygon fill="#8E9BAF" points="93.8,112.6 117.7,128.9 117.8,117.3 			"/>
		</g>
		<g>
			<polygon fill="#8B7F96" points="108.2,135.3 117.7,128.9 93.8,112.6 			"/>
		</g>
		<g>
			<polygon fill="#766C81" points="126.9,135.3 117.7,128.9 108.2,135.3 			"/>
		</g>
		<g>
			<polygon fill="#97A2B1" points="126.9,135.3 117.7,128.9 140.6,112.9 			"/>
		</g>
		<g>
			<polygon fill="#9F96AE" points="118.6,141.9 126.9,135.3 108.2,135.3 			"/>
		</g>
		<g>
			<polygon fill="#9792B5" points="93.5,172.8 118.6,141.9 108.2,135.3 			"/>
		</g>
		<g>
			<polygon fill="#ABA0CB" points="112.2,186.2 93.5,172.9 118.6,141.9 			"/>
		</g>
		<g>
			<polygon fill="#C3B1D6" points="124.2,186.1 112.2,186.2 118.6,141.9 			"/>
		</g>
		<g>
			<polygon fill="#DCC0DD" points="142.6,173 124.2,186.1 118.6,141.9 			"/>
		</g>
		<g>
			<polygon fill="#B8CEE7" points="126.9,135.3 142.6,173 118.6,141.9 			"/>
		</g>
		<g>
			<polygon fill="#A4B398" points="176.2,7.4 141.4,24.2 141.3,30.4 			"/>
		</g>
		<g>
			<polygon fill="#7E836C" points="141.4,24.2 141.3,30.4 131.9,41.9 			"/>
		</g>
		<g>
			<polygon fill="#A2AA97" points="127,34 141.4,24.2 131.9,41.9 			"/>
		</g>
	</g>
	<g>
		<g>
			<g>
				<polyline fill="#7AA9AE" points="149.8,68.7 159,59.9 156.1,72.3 149.8,68.7 				"/>
			</g>
			<g>
				<polygon fill="#768E98" points="168.1,67.9 159,59.9 156.1,72.3 				"/>
			</g>
			<g>
				<polygon fill="#DAE6F3" points="160.8,77.9 156.1,72.3 168.1,67.9 				"/>
			</g>
			<g>
				<polygon fill="#7FA6B0" points="173.3,77.2 168.1,67.9 160.8,77.9 				"/>
			</g>
			<g>
				<polygon fill="#7B8B9B" points="163,84.2 160.8,77.9 173.3,77.2 				"/>
			</g>
			<g>
				<polygon fill="#D9DFF1" points="175.2,87.8 173.3,77.2 163,84.2 				"/>
			</g>
			<g>
				<polygon fill="#83A3B1" points="163.1,91 163,84.2 175.2,87.8 				"/>
			</g>
			<g>
				<polygon fill="#818A9F" points="173.3,98.1 175.2,87.8 163.1,91 				"/>
			</g>
			<g>
				<polygon fill="#D8D8ED" points="161.2,96.7 163.1,91 173.3,98.1 				"/>
			</g>
			<g>
				<polygon fill="#889DB2" points="168.4,107.2 173.3,98.1 161.2,96.7 				"/>
			</g>
			<g>
				<polygon fill="#8289A0" points="157.1,102.7 161.2,96.7 168.4,107.2 				"/>
			</g>
			<g>
				<polygon fill="#D7D2E9" points="159,115.3 168.4,107.2 157.1,102.7 				"/>
			</g>
			<g>
				<polygon fill="#869FB3" points="149.8,106.5 157.1,102.7 159,115.3 				"/>
			</g>
		</g>
		<g>
			<g>
				<polygon fill="#6B949B" points="190.6,39.6 184.4,35.8 193.7,26.9 				"/>
			</g>
			<g>
				<polygon fill="#56777D" points="202.6,33.8 193.7,26.9 190.6,39.6 				"/>
			</g>
			<g>
				<polygon fill="#94C7D0" points="197.4,45.4 190.6,39.6 202.6,33.8 				"/>
			</g>
			<g>
				<polygon fill="#70939D" points="209.8,41.4 202.6,33.8 197.4,45.4 				"/>
			</g>
			<g>
				<polygon fill="#5D7581" points="203.3,52.4 197.4,45.4 209.8,41.4 				"/>
			</g>
			<g>
				<polygon fill="#98C1D0" points="216.1,49.7 209.8,41.4 203.3,52.4 				"/>
			</g>
			<g>
				<polygon fill="#7490A1" points="207.4,58.8 203.3,52.4 216.1,49.7 				"/>
			</g>
			<g>
				<polygon fill="#637487" points="220.6,58.3 216.1,49.7 207.4,58.8 				"/>
			</g>
			<g>
				<polygon fill="#9BBACF" points="211.1,67.1 207.4,58.8 220.6,58.3 				"/>
			</g>
			<g>
				<polygon fill="#7C8CA6" points="224.3,68.6 220.6,58.3 211.1,67.1 				"/>
			</g>
			<g>
				<polygon fill="#6D748F" points="214,77.7 211.1,67.1 224.3,68.6 				"/>
			</g>
			<g>
				<polygon fill="#A0B1D0" points="226.4,79.8 224.3,68.6 214,77.7 				"/>
			</g>
			<g>
				<polygon fill="#7A7296" points="226.9,91.3 226.4,79.8 214.9,85.8 				"/>
			</g>
			<g>
				<polygon fill="#8389AA" points="214,77.7 214.9,85.8 226.4,79.8 				"/>
			</g>
			<g>
				<polygon fill="#A3ABCF" points="214.4,95.8 214.9,85.8 226.9,91.3 				"/>
			</g>
			<g>
				<polygon fill="#8C85AE" points="225.8,101.5 226.9,91.3 214.4,95.8 				"/>
			</g>
			<g>
				<polygon fill="#7E729B" points="212.6,104.6 214.4,95.8 225.8,101.5 				"/>
			</g>
			<g>
				<polygon fill="#A6A2CD" points="223.5,110.4 225.8,101.5 212.6,104.6 				"/>
			</g>
			<g>
				<polygon fill="#8F84AE" points="209.8,112.8 212.6,104.6 223.5,110.4 				"/>
			</g>
			<g>
				<polygon fill="#8571A0" points="219.4,120.5 223.5,110.4 209.8,112.8 				"/>
			</g>
			<g>
				<polygon fill="#A79FCE" points="206,119.9 209.8,112.8 219.4,120.5 				"/>
			</g>
			<g>
				<polygon fill="#957FB3" points="214,129.8 219.4,120.5 206,119.9 				"/>
			</g>
			<g>
				<polygon fill="#8670A1" points="201.9,125.8 206,119.9 214,129.8 				"/>
			</g>
			<g>
				<polygon fill="#AA99C9" points="207.8,137.3 214,129.8 201.9,125.8 				"/>
			</g>
			<g>
				<polygon fill="#9480B3" points="196.4,131.5 201.9,125.8 207.8,137.3 				"/>
			</g>
			<g>
				<polygon fill="#8E70A7" points="202.1,143.1 207.8,137.3 196.4,131.5 				"/>
			</g>
			<g>
				<polygon fill="#A99ACA" points="191.3,135.9 196.4,131.5 202.1,143.1 				"/>
			</g>
			<g>
				<polygon fill="#987FB4" points="194.2,148.6 202.1,143.1 191.5,135.9 				"/>
			</g>
			<g>
				<polygon fill="#866FA0" points="185.3,140 191.5,135.9 194.2,148.6 				"/>
			</g>
		</g>
		<g>
			<g>
				<polygon fill="#8AB7C4" points="182.9,46.9 177.1,42.8 174.1,54.3 				"/>
				<g>
					<polygon fill="#A5DDE9" points="178.6,58.3 174.1,54.3 182.9,46.9 					"/>
				</g>
				<g>
					<polygon fill="#6A909A" points="189.8,53.3 182.9,46.9 178.6,58.3 					"/>
				</g>
				<g>
					<polygon fill="#87BCC4" points="183.1,63.2 178.6,58.3 189.8,53.3 					"/>
				</g>
				<polygon fill="#A7CCE5" points="195.7,61.7 189.8,53.3 183.1,63.2 				"/>
				<g>
					<polygon fill="#708E9D" points="187.4,70.4 183.1,63.2 195.7,61.7 					"/>
				</g>
				<g>
					<polygon fill="#A7D5E7" points="200.1,71.6 195.7,61.7 187.4,70.4 					"/>
				</g>
				<g>
					<polygon fill="#8FB0C5" points="190.1,78.4 187.4,70.4 200.1,71.6 					"/>
				</g>
				<polygon fill="#778AA0" points="202.1,82 190.1,78.4 200.1,71.6 				"/>
				<g>
					<polygon fill="#A7CCE5" points="191.1,88.1 190.1,78.4 202.1,82 					"/>
				</g>
				<g>
					<polygon fill="#94A7C6" points="201.8,94.3 191.1,88.1 202.1,82 					"/>
				</g>
				<g>
					<polygon fill="#7E88A6" points="189.7,97.2 191.1,88.1 201.8,94.3 					"/>
				</g>
				<g>
					<polygon fill="#AAC1E3" points="199.2,104.6 189.7,97.2 201.8,94.3 					"/>
				</g>
				<g>
					<polygon fill="#95A5C5" points="186.8,104.3 189.7,97.2 199.2,104.6 					"/>
				</g>
				<g>
					<polygon fill="#8485A8" points="194.7,113.8 199.2,104.6 186.8,104.3 					"/>
				</g>
				<g>
					<polygon fill="#ABC0E3" points="183.3,110.4 186.8,104.3 194.7,113.8 					"/>
				</g>
				<g>
					<polygon fill="#9A9FC7" points="188.9,121.3 194.7,113.8 183.3,110.4 					"/>
				</g>
				<g>
					<polygon fill="#8585A9" points="178.9,115.3 183.3,110.4 188.9,121.3 					"/>
				</g>
				<g>
					<polygon fill="#9A9FC7" points="182.8,126.9 188.9,121.3 178.9,115.3 					"/>
				</g>
				<g>
					<polygon fill="#99A2C7" points="173.3,119.8 178.9,115.3 182.8,126.9 					"/>
				</g>
				<g>
					<polygon fill="#AEB8DE" points="176.2,131.4 182.8,126.9 173.3,119.8 					"/>
				</g>
				<g>
					<polygon fill="#ABBFE3" points="167.2,123.2 173.3,119.8 176.2,131.4 					"/>
				</g>
			</g>
			<g>
				<polygon fill="#6A909A" points="174.1,54.3 168.4,51.1 177.1,42.8 				"/>
			</g>
		</g>
	</g>
	<g>
		<g>
			<g>
				<polyline fill="#7AA9AE" points="83,68.7 73.9,59.9 76.7,72.3 83,68.7 				"/>
			</g>
			<g>
				<polygon fill="#768E98" points="64.8,67.9 73.9,59.9 76.7,72.3 				"/>
			</g>
			<g>
				<polygon fill="#DAE6F3" points="72,77.9 76.7,72.3 64.8,67.9 				"/>
			</g>
			<g>
				<polygon fill="#7FA6B0" points="59.6,77.2 64.8,67.9 72,77.9 				"/>
			</g>
			<g>
				<polygon fill="#7B8B9B" points="69.8,84.2 72,77.9 59.6,77.2 				"/>
			</g>
			<g>
				<polygon fill="#D9DFF1" points="57.7,87.8 59.6,77.2 69.8,84.2 				"/>
			</g>
			<g>
				<polygon fill="#83A3B1" points="69.8,91 69.8,84.2 57.7,87.8 				"/>
			</g>
			<g>
				<polygon fill="#818A9F" points="59.5,98.1 57.7,87.8 69.8,91 				"/>
			</g>
			<g>
				<polygon fill="#D8D8ED" points="71.6,96.7 69.8,91 59.5,98.1 				"/>
			</g>
			<g>
				<polygon fill="#889DB2" points="64.4,107.2 59.5,98.1 71.6,96.7 				"/>
			</g>
			<g>
				<polygon fill="#8289A0" points="75.8,102.7 71.6,96.7 64.4,107.2 				"/>
			</g>
			<g>
				<polygon fill="#D7D2E9" points="73.8,115.3 64.4,107.2 75.8,102.7 				"/>
			</g>
			<g>
				<polygon fill="#869FB3" points="83.1,106.5 75.8,102.7 73.8,115.3 				"/>
			</g>
		</g>
		<g>
			<g>
				<polygon fill="#6B949B" points="42.3,39.6 48.4,35.8 39.2,26.9 				"/>
			</g>
			<g>
				<polygon fill="#56777D" points="30.3,33.8 39.2,26.9 42.3,39.6 				"/>
			</g>
			<g>
				<polygon fill="#94C7D0" points="35.5,45.4 42.3,39.6 30.3,33.8 				"/>
			</g>
			<g>
				<polygon fill="#70939D" points="23,41.4 30.3,33.8 35.5,45.4 				"/>
			</g>
			<g>
				<polygon fill="#5D7581" points="29.6,52.4 35.5,45.4 23,41.4 				"/>
			</g>
			<g>
				<polygon fill="#98C1D0" points="16.8,49.7 23,41.4 29.6,52.4 				"/>
			</g>
			<g>
				<polygon fill="#7490A1" points="25.5,58.8 29.6,52.4 16.8,49.7 				"/>
			</g>
			<g>
				<polygon fill="#637487" points="12.2,58.3 16.8,49.7 25.5,58.8 				"/>
			</g>
			<g>
				<polygon fill="#9BBACF" points="21.8,67.1 25.5,58.8 12.2,58.3 				"/>
			</g>
			<g>
				<polygon fill="#7C8CA6" points="8.5,68.6 12.2,58.3 21.8,67.1 				"/>
			</g>
			<g>
				<polygon fill="#6D748F" points="18.9,77.7 21.8,67.1 8.5,68.6 				"/>
			</g>
			<g>
				<polygon fill="#A0B1D0" points="6.4,79.8 8.5,68.6 18.9,77.7 				"/>
			</g>
			<g>
				<polygon fill="#7A7296" points="6,91.3 6.4,79.8 17.9,85.8 				"/>
			</g>
			<g>
				<polygon fill="#8389AA" points="18.9,77.7 17.9,85.8 6.4,79.8 				"/>
			</g>
			<g>
				<polygon fill="#A3ABCF" points="18.4,95.8 17.9,85.8 6,91.3 				"/>
			</g>
			<g>
				<polygon fill="#8C85AE" points="7.1,101.5 6,91.3 18.4,95.8 				"/>
			</g>
			<g>
				<polygon fill="#7E729B" points="20.2,104.6 18.4,95.8 7.1,101.5 				"/>
			</g>
			<g>
				<polygon fill="#A6A2CD" points="9.3,110.4 7.1,101.5 20.2,104.6 				"/>
			</g>
			<g>
				<polygon fill="#8F84AE" points="23,112.8 20.2,104.6 9.3,110.4 				"/>
			</g>
			<g>
				<polygon fill="#8571A0" points="13.5,120.5 9.3,110.4 23,112.8 				"/>
			</g>
			<g>
				<polygon fill="#A79FCE" points="26.9,119.9 23,112.8 13.5,120.5 				"/>
			</g>
			<g>
				<polygon fill="#957FB3" points="18.9,129.8 13.5,120.5 26.9,119.9 				"/>
			</g>
			<g>
				<polygon fill="#8670A1" points="31,125.8 26.9,119.9 18.9,129.8 				"/>
			</g>
			<g>
				<polygon fill="#AA99C9" points="25.1,137.3 18.9,129.8 31,125.8 				"/>
			</g>
			<g>
				<polygon fill="#9480B3" points="36.4,131.5 31,125.8 25.1,137.3 				"/>
			</g>
			<g>
				<polygon fill="#8E70A7" points="30.8,143.1 25.1,137.3 36.4,131.5 				"/>
			</g>
			<g>
				<polygon fill="#A99ACA" points="41.5,135.9 36.4,131.5 30.8,143.1 				"/>
			</g>
			<g>
				<polygon fill="#987FB4" points="38.6,148.6 30.8,143.1 41.4,135.9 				"/>
			</g>
			<g>
				<polygon fill="#866FA0" points="47.6,140 41.4,135.9 38.6,148.6 				"/>
			</g>
		</g>
		<g>
			<g>
				<polygon fill="#8AB7C4" points="50,46.9 55.7,42.8 58.8,54.3 				"/>
				<g>
					<polygon fill="#A5DDE9" points="54.2,58.3 58.8,54.3 50,46.9 					"/>
				</g>
				<g>
					<polygon fill="#6A909A" points="43.1,53.3 50,46.9 54.2,58.3 					"/>
				</g>
				<g>
					<polygon fill="#87BCC4" points="49.8,63.2 54.2,58.3 43.1,53.3 					"/>
				</g>
				<polygon fill="#A7CCE5" points="37.1,61.7 43.1,53.3 49.8,63.2 				"/>
				<g>
					<polygon fill="#708E9D" points="45.5,70.4 49.8,63.2 37.1,61.7 					"/>
				</g>
				<g>
					<polygon fill="#A7D5E7" points="32.7,71.6 37.1,61.7 45.5,70.4 					"/>
				</g>
				<g>
					<polygon fill="#8FB0C5" points="42.8,78.4 45.5,70.4 32.7,71.6 					"/>
				</g>
				<polygon fill="#778AA0" points="30.8,82 42.8,78.4 32.7,71.6 				"/>
				<g>
					<polygon fill="#A7CCE5" points="41.8,88.1 42.8,78.4 30.8,82 					"/>
				</g>
				<g>
					<polygon fill="#94A7C6" points="31.1,94.3 41.8,88.1 30.8,82 					"/>
				</g>
				<g>
					<polygon fill="#7E88A6" points="43.2,97.2 41.8,88.1 31.1,94.3 					"/>
				</g>
				<g>
					<polygon fill="#AAC1E3" points="33.6,104.6 43.2,97.2 31.1,94.3 					"/>
				</g>
				<g>
					<polygon fill="#95A5C5" points="46.1,104.3 43.2,97.2 33.6,104.6 					"/>
				</g>
				<g>
					<polygon fill="#8485A8" points="38.2,113.8 33.6,104.6 46.1,104.3 					"/>
				</g>
				<g>
					<polygon fill="#ABC0E3" points="49.6,110.4 46.1,104.3 38.2,113.8 					"/>
				</g>
				<g>
					<polygon fill="#9A9FC7" points="43.9,121.3 38.2,113.8 49.6,110.4 					"/>
				</g>
				<g>
					<polygon fill="#8585A9" points="53.9,115.3 49.6,110.4 43.9,121.3 					"/>
				</g>
				<g>
					<polygon fill="#9A9FC7" points="50.1,126.9 43.9,121.3 53.9,115.3 					"/>
				</g>
				<g>
					<polygon fill="#99A2C7" points="59.5,119.8 53.9,115.3 50.1,126.9 					"/>
				</g>
				<g>
					<polygon fill="#AEB8DE" points="56.7,131.4 50.1,126.9 59.5,119.8 					"/>
				</g>
				<g>
					<polygon fill="#ABBFE3" points="65.7,123.2 59.5,119.8 56.7,131.4 					"/>
				</g>
			</g>
			<g>
				<polygon fill="#6A909A" points="58.8,54.3 64.5,51.1 55.7,42.8 				"/>
			</g>
		</g>
	</g>
</g>
</svg>
